<svg xmlns="http://www.w3.org/2000/svg" xmlns:xlink="http://www.w3.org/1999/xlink" viewBox="0 0 500 232.94"><defs><style>.cls-1,.cls-11,.cls-12,.cls-19,.cls-20,.cls-23{fill:none;}.cls-2{isolation:isolate;}.cls-3{clip-path:url(#clip-path);}.cls-4{fill:#e6f0d9;}.cls-5{mix-blend-mode:multiply;}.cls-6{fill:#388e3c;}.cls-7{fill:#4caf50;}.cls-8{font-size:12px;}.cls-14,.cls-15,.cls-8{fill:#fff;}.cls-15,.cls-22,.cls-24,.cls-27,.cls-28,.cls-8{font-family:Roboto-Bold, Roboto;font-weight:700;}.cls-9{letter-spacing:-0.02em;}.cls-10{letter-spacing:-0.01em;}.cls-11,.cls-12,.cls-19,.cls-20,.cls-23{stroke:#1d1d1b;}.cls-11,.cls-12,.cls-19,.cls-20{stroke-linecap:round;stroke-linejoin:round;}.cls-11,.cls-12{stroke-width:1.5px;}.cls-12,.cls-20{stroke-dasharray:2;}.cls-13{letter-spacing:-0.02em;}.cls-15,.cls-24,.cls-28{font-size:6px;}.cls-16{letter-spacing:-0.01em;}.cls-17{letter-spacing:-0.01em;}.cls-18{letter-spacing:-0.02em;}.cls-21,.cls-24{fill:#1d1d1b;}.cls-22{font-size:6.8px;}.cls-23{stroke-miterlimit:10;}.cls-25{letter-spacing:0.01em;}.cls-26{letter-spacing:-0.03em;}.cls-27{font-size:4px;}.cls-29{font-size:5px;}</style><clipPath id="clip-path"><rect class="cls-1" width="500" height="232.94" rx="10"/></clipPath></defs><g class="cls-2"><g id="Ebene_1" data-name="Ebene 1"><g class="cls-3"><rect class="cls-4" width="500" height="232.94"/></g><g class="cls-5"><rect class="cls-6" x="30.63" y="15.55" width="83.35" height="43.52" rx="10"/></g><rect class="cls-7" x="29.63" y="14.55" width="83.35" height="43.52" rx="10"/><text class="cls-8" transform="translate(40.75 40.82)">Messfühler</text><g class="cls-5"><rect class="cls-6" x="140.86" y="15.55" width="83.35" height="43.52" rx="10"/></g><rect class="cls-7" x="139.86" y="14.55" width="83.35" height="43.52" rx="10"/><text class="cls-8" transform="translate(153.21 40.82)"><tspan class="cls-9">V</tspan><tspan x="7.59" y="0">erstär</tspan><tspan class="cls-10" x="39.49" y="0">k</tspan><tspan x="45.78" y="0">er</tspan></text><g class="cls-5"><rect class="cls-6" x="251.1" y="15.55" width="83.35" height="43.52" rx="10"/></g><rect class="cls-7" x="250.1" y="14.55" width="83.35" height="43.52" rx="10"/><text class="cls-8" transform="translate(265.98 33.82)">Tiefpass-<tspan x="13" y="14.4">filter</tspan></text><g class="cls-5"><rect class="cls-6" x="361.33" y="15.55" width="83.35" height="43.52" rx="10"/></g><rect class="cls-7" x="360.33" y="14.55" width="83.35" height="43.52" rx="10"/><text class="cls-8" transform="translate(374.09 40.82)">Abtastung</text><line class="cls-11" x1="115" y1="36.31" x2="142.94" y2="36.31"/><line class="cls-12" x1="144.05" y1="36.27" x2="142.2" y2="34.54"/><line class="cls-12" x1="144.01" y1="36.31" x2="142.19" y2="38.08"/><line class="cls-11" x1="224.92" y1="36.31" x2="252.87" y2="36.31"/><line class="cls-12" x1="253.98" y1="36.27" x2="252.13" y2="34.54"/><line class="cls-12" x1="253.93" y1="36.31" x2="252.12" y2="38.08"/><line class="cls-11" x1="335.15" y1="36.31" x2="363.09" y2="36.31"/><line class="cls-12" x1="364.2" y1="36.27" x2="362.35" y2="34.54"/><line class="cls-12" x1="364.16" y1="36.31" x2="362.34" y2="38.08"/><g class="cls-5"><rect class="cls-6" x="46.74" y="134.57" width="83.35" height="43.52" rx="10"/></g><rect class="cls-7" x="45.74" y="133.57" width="83.35" height="43.52" rx="10"/><text class="cls-8" transform="translate(74.91 151.84)">A/D-<tspan class="cls-13" x="-9.63" y="14.4">W</tspan><tspan x="0.67" y="14.4">andler</tspan></text><g class="cls-5"><rect class="cls-6" x="156.97" y="134.57" width="83.35" height="43.52" rx="10"/></g><rect class="cls-7" x="155.97" y="133.57" width="83.35" height="43.52" rx="10"/><text class="cls-8" transform="translate(174.87 152.84)">Digitaler<tspan x="-0.69" y="14.4">Tiefpass</tspan></text><g class="cls-5"><rect class="cls-6" x="267.2" y="134.57" width="83.35" height="43.52" rx="10"/></g><rect class="cls-7" x="266.2" y="133.57" width="83.35" height="43.52" rx="10"/><text class="cls-8" transform="translate(299.74 152.84)">I/O<tspan x="-22.82" y="14.4">Steuerlogik</tspan></text><rect class="cls-7" x="409.41" y="133.94" width="65.07" height="43.15" rx="10"/><path class="cls-14" d="M454.75,144.53v-2.21h-2.21V140.1a2.22,2.22,0,0,0-2.22-2.21H434.81a2.22,2.22,0,0,0-2.21,2.21v15.51a2.22,2.22,0,0,0,2.21,2.21h15.51a2.22,2.22,0,0,0,2.22-2.21v-2.22h2.21v-2.21h-2.21V149h2.21v-2.21h-2.21v-2.22Zm-4.43,11.08H434.81V140.1h15.51ZM437,149h5.54v4.43H437Zm6.65-6.64h4.43v3.32h-4.43Zm-6.65,0h5.54v5.54H437Zm6.65,4.43h4.43v6.64h-4.43Z"/><text class="cls-15" transform="translate(414.34 165.56)">D<tspan class="cls-16" x="3.9" y="0">ev</tspan><tspan x="10.1" y="0">elopment Boa</tspan><tspan class="cls-17" x="47.46" y="0">r</tspan><tspan x="49.59" y="0">d/</tspan><tspan x="6.88" y="7.2">Mic</tspan><tspan class="cls-18" x="16.86" y="7.2">r</tspan><tspan x="18.94" y="7.2">ocont</tspan><tspan class="cls-18" x="34.24" y="7.2">r</tspan><tspan x="36.33" y="7.2">oller</tspan></text><line class="cls-11" x1="130.66" y1="155.33" x2="158.6" y2="155.33"/><line class="cls-12" x1="159.72" y1="155.29" x2="157.86" y2="153.56"/><line class="cls-12" x1="159.67" y1="155.33" x2="157.85" y2="157.1"/><line class="cls-11" x1="241.03" y1="155.33" x2="268.97" y2="155.33"/><line class="cls-12" x1="270.09" y1="155.29" x2="268.23" y2="153.56"/><line class="cls-12" x1="270.04" y1="155.33" x2="268.22" y2="157.1"/><line class="cls-11" x1="351.25" y1="155.33" x2="412.7" y2="155.33"/><line class="cls-12" x1="413.06" y1="155.29" x2="411.21" y2="153.56"/><line class="cls-12" x1="413.02" y1="155.33" x2="411.2" y2="157.1"/><line class="cls-12" x1="351.25" y1="155.29" x2="353.11" y2="153.56"/><line class="cls-12" x1="351.3" y1="155.33" x2="353.12" y2="157.1"/><line class="cls-11" x1="96.7" y1="97.88" x2="96.7" y2="67.94"/><line class="cls-12" x1="96.67" y1="66.82" x2="94.93" y2="68.67"/><line class="cls-12" x1="96.71" y1="66.87" x2="98.48" y2="68.69"/><line class="cls-11" x1="92.7" y1="83.35" x2="120.64" y2="83.35"/><line class="cls-12" x1="121.75" y1="83.31" x2="119.9" y2="81.57"/><line class="cls-12" x1="121.7" y1="83.35" x2="119.89" y2="85.12"/><path class="cls-19" d="M96.7,83.37s1.56,2.07,2.23,2.07,1.44-3.78,2.44-4.11A5.38,5.38,0,0,0,104,79.88c1-1,2.14,2.19,2.63,3.49s1.37,2.29,2.26,2.07,2.22-2.29,3.33-3,2.22,4.15,3.44,5.28,2.67-2.78,3.12-4.37"/><line class="cls-11" x1="207.56" y1="97.88" x2="207.56" y2="67.94"/><line class="cls-12" x1="207.52" y1="66.82" x2="205.79" y2="68.67"/><line class="cls-12" x1="207.56" y1="66.87" x2="209.33" y2="68.69"/><line class="cls-11" x1="203.55" y1="83.35" x2="231.49" y2="83.35"/><line class="cls-12" x1="232.61" y1="83.31" x2="230.75" y2="81.57"/><line class="cls-12" x1="232.56" y1="83.35" x2="230.74" y2="85.12"/><path class="cls-19" d="M207.56,83.36s1.56,6.12,2.22,6.12,1.45-11.16,2.45-12.15,1.66-1.31,2.66-4.26,2.15,6.47,2.63,10.29,1.37,6.78,2.26,6.12,2.22-6.76,3.34-8.8,2.22,12.25,3.44,15.62,2.67-8.22,3.11-12.94"/><line class="cls-11" x1="318.78" y1="97.88" x2="318.78" y2="67.94"/><line class="cls-12" x1="318.74" y1="66.82" x2="317" y2="68.67"/><line class="cls-12" x1="318.78" y1="66.87" x2="320.55" y2="68.69"/><line class="cls-11" x1="314.77" y1="83.35" x2="342.71" y2="83.35"/><line class="cls-12" x1="343.82" y1="83.31" x2="341.97" y2="81.57"/><line class="cls-12" x1="343.78" y1="83.35" x2="341.96" y2="85.12"/><polyline class="cls-19" points="318.78 75.39 333.74 75.39 339.52 83.35"/><line class="cls-20" x1="333.74" y1="75.39" x2="333.74" y2="83.35"/><line class="cls-11" x1="428.82" y1="97.88" x2="428.82" y2="67.94"/><line class="cls-12" x1="428.78" y1="66.82" x2="427.04" y2="68.67"/><line class="cls-12" x1="428.82" y1="66.87" x2="430.59" y2="68.69"/><line class="cls-11" x1="424.81" y1="83.35" x2="452.75" y2="83.35"/><line class="cls-12" x1="453.86" y1="83.31" x2="452.01" y2="81.57"/><line class="cls-12" x1="453.82" y1="83.35" x2="452" y2="85.12"/><path class="cls-20" d="M428.82,83.36s1.55,6.12,2.22,6.12,1.44-11.16,2.44-12.15,1.67-1.31,2.67-4.26,2.14,6.47,2.63,10.29,1.37,6.78,2.26,6.12,2.22-6.76,3.33-8.8,2.22,12.25,3.45,15.62,2.66-8.22,3.11-12.94"/><circle class="cls-21" cx="431.23" cy="89.32" r="1.71"/><circle class="cls-21" cx="436.79" cy="72.5" r="1.71"/><circle class="cls-21" cx="433.37" cy="77.5" r="1.71"/><circle class="cls-21" cx="440.87" cy="89.61" r="1.71"/><circle class="cls-21" cx="444.93" cy="80.5" r="1.71"/><circle class="cls-21" cx="448.35" cy="96.17" r="1.71"/><line class="cls-11" x1="445.47" y1="36.31" x2="473.41" y2="36.31"/><line class="cls-11" x1="473.41" y1="36.31" x2="473.41" y2="120.39"/><line class="cls-11" x1="23.26" y1="120.39" x2="473.41" y2="120.39"/><line class="cls-11" x1="23.26" y1="120.39" x2="23.26" y2="155.33"/><line class="cls-11" x1="23.26" y1="155.33" x2="43.75" y2="155.33"/><line class="cls-12" x1="44.86" y1="155.29" x2="43.01" y2="153.56"/><line class="cls-12" x1="44.81" y1="155.33" x2="43" y2="157.1"/><line class="cls-11" x1="112.24" y1="220.85" x2="112.24" y2="190.91"/><line class="cls-12" x1="112.2" y1="189.8" x2="110.47" y2="191.65"/><line class="cls-12" x1="112.24" y1="189.84" x2="114.02" y2="191.66"/><line class="cls-11" x1="108.23" y1="206.33" x2="136.17" y2="206.33"/><line class="cls-12" x1="137.29" y1="206.29" x2="135.44" y2="204.55"/><line class="cls-12" x1="137.24" y1="206.33" x2="135.42" y2="208.1"/><text class="cls-22" transform="translate(122.8 204.46) rotate(-90)">1001<tspan x="0" y="8.16">1011</tspan></text><line class="cls-11" x1="336" y1="220.38" x2="336" y2="190.44"/><line class="cls-12" x1="335.96" y1="189.32" x2="334.22" y2="191.18"/><line class="cls-12" x1="336" y1="189.37" x2="337.77" y2="191.19"/><line class="cls-11" x1="331.99" y1="205.85" x2="359.93" y2="205.85"/><line class="cls-12" x1="361.04" y1="205.81" x2="359.19" y2="204.08"/><line class="cls-12" x1="361" y1="205.85" x2="359.18" y2="207.63"/><polyline class="cls-23" points="336 196.47 341.84 196.47 341.84 205.85"/><polyline class="cls-23" points="344.73 205.85 344.73 196.47 347.5 196.47 347.5 205.85"/><polyline class="cls-23" points="355.09 205.85 355.09 196.47 357.62 196.47 357.62 205.85"/><text class="cls-24" transform="translate(81.96 73.42)">s(t)</text><text class="cls-24" transform="translate(92.7 197.16)">sq(t)</text><text class="cls-24" transform="translate(188.15 73.42)">k s(t)</text><text class="cls-24" transform="translate(121.87 93.47)">t</text><text class="cls-24" transform="translate(234.32 93.47)">t</text><text class="cls-24" transform="translate(456.44 93.47)">t</text><text class="cls-24" transform="translate(363.09 214.94)">t</text><text class="cls-24" transform="translate(139.86 214.94)">t</text><circle class="cls-21" cx="192" cy="71.66" r="0.41"/><text class="cls-24" transform="translate(298.26 73.42)">k s‘(<tspan class="cls-25" x="11.29" y="0">f</tspan><tspan x="13.5" y="0">)</tspan></text><text class="cls-24" transform="translate(397.19 73.42)">k s‘(t-n<tspan class="cls-26" x="19.01" y="0" xml:space="preserve"> T</tspan><tspan x="23.86" y="0" xml:space="preserve"> )</tspan></text><text class="cls-24" transform="translate(346.43 93.47)">f</text><circle class="cls-21" cx="302.18" cy="71.66" r="0.41"/><text class="cls-27" transform="translate(337.96 92.33)">M</text><text class="cls-28" transform="translate(335.81 90.78)">f</text><text class="cls-27" transform="translate(333.4 73.7)">g</text><text class="cls-27" transform="translate(420.04 73.7)">A</text><text class="cls-28" transform="translate(331.25 73.15)">f</text><text class="cls-28" transform="translate(352.04 141.47)">Serielle Schnittstelle<tspan class="cls-29"><tspan x="8.97" y="6">z.B. I2C oder SPI</tspan></tspan></text><circle class="cls-21" cx="417.46" cy="71.86" r="0.41"/><circle class="cls-21" cx="401" cy="71.86" r="0.41"/></g></g></svg>