<svg id="Ebene_1" data-name="Ebene 1" xmlns="http://www.w3.org/2000/svg" viewBox="0 0 84.68 39.25"><defs><style>.cls-1{fill:#e6f0d9;}.cls-2{fill:#fff8d7;}.cls-2,.cls-3{stroke:#000;}.cls-2,.cls-3,.cls-4{stroke-linecap:round;stroke-linejoin:round;}.cls-3{fill:#4caf50;}.cls-4{fill:none;stroke:#efba25;}</style></defs><rect class="cls-1" width="84.68" height="39.25" rx="10.07"/><rect class="cls-2" x="16.04" y="12.45" width="52.59" height="14.34"/><ellipse class="cls-2" cx="16.04" cy="19.63" rx="1.85" ry="7.17"/><ellipse class="cls-2" cx="68.63" cy="19.63" rx="1.85" ry="7.17"/><ellipse class="cls-3" cx="43.15" cy="19.63" rx="1.85" ry="7.17"/><line class="cls-4" x1="21.94" y1="16.91" x2="23.85" y2="18.57"/><polyline class="cls-4" points="23.73 15.03 21.98 16.87 24.67 16.23 26.26 17.12 28.63 15.96 30.8 17.23 32.97 15.95 34.53 17.11 36.75 16.13"/><line class="cls-4" x1="21.94" y1="22.86" x2="23.85" y2="24.52"/><polyline class="cls-4" points="23.73 20.98 21.98 22.82 24.67 22.18 26.26 23.07 28.63 21.9 30.8 23.18 32.97 21.89 34.53 23.06 36.75 22.08"/><line class="cls-4" x1="47.6" y1="16.91" x2="49.52" y2="18.57"/><polyline class="cls-4" points="49.4 15.03 47.65 16.87 50.34 16.23 51.93 17.12 54.3 15.96 56.47 17.23 58.63 15.95 60.2 17.11 62.41 16.13"/><line class="cls-4" x1="47.6" y1="22.86" x2="49.52" y2="24.52"/><polyline class="cls-4" points="49.4 20.98 47.65 22.82 50.34 22.18 51.93 23.07 54.3 21.9 56.47 23.18 58.63 21.89 60.2 23.06 62.41 22.08"/></svg>