<svg id="Ebene_1" data-name="Ebene 1" xmlns="http://www.w3.org/2000/svg" xmlns:xlink="http://www.w3.org/1999/xlink" viewBox="0 0 123.95 80.18"><defs><style>.cls-1{fill:#e6f0d9;}.cls-2{fill:url(#Unbenannter_Verlauf_14);}.cls-3{fill:#4caf50;}.cls-3,.cls-4,.cls-5{stroke:#000;stroke-linecap:round;stroke-linejoin:round;}.cls-4{fill:#c4dca4;}.cls-5{fill:#67bf6a;}</style><linearGradient id="Unbenannter_Verlauf_14" x1="15.88" y1="19.01" x2="83.95" y2="58.31" gradientUnits="userSpaceOnUse"><stop offset="0" stop-color="#84cff4"/><stop offset="0.52" stop-color="#2196f3"/><stop offset="1" stop-color="#84cff4"/></linearGradient></defs><rect class="cls-1" width="123.95" height="80.18" rx="10.07"/><path class="cls-2" d="M35.63,7.63a14.39,14.39,0,0,1,2.45.21C48.71,9.72,53.87,23.49,49.61,38.61,45.68,52.57,35.07,62.8,25.1,62.8a13.45,13.45,0,0,1-2.45-.22C12,60.71,6.86,46.94,11.12,31.82c3.94-14,14.54-24.19,24.51-24.19m-7,50.43c8.76,0,17.81-8.18,21-19.45C53.08,26.31,48.23,15,38.8,13.34a13.56,13.56,0,0,0-2.37-.21c-8.76,0-17.82,8.18-21,19.45C12,44.87,16.81,56.19,26.25,57.85a13.39,13.39,0,0,0,2.37.21m46.1-43.54a14.3,14.3,0,0,1,2.45.21C87.8,16.61,93,30.38,88.7,45.5c-3.93,14-14.53,24.19-24.51,24.19a13.45,13.45,0,0,1-2.45-.22C51.12,67.6,46,53.83,50.21,38.71,46.75,51,51.59,62.32,61,64a13.47,13.47,0,0,0,2.37.21c8.76,0,17.82-8.18,21-19.45C87.86,32.44,83,21.13,73.58,19.47a13.56,13.56,0,0,0-2.37-.21c-8.76,0-17.82,8.18-21,19.45,3.94-14,14.54-24.19,24.51-24.19M38,18.33a11.83,11.83,0,0,1,2.14.19c8,1.4,12.22,10.39,9.49,20.09-2.49,8.82-9.91,15.18-17.24,15.18a12.88,12.88,0,0,1-2.14-.18c-8-1.41-12.22-10.4-9.49-20.09C23.23,24.69,30.65,18.33,38,18.33m29.47,5.19a11.83,11.83,0,0,1,2.14.19c8,1.4,12.22,10.4,9.49,20.09C76.59,52.63,69.17,59,61.84,59a11.91,11.91,0,0,1-2.14-.19c-8-1.4-12.22-10.4-9.49-20.09,2.49-8.83,9.91-15.19,17.24-15.19M35.63,6.63c-10.52,0-21.47,10.71-25.47,24.92C7.54,40.84,8.33,50.13,12.27,56.4a15,15,0,0,0,10.21,7.17,15.19,15.19,0,0,0,2.62.23c8.67,0,17.64-7.28,22.76-17.8-.56,6.58.64,12.73,3.5,17.29a15,15,0,0,0,10.21,7.17,15.28,15.28,0,0,0,2.62.23c10.52,0,21.47-10.72,25.48-24.92,2.61-9.29,1.83-18.58-2.11-24.85a15.06,15.06,0,0,0-10.21-7.17,15.31,15.31,0,0,0-2.63-.23c-8.67,0-17.63,7.28-22.76,17.8.56-6.59-.63-12.74-3.5-17.29a15,15,0,0,0-10.2-7.17,15.31,15.31,0,0,0-2.63-.23Zm-7,50.43a13.42,13.42,0,0,1-2.2-.19,12.21,12.21,0,0,1-8.32-5.8c-3-4.71-3.59-11.52-1.71-18.22,3-10.67,11.62-18.72,20-18.72a12.13,12.13,0,0,1,10.51,6A14.69,14.69,0,0,1,48,22.2a12.56,12.56,0,0,0-7.74-4.67,13.8,13.8,0,0,0-2.32-.2c-7.82,0-15.64,6.84-18.2,15.92-1.58,5.61-1,11.24,1.66,15.43a12.72,12.72,0,0,0,10.93,6.11,15.16,15.16,0,0,0,6.34-1.45,17,17,0,0,1-10.09,3.72ZM61.12,24a17,17,0,0,1,10.09-3.72,12.15,12.15,0,0,1,10.52,6c3,4.7,3.59,11.51,1.7,18.21-3,10.68-11.62,18.73-20,18.73A13.42,13.42,0,0,1,61.2,63a12.21,12.21,0,0,1-8.32-5.8,16.46,16.46,0,0,1-1.1-2.08,12.68,12.68,0,0,0,7.75,4.67,13.59,13.59,0,0,0,2.31.2c7.82,0,15.65-6.85,18.2-15.92,1.59-5.61,1-11.24-1.65-15.44a12.76,12.76,0,0,0-8.62-5.91,13.8,13.8,0,0,0-2.32-.2h0A15.16,15.16,0,0,0,61.12,24Z"/><polygon class="cls-3" points="89.44 55.55 82.77 55.55 62.98 47.93 69.12 47.39 89.44 55.55"/><rect class="cls-4" x="82.77" y="55.55" width="6.67" height="6.43"/><polygon class="cls-5" points="62.98 47.93 62.98 52.18 82.77 60.94 82.77 55.55 62.98 47.93"/><polygon class="cls-3" points="115.31 61.53 90.09 61.53 70.3 53.92 95.52 53.92 115.31 61.53"/><rect class="cls-4" x="90.09" y="61.53" width="25.23" height="8.5"/><polygon class="cls-5" points="70.3 53.92 70.3 62.43 90.09 70.04 90.09 61.53 70.3 53.92"/></svg>