<svg id="Ebene_1" data-name="Ebene 1" xmlns="http://www.w3.org/2000/svg" viewBox="0 0 114.84 67.21"><defs><style>.cls-1{fill:#e6f0d9;}.cls-2{fill:#c4dca4;}.cls-2,.cls-3,.cls-4,.cls-5{stroke:#000;}.cls-2,.cls-3,.cls-4,.cls-5,.cls-6{stroke-linecap:round;stroke-linejoin:round;}.cls-3{fill:#4caf50;}.cls-4{fill:#67bf6a;}.cls-5,.cls-6{fill:none;}.cls-6{stroke:#1d1d1b;stroke-dasharray:2;}</style></defs><rect class="cls-1" width="114.84" height="67.21" rx="10.07"/><polygon class="cls-2" points="14.14 17.31 14.14 40.67 9.8 49.89 9.8 25.53 14.14 17.31"/><polygon class="cls-2" points="17.47 17.31 17.47 40.67 13.14 49.89 13.14 25.53 17.47 17.31"/><polygon class="cls-3" points="35.6 43.31 35.6 26.87 38.49 21.2 38.49 36.65 35.6 43.31"/><polygon class="cls-4" points="38.49 21.2 17.66 21.2 14.78 26.87 35.6 26.87 38.49 21.2"/><rect class="cls-2" x="14.78" y="26.87" width="20.83" height="16.44"/><polygon class="cls-4" points="17.47 17.31 14.14 17.31 9.8 25.53 13.14 25.53 17.47 17.31"/><rect class="cls-2" x="9.8" y="25.53" width="3.33" height="24.36"/><line class="cls-5" x1="16.26" y1="32.16" x2="15.09" y2="32.16"/><line class="cls-5" x1="16.26" y1="35.16" x2="15.09" y2="35.16"/><line class="cls-5" x1="16.26" y1="38.16" x2="15.09" y2="38.16"/><polygon class="cls-2" points="100.7 17.31 100.7 40.67 105.03 49.89 105.03 25.53 100.7 17.31"/><polygon class="cls-2" points="97.37 17.31 97.37 40.67 101.7 49.89 101.7 25.53 97.37 17.31"/><polygon class="cls-3" points="79.23 43.31 79.23 26.87 76.34 21.2 76.34 36.65 79.23 43.31"/><polygon class="cls-4" points="76.34 21.2 97.17 21.2 100.06 26.87 79.23 26.87 76.34 21.2"/><rect class="cls-2" x="79.23" y="26.87" width="20.83" height="16.44"/><polygon class="cls-4" points="97.37 17.31 100.7 17.31 105.03 25.53 101.7 25.53 97.37 17.31"/><rect class="cls-2" x="101.7" y="25.53" width="3.33" height="24.36"/><line class="cls-5" x1="98.58" y1="32.16" x2="99.75" y2="32.16"/><line class="cls-5" x1="98.58" y1="35.16" x2="99.75" y2="35.16"/><line class="cls-5" x1="98.58" y1="38.16" x2="99.75" y2="38.16"/><ellipse class="cls-4" cx="37.28" cy="32.16" rx="0.84" ry="2.48"/><ellipse class="cls-4" cx="77.79" cy="32.16" rx="0.84" ry="2.48"/><line class="cls-6" x1="38.12" y1="32.03" x2="74.46" y2="31.67"/><line class="cls-6" x1="74.67" y1="31.67" x2="73.19" y2="30.06"/><line class="cls-6" x1="74.63" y1="31.72" x2="73.36" y2="33.6"/></svg>