<svg id="Ebene_1" data-name="Ebene 1" xmlns="http://www.w3.org/2000/svg" viewBox="0 0 84.68 39.25"><defs><style>.cls-1{fill:#e6f0d9;}.cls-2{fill:#1d1d1b;stroke:#2196f3;}.cls-2,.cls-3,.cls-4{stroke-linecap:round;stroke-linejoin:round;}.cls-3{fill:#84cff4;}.cls-3,.cls-4{stroke:#000;}.cls-4{fill:#4caf50;}</style></defs><rect class="cls-1" width="84.68" height="39.25" rx="10.07"/><line class="cls-2" x1="48.88" y1="16.8" x2="63.55" y2="16.8"/><line class="cls-2" x1="22.59" y1="16.8" x2="37.25" y2="16.8"/><rect class="cls-3" x="16.04" y="12.45" width="52.59" height="14.34"/><ellipse class="cls-3" cx="16.04" cy="19.63" rx="1.85" ry="7.17"/><ellipse class="cls-3" cx="68.63" cy="19.63" rx="1.85" ry="7.17"/><ellipse class="cls-4" cx="43.15" cy="19.63" rx="1.85" ry="7.17"/><line class="cls-2" x1="48.23" y1="16.91" x2="50.15" y2="18.57"/><line class="cls-2" x1="48.28" y1="16.87" x2="50.02" y2="15.03"/><line class="cls-2" x1="48.88" y1="22.45" x2="63.55" y2="22.45"/><line class="cls-2" x1="48.23" y1="22.57" x2="50.15" y2="24.23"/><line class="cls-2" x1="48.28" y1="22.52" x2="50.02" y2="20.68"/><line class="cls-2" x1="21.94" y1="16.91" x2="23.85" y2="18.57"/><line class="cls-2" x1="21.98" y1="16.87" x2="23.73" y2="15.03"/><line class="cls-2" x1="22.59" y1="22.45" x2="37.25" y2="22.45"/><line class="cls-2" x1="48.88" y1="16.8" x2="63.55" y2="16.8"/><line class="cls-2" x1="22.59" y1="16.8" x2="37.25" y2="16.8"/><line class="cls-2" x1="21.94" y1="22.57" x2="23.85" y2="24.23"/><line class="cls-2" x1="21.98" y1="22.52" x2="23.73" y2="20.68"/></svg>