<svg id="Ebene_1" data-name="Ebene 1" xmlns="http://www.w3.org/2000/svg" xmlns:xlink="http://www.w3.org/1999/xlink" viewBox="0 0 80.18 80.18"><defs><style>.cls-1{fill:#e6f0d9;}.cls-2{fill:#4caf50;}.cls-2,.cls-3,.cls-4{stroke:#000;}.cls-2,.cls-3,.cls-4,.cls-7{stroke-linecap:round;stroke-linejoin:round;}.cls-3{fill:url(#Unbenannter_Verlauf_79);}.cls-4{fill:#c4dca4;}.cls-5{fill:#2196f3;}.cls-6{fill:#1d1d1b;}.cls-7{fill:none;stroke:#1d1d1b;stroke-dasharray:2;}</style><linearGradient id="Unbenannter_Verlauf_79" x1="36.63" y1="40.51" x2="36.63" y2="54.95" gradientUnits="userSpaceOnUse"><stop offset="0" stop-color="#c4dca4"/><stop offset="1" stop-color="#4caf50"/></linearGradient></defs><rect class="cls-1" width="80.18" height="80.18" rx="10.07"/><polygon class="cls-2" points="56.16 57.55 27.01 59.46 17.04 52.4 45.5 50.59 56.16 57.55"/><polygon class="cls-2" points="56.16 54.43 27.01 56.34 17.04 49.28 45.5 47.47 56.16 54.43"/><path class="cls-3" d="M21.68,51.4c0,2,6.71,3.62,15,3.62s15-1.62,15-3.62v0c0-7.18-6.72-13-15-13s-15,5.82-15,13"/><polygon class="cls-2" points="27.01 56.34 27.01 59.46 17.04 52.4 17.04 49.28 27.01 56.34"/><polygon class="cls-4" points="56.16 57.55 56.16 54.43 27.01 56.34 27.01 59.46 56.16 57.55"/><circle class="cls-5" cx="64.92" cy="29.54" r="2.5"/><path class="cls-6" d="M64.92,27.54a2,2,0,1,1-2,2,2,2,0,0,1,2-2m0-1a3,3,0,1,0,3,3,3,3,0,0,0-3-3Z"/><path class="cls-5" d="M65.42,48V42h-1v6h-3V34.61a7.55,7.55,0,0,1-5-7.07V27h3v.5A4.51,4.51,0,0,0,63.91,32h2.54a3.52,3.52,0,0,1,2.67,1.22L74,38.13l-2.11,2.12L68.42,36.8V48Z"/><path class="cls-6" d="M58.92,27.54a5,5,0,0,0,5,5h2.54a3.1,3.1,0,0,1,2.36,1.11l4.47,4.48-1.41,1.41-4-3.95V47.54h-2v-6h-2v6h-2V34.25a7,7,0,0,1-5-6.71h2m1-1h-4v1a8.05,8.05,0,0,0,5,7.41V48.54h4v0h4V38l2.24,2.25.71.7.7-.7L74,38.84l.71-.71L74,37.42l-4.47-4.48,0,0a4,4,0,0,0-3-1.36H63.91a4,4,0,0,1-4-4v-1Z"/><line class="cls-7" x1="50" y1="38.38" x2="64.67" y2="22.42"/><line class="cls-7" x1="36.42" y1="34.41" x2="36.42" y2="12.73"/><line class="cls-7" x1="23.26" y1="37.36" x2="6.91" y2="23.12"/><line class="cls-7" x1="23.26" y1="37.36" x2="23.05" y2="34.83"/><line class="cls-7" x1="23.19" y1="37.36" x2="20.66" y2="37.45"/><line class="cls-7" x1="36.4" y1="34.46" x2="38.19" y2="32.67"/><line class="cls-7" x1="36.36" y1="34.42" x2="34.65" y2="32.54"/><line class="cls-7" x1="49.88" y1="38.43" x2="52.42" y2="38.38"/><line class="cls-7" x1="49.89" y1="38.36" x2="49.96" y2="35.83"/></svg>