<svg id="Ebene_1" data-name="Ebene 1" xmlns="http://www.w3.org/2000/svg" viewBox="0 0 58.89 58.89"><defs><style>.cls-1{fill:#e6f0d9;}.cls-2{fill:#c4dca4;}.cls-2,.cls-3,.cls-4,.cls-5,.cls-7{stroke:#000;}.cls-2,.cls-3,.cls-4,.cls-5{stroke-linecap:round;stroke-linejoin:round;}.cls-3{fill:#4caf50;}.cls-4{fill:#67bf6a;}.cls-5{fill:none;}.cls-6{fill:#2196f3;}.cls-7{stroke-miterlimit:10;}</style></defs><rect class="cls-1" width="58.89" height="58.89" rx="10.07"/><polygon class="cls-2" points="10.95 36.36 35.31 36.36 44.53 40.7 20.17 40.7 10.95 36.36"/><polygon class="cls-3" points="37.95 34.55 21.51 34.55 14.84 31.66 31.28 31.66 37.95 34.55"/><polygon class="cls-4" points="14.84 31.66 14.84 36.17 21.51 39.05 21.51 34.55 14.84 31.66"/><rect class="cls-2" x="21.51" y="34.55" width="16.44" height="4.5"/><line class="cls-5" x1="26.8" y1="37.57" x2="26.8" y2="38.74"/><line class="cls-5" x1="29.8" y1="37.57" x2="29.8" y2="38.74"/><line class="cls-5" x1="32.8" y1="37.57" x2="32.8" y2="38.74"/><path class="cls-6" d="M47.94,19.65l-3.43-3.46L42.2,18.47l-5.73,0,9.13,9.24,0-5.74Zm-9.51,6a3.68,3.68,0,0,0,3.75.9l-4.6-4.65A3.65,3.65,0,0,0,38.43,25.63Zm6.45,3.63-1.17-1.19a5.68,5.68,0,0,1-7.66-7.74l-1.18-1.19a7.3,7.3,0,0,0,10,10.12Z"/><ellipse class="cls-7" cx="26.25" cy="32.53" rx="0.56" ry="2.96" transform="translate(-7.33 57.43) rotate(-87.66)"/></svg>