<svg id="Ebene_1" data-name="Ebene 1" xmlns="http://www.w3.org/2000/svg" viewBox="0 0 58.89 58.89"><defs><style>.cls-1{fill:#e6f0d9;}.cls-2{fill:#c4dca4;}.cls-2,.cls-3,.cls-4,.cls-6{stroke:#000;stroke-linecap:round;stroke-linejoin:round;}.cls-3{fill:#4caf50;}.cls-4{fill:#67bf6a;}.cls-5{fill:#2196f3;}.cls-6{fill:none;}</style></defs><rect class="cls-1" width="58.89" height="58.89" rx="10.07"/><polygon class="cls-2" points="12.65 37.06 37.01 37.06 46.23 41.4 21.87 41.4 12.65 37.06"/><polygon class="cls-3" points="39.65 35.26 23.21 35.26 16.54 32.37 32.98 32.37 39.65 35.26"/><polygon class="cls-4" points="16.54 32.37 16.54 36.87 23.21 39.76 23.21 35.26 16.54 32.37"/><rect class="cls-2" x="23.21" y="35.26" width="16.44" height="4.5"/><path class="cls-5" d="M43.67,24.34a3,3,0,0,0-1.52.41,2.09,2.09,0,0,1-1,.3,2,2,0,0,1-1.06-.3,2.93,2.93,0,0,0-1.51-.41,3,3,0,0,0-1.52.41,2.06,2.06,0,0,1-1,.3v1a3.17,3.17,0,0,0,1.52-.41,2.06,2.06,0,0,1,1.05-.31,2,2,0,0,1,1,.31,3.1,3.1,0,0,0,1.52.41,3,3,0,0,0,1.51-.41,2.13,2.13,0,0,1,1.06-.31,1.94,1.94,0,0,1,1,.31,3.06,3.06,0,0,0,1.51.41v-1a2,2,0,0,1-1-.3A3,3,0,0,0,43.67,24.34Zm0-2.29a3.13,3.13,0,0,0-1.52.41,2.2,2.2,0,0,1-1,.31A2,2,0,0,1,40,22.46a2.93,2.93,0,0,0-1.51-.41,3.1,3.1,0,0,0-1.52.41,2.16,2.16,0,0,1-1,.31v1a3.17,3.17,0,0,0,1.52-.41,1.93,1.93,0,0,1,2.1,0,3.1,3.1,0,0,0,1.52.41,3,3,0,0,0,1.51-.41,2,2,0,0,1,1.06-.31,1.94,1.94,0,0,1,1,.31,3.06,3.06,0,0,0,1.51.41v-1a2,2,0,0,1-1-.31A3,3,0,0,0,43.67,22.05Zm1.51-4.15a3,3,0,0,0-1.51-.41,3,3,0,0,0-1.52.41,2.2,2.2,0,0,1-1,.31A2,2,0,0,1,40,17.9a3,3,0,0,0-3,0,2.06,2.06,0,0,1-1,.31v1a3.17,3.17,0,0,0,1.52-.41,2.06,2.06,0,0,1,1.05-.31,2,2,0,0,1,1,.31,3.1,3.1,0,0,0,1.52.41,3,3,0,0,0,1.51-.41,2.13,2.13,0,0,1,1.06-.31,1.94,1.94,0,0,1,1,.31,3.06,3.06,0,0,0,1.51.41v-1A2.06,2.06,0,0,1,45.18,17.9Zm-1.51,1.86a3.13,3.13,0,0,0-1.52.41,1.94,1.94,0,0,1-1,.31A2,2,0,0,1,40,20.17a3,3,0,0,0-1.51-.41,3.1,3.1,0,0,0-1.52.41,1.94,1.94,0,0,1-1,.31v1a3.17,3.17,0,0,0,1.52-.41,2.16,2.16,0,0,1,1.05-.31,2,2,0,0,1,1,.31,3,3,0,0,0,3,0,2.24,2.24,0,0,1,1.06-.31,1.94,1.94,0,0,1,1,.31,3,3,0,0,0,1.51.41v-1a2,2,0,0,1-1-.31A3.09,3.09,0,0,0,43.67,19.76Z"/><line class="cls-6" x1="28.5" y1="38.28" x2="28.5" y2="39.44"/><line class="cls-6" x1="31.5" y1="38.28" x2="31.5" y2="39.44"/><line class="cls-6" x1="34.5" y1="38.28" x2="34.5" y2="39.44"/></svg>