<svg id="Ebene_1" data-name="Ebene 1" xmlns="http://www.w3.org/2000/svg" viewBox="0 0 114.84 67.21"><defs><style>.cls-1{fill:#e6f0d9;}.cls-2{fill:#c4dca4;}.cls-2,.cls-3,.cls-4,.cls-5{stroke:#000;}.cls-2,.cls-3,.cls-4,.cls-5,.cls-6{stroke-linecap:round;stroke-linejoin:round;}.cls-3{fill:#4caf50;}.cls-4{fill:#67bf6a;}.cls-5,.cls-6{fill:none;}.cls-6{stroke:#1d1d1b;stroke-dasharray:2;}.cls-7{fill:#2196f3;}.cls-8{fill:#1d1d1b;}</style></defs><rect class="cls-1" width="114.84" height="67.21" rx="10.07"/><polygon class="cls-2" points="15.8 19.43 15.8 42.79 11.47 52.01 11.47 27.65 15.8 19.43"/><polygon class="cls-2" points="19.14 19.43 19.14 42.79 14.8 52.01 14.8 27.65 19.14 19.43"/><polygon class="cls-3" points="37.27 45.43 37.27 28.99 40.16 23.32 40.16 38.77 37.27 45.43"/><polygon class="cls-4" points="40.16 23.32 19.33 23.32 16.44 28.99 37.27 28.99 40.16 23.32"/><rect class="cls-2" x="16.44" y="28.99" width="20.83" height="16.44"/><polygon class="cls-4" points="19.14 19.43 15.8 19.43 11.47 27.65 14.8 27.65 19.14 19.43"/><rect class="cls-2" x="11.47" y="27.65" width="3.33" height="24.36"/><line class="cls-5" x1="17.92" y1="34.28" x2="16.76" y2="34.28"/><line class="cls-5" x1="17.92" y1="37.28" x2="16.76" y2="37.28"/><line class="cls-5" x1="17.92" y1="40.28" x2="16.76" y2="40.28"/><ellipse class="cls-4" cx="39.32" cy="29.84" rx="0.84" ry="2.48"/><ellipse class="cls-4" cx="39.32" cy="37.56" rx="0.84" ry="2.48"/><line class="cls-6" x1="39.62" y1="29.84" x2="87.9" y2="32.25"/><line class="cls-6" x1="39.78" y1="37.56" x2="88.11" y2="32.23"/><line class="cls-6" x1="88.17" y1="32.27" x2="86.31" y2="30.55"/><line class="cls-6" x1="88.12" y1="32.31" x2="86.32" y2="34.1"/><line class="cls-6" x1="39.62" y1="37.88" x2="41.91" y2="38.96"/><line class="cls-6" x1="39.65" y1="37.82" x2="40.84" y2="35.58"/><path class="cls-7" d="M100.74,37.85a1.09,1.09,0,0,1-1.1-1.09v-.1H93.46v.1a1.1,1.1,0,0,1-1.1,1.09h-.6a1.09,1.09,0,0,1-1.1-1.09V31.88l1.27-3.66a1.41,1.41,0,0,1,1.32-.95h6.59a1.41,1.41,0,0,1,1.33.95l1.27,3.66v4.88a1.1,1.1,0,0,1-1.1,1.09Zm-.9-4.79a.4.4,0,1,0,.4.4A.4.4,0,0,0,99.84,33.06Zm-6.59,0a.4.4,0,1,0,.4.4A.4.4,0,0,0,93.25,33.06Zm6.8-2.19-.57-1.7H93.61l-.56,1.7Z"/><path class="cls-8" d="M99.84,27.77a.9.9,0,0,1,.85.61L101.94,32v4.79a.59.59,0,0,1-.6.59h-.6a.59.59,0,0,1-.6-.59v-.6H93v.6a.59.59,0,0,1-.6.59h-.6a.59.59,0,0,1-.6-.59V32l1.24-3.59a.92.92,0,0,1,.85-.61h6.59m-7.48,3.6h8.38l-.9-2.7H93.25l-.89,2.7m7.48,3a.9.9,0,1,0-.9-.9.9.9,0,0,0,.9.9m-6.59,0a.9.9,0,1,0-.89-.9.9.9,0,0,0,.89.9m6.59-7.59H93.25A1.91,1.91,0,0,0,91.46,28l-1.25,3.6,0,.16v5a1.6,1.6,0,0,0,1.6,1.59h.6a1.58,1.58,0,0,0,1.54-1.19h5.29a1.6,1.6,0,0,0,1.55,1.19h.6a1.6,1.6,0,0,0,1.6-1.59v-5l-.06-.16-1.24-3.59a1.9,1.9,0,0,0-1.8-1.28ZM94,29.67h5.14l.23.7H93.74l.24-.7Z"/></svg>