<svg id="Ebene_1" data-name="Ebene 1" xmlns="http://www.w3.org/2000/svg" viewBox="0 0 123.93 80.18"><defs><style>.cls-1{fill:#e6f0d9;}.cls-2{fill:#4caf50;}.cls-2,.cls-3,.cls-4,.cls-5,.cls-6,.cls-7,.cls-8,.cls-9{stroke:#000;stroke-linecap:round;stroke-linejoin:round;}.cls-3{fill:#c4dca4;}.cls-4{fill:#67bf6a;}.cls-5{fill:red;}.cls-6{fill:#ff7878;}.cls-7{fill:#f73434;}.cls-8{fill:#2196f3;}.cls-9{fill:#84cff4;}</style></defs><rect class="cls-1" width="123.95" height="80.18" rx="10.07"/><polygon class="cls-2" points="56.69 32.02 29.43 32.02 10.32 24.66 37.58 24.66 56.69 32.02"/><polygon class="cls-2" points="56.69 28.34 29.43 28.34 10.32 20.99 37.58 20.99 56.69 28.34"/><rect class="cls-3" x="29.43" y="28.34" width="27.26" height="6.21"/><polygon class="cls-4" points="10.32 20.99 10.32 27.2 29.43 34.55 29.43 28.34 10.32 20.99"/><polygon class="cls-2" points="71.95 62.82 44.69 62.82 25.58 55.47 52.84 55.47 71.95 62.82"/><rect class="cls-3" x="44.69" y="62.82" width="27.26" height="6.21"/><polygon class="cls-4" points="25.58 55.47 25.58 61.68 44.69 69.04 44.69 62.82 25.58 55.47"/><polygon class="cls-2" points="42.53 24.77 30.4 24.77 21.89 21.5 34.02 21.5 42.53 24.77"/><polygon class="cls-5" points="46.99 22.95 31.14 22.95 20.03 18.67 35.88 18.67 46.99 22.95"/><rect class="cls-6" x="31.14" y="22.95" width="15.85" height="3.61"/><polygon class="cls-7" points="20.03 18.67 20.03 22.29 31.14 26.56 31.14 22.95 20.03 18.67"/><polygon class="cls-2" points="111.02 49.22 83.75 49.22 64.64 41.86 91.9 41.86 111.02 49.22"/><polygon class="cls-8" points="111.02 45.54 83.75 45.54 64.64 38.19 91.9 38.19 111.02 45.54"/><rect class="cls-3" x="83.76" y="45.54" width="27.26" height="6.21"/><polygon class="cls-4" points="64.64 38.19 64.64 44.4 83.75 51.75 83.75 45.54 64.64 38.19"/><path class="cls-9" d="M40.49,56.63l-.09,2c0,.75,3.69,1.52,8.31,1.73s8.39-.25,8.42-1l.09-2"/><ellipse class="cls-8" cx="48.85" cy="57" rx="1.36" ry="8.37" transform="translate(-10.23 103.32) rotate(-87.49)"/><path class="cls-9" d="M44.91,47.08l-.5,9.1c0,.42,2,.84,4.58,1s4.62-.14,4.64-.55l.5-9.11"/><ellipse class="cls-8" cx="49.52" cy="47.19" rx="0.75" ry="4.61" transform="translate(0.21 94.6) rotate(-87.49)"/><path class="cls-9" d="M97.28,15.42,88,37.06c-.42,1-.84,3.91-.08,4.24s2.42-2.08,2.83-3.07L100,16.59"/><ellipse class="cls-8" cx="98.67" cy="15.98" rx="0.24" ry="1.5" transform="translate(45.31 100.5) rotate(-66.93)"/></svg>