<svg id="Ebene_1" data-name="Ebene 1" xmlns="http://www.w3.org/2000/svg" xmlns:xlink="http://www.w3.org/1999/xlink" viewBox="0 0 80.18 80.18"><defs><style>.cls-1,.cls-9{fill:none;}.cls-2{fill:#e6f0d9;}.cls-3{clip-path:url(#clip-path);}.cls-4{fill:#2196f3;}.cls-5{fill:#1d1d1b;}.cls-6{fill:#0019ff;}.cls-6,.cls-7,.cls-8,.cls-9{stroke:#000;stroke-miterlimit:10;}.cls-7{fill:#fff;}.cls-8{fill:red;}</style><clipPath id="clip-path"><rect class="cls-1" width="80.18" height="80.18" rx="10.07"/></clipPath></defs><rect class="cls-2" width="80.18" height="80.18" rx="10.07"/><g class="cls-3"><circle class="cls-4" cx="65.85" cy="17.76" r="13.75"/><path class="cls-5" d="M65.85,4.51A13.25,13.25,0,1,1,52.6,17.76,13.25,13.25,0,0,1,65.85,4.51m0-1A14.25,14.25,0,1,0,80.1,17.76,14.26,14.26,0,0,0,65.85,3.51Z"/><path class="cls-4" d="M45.47,80.68V59.06L23.85,80.68h-8.1l-6-6L40,44.37c2.7-2.7,7.2-7.23,15.72-7.23h25v33A10.58,10.58,0,0,1,70.11,80.68Z"/><path class="cls-5" d="M74.11,37.64h6.07V70.11A10.07,10.07,0,0,1,70.11,80.18H46V57.85L23.64,80.18H16l-5.5-5.5L40.07,45c2.59-2.59,7-7.36,15.64-7.36h18.4m7.07-1H55.71C47,36.64,42.39,41.26,39.64,44l-.27.28L9.75,74l-.71.7.71.71,5.5,5.5.29.29h8.51l.3-.29L45,60.27V81.18H70.11A11.07,11.07,0,0,0,81.18,70.11V36.64Z"/></g><path class="cls-6" d="M77.19,51.56c.23,1.15,0,4.72-1.17,4.95s-2.76-3-3-4.12a2.12,2.12,0,1,1,4.16-.83Z"/><circle class="cls-6" cx="75.15" cy="52.04" r="2.12"/><path class="cls-7" d="M69.9,57.91c0,1.17-1,4.63-2.13,4.63s-2.12-3.46-2.12-4.63a2.13,2.13,0,0,1,4.25,0Z"/><circle class="cls-7" cx="67.77" cy="57.91" r="2.12"/><path class="cls-8" d="M62,53.71c-.31,1.14-2.14,4.21-3.27,3.9s-1.13-3.89-.82-5A2.12,2.12,0,1,1,62,53.71Z"/><circle class="cls-8" cx="59.95" cy="53.19" r="2.12"/><path class="cls-9" d="M58.77,57.61s-.4,3.85-5.36,4.82S14.7,55.1,5.78,50.66"/><path class="cls-9" d="M67.77,62.54s-2.12,5.91-13.84,5.52c-7.16-.23-42.48-11.84-48.82-16.17"/><path class="cls-9" d="M76,56.51s.43,6.82-1.87,9.78-6.37,7.55-22.26,6.11S7,54.49,4.33,53.19"/><g class="cls-3"><rect class="cls-7" x="-2.67" y="46.58" width="8.22" height="7.26" transform="translate(21.95 4.36) rotate(25.74)"/></g></svg>