<svg id="Ebene_1" data-name="Ebene 1" xmlns="http://www.w3.org/2000/svg" viewBox="0 0 58.89 58.89"><defs><style>.cls-1{fill:#e6f0d9;}.cls-2{fill:#c4dca4;}.cls-2,.cls-3,.cls-4,.cls-6{stroke:#000;stroke-linecap:round;stroke-linejoin:round;}.cls-3{fill:#4caf50;}.cls-4{fill:#67bf6a;}.cls-5{fill:#f44336;}.cls-6{fill:none;}</style></defs><rect class="cls-1" width="58.89" height="58.89" rx="10.07"/><polygon class="cls-2" points="17.79 39.75 42.15 39.75 51.37 44.09 27.01 44.09 17.79 39.75"/><polygon class="cls-3" points="44.79 37.94 28.34 37.94 21.68 35.05 38.12 35.05 44.79 37.94"/><polygon class="cls-4" points="21.68 35.05 21.68 39.56 28.34 42.44 28.34 37.94 21.68 35.05"/><rect class="cls-2" x="28.34" y="37.94" width="16.44" height="4.5"/><path class="cls-5" d="M46.59,21.45v-4.8a1.8,1.8,0,0,0-3.6,0v4.8a3,3,0,1,0,3.6,0Zm-2.4-4.8a.6.6,0,0,1,1.2,0h-.6v.6h.6v1.2h-.6v.6h.6v1.2h-1.2Z"/><path class="cls-5" d="M32.62,22.29A3.17,3.17,0,0,0,33,23.81a2.16,2.16,0,0,1,.31,1.05A1.94,1.94,0,0,1,33,25.91a3,3,0,0,0-.41,1.52A3.1,3.1,0,0,0,33,29,2.16,2.16,0,0,1,33.34,30h1a3.09,3.09,0,0,0-.41-1.51,2,2,0,0,1-.31-1.06,1.94,1.94,0,0,1,.31-1.05,3,3,0,0,0,0-3,1.94,1.94,0,0,1-.31-1.05,2,2,0,0,1,.31-1.06,3.06,3.06,0,0,0,.41-1.51h-1A1.94,1.94,0,0,1,33,20.77,3,3,0,0,0,32.62,22.29Zm-4.16-1.52a3.1,3.1,0,0,0-.41,1.52,3.13,3.13,0,0,0,.41,1.52,2.06,2.06,0,0,1,.31,1.05,1.94,1.94,0,0,1-.31,1.05,3,3,0,0,0,0,3A2.06,2.06,0,0,1,28.77,30h1a3.09,3.09,0,0,0-.41-1.51A2.13,2.13,0,0,1,29,27.43a2,2,0,0,1,.31-1.05,3,3,0,0,0,.41-1.52,3.1,3.1,0,0,0-.41-1.52A2.16,2.16,0,0,1,29,22.29a2,2,0,0,1,.31-1.06,3,3,0,0,0,.41-1.51h-1A2,2,0,0,1,28.46,20.77Z"/><line class="cls-5" x1="29.27" y1="32.78" x2="27.87" y2="30.74"/><path class="cls-5" d="M29.27,33.28a.49.49,0,0,1-.41-.22l-1.4-2a.5.5,0,0,1,.82-.56l1.4,2a.5.5,0,0,1-.13.7A.47.47,0,0,1,29.27,33.28Z"/><line class="cls-5" x1="29.27" y1="32.79" x2="30.63" y2="30.73"/><path class="cls-5" d="M29.27,33.29a.57.57,0,0,1-.28-.08.51.51,0,0,1-.14-.7l1.37-2.06a.5.5,0,1,1,.83.55l-1.36,2.06A.51.51,0,0,1,29.27,33.29Z"/><path class="cls-5" d="M29.27,33.28a.5.5,0,0,1-.5-.5V30a.5.5,0,0,1,1,0v2.82A.5.5,0,0,1,29.27,33.28Z"/><line class="cls-5" x1="33.86" y1="32.78" x2="32.46" y2="30.74"/><path class="cls-5" d="M33.86,33.28a.52.52,0,0,1-.42-.22l-1.39-2a.49.49,0,0,1,.12-.69.5.5,0,0,1,.7.13l1.4,2a.51.51,0,0,1-.41.79Z"/><line class="cls-5" x1="33.86" y1="32.79" x2="35.22" y2="30.73"/><path class="cls-5" d="M33.86,33.29a.57.57,0,0,1-.28-.08.51.51,0,0,1-.14-.7l1.36-2.06a.51.51,0,0,1,.7-.14.5.5,0,0,1,.14.69l-1.37,2.06A.48.48,0,0,1,33.86,33.29Z"/><path class="cls-5" d="M33.86,33.28a.5.5,0,0,1-.5-.5V30a.5.5,0,0,1,.5-.5.51.51,0,0,1,.5.5v2.82A.51.51,0,0,1,33.86,33.28Z"/><path class="cls-5" d="M12,26.77a3.19,3.19,0,0,0,1.42.68,2.11,2.11,0,0,1,1,.44,2,2,0,0,1,.6.92,3.05,3.05,0,0,0,.89,1.3,3,3,0,0,0,1.42.67,2.24,2.24,0,0,1,1,.45l.66-.76a3.09,3.09,0,0,0-1.43-.67,2,2,0,0,1-1-.45,2,2,0,0,1-.6-.92,3.05,3.05,0,0,0-.89-1.3,3.1,3.1,0,0,0-1.42-.67,2,2,0,0,1-1-.45,2,2,0,0,1-.6-.92,3.05,3.05,0,0,0-.89-1.3l-.65.77a2,2,0,0,1,.6.92A3.13,3.13,0,0,0,12,26.77ZM8.13,29A3,3,0,0,0,9,30.25a3.1,3.1,0,0,0,1.42.67,2.12,2.12,0,0,1,1,.45,2,2,0,0,1,.6.92,3.11,3.11,0,0,0,.89,1.3,3,3,0,0,0,1.42.67,2.08,2.08,0,0,1,1,.45L16,34a3.11,3.11,0,0,0-1.42-.67,2.13,2.13,0,0,1-1-.45,2,2,0,0,1-.6-.92,3.05,3.05,0,0,0-.89-1.3,3.1,3.1,0,0,0-1.42-.67,2.13,2.13,0,0,1-1-.45,1.89,1.89,0,0,1-.6-.92,3.05,3.05,0,0,0-.89-1.3L7.52,28A2.09,2.09,0,0,1,8.13,29Z"/><line class="cls-5" x1="17.78" y1="36.13" x2="15.32" y2="35.87"/><path class="cls-5" d="M17.78,36.63h-.05l-2.46-.26a.5.5,0,0,1-.44-.55.5.5,0,0,1,.55-.45l2.45.26a.5.5,0,0,1,0,1Z"/><line class="cls-5" x1="17.79" y1="36.14" x2="17.11" y2="33.76"/><path class="cls-5" d="M17.79,36.64a.5.5,0,0,1-.48-.37l-.68-2.37a.5.5,0,1,1,1-.28L18.27,36a.51.51,0,0,1-.34.62Z"/><line class="cls-5" x1="17.78" y1="36.13" x2="15.64" y2="34.3"/><path class="cls-5" d="M17.78,36.63a.49.49,0,0,1-.32-.12l-2.14-1.83a.49.49,0,0,1-.06-.7.52.52,0,0,1,.71-.06l2.14,1.83a.5.5,0,0,1-.33.88Z"/><line class="cls-5" x1="20.76" y1="32.64" x2="18.3" y2="32.38"/><path class="cls-5" d="M20.76,33.14h-.05l-2.46-.26a.51.51,0,0,1-.45-.55.49.49,0,0,1,.55-.45l2.46.26a.5.5,0,0,1,0,1Z"/><line class="cls-5" x1="20.77" y1="32.65" x2="20.09" y2="30.27"/><path class="cls-5" d="M20.77,33.15a.5.5,0,0,1-.48-.36l-.68-2.38a.49.49,0,0,1,.34-.62.51.51,0,0,1,.62.34l.68,2.38a.51.51,0,0,1-.34.62Z"/><line class="cls-5" x1="20.76" y1="32.64" x2="18.62" y2="30.81"/><path class="cls-5" d="M20.76,33.14a.47.47,0,0,1-.32-.12L18.3,31.19a.49.49,0,0,1-.06-.7.52.52,0,0,1,.71-.06l2.13,1.83a.5.5,0,0,1-.32.88Z"/><line class="cls-6" x1="33.56" y1="40.98" x2="33.56" y2="42.14"/><line class="cls-6" x1="36.56" y1="40.98" x2="36.56" y2="42.14"/><line class="cls-6" x1="39.56" y1="40.98" x2="39.56" y2="42.14"/></svg>