<svg id="Ebene_1" data-name="Ebene 1" xmlns="http://www.w3.org/2000/svg" xmlns:xlink="http://www.w3.org/1999/xlink" viewBox="0 0 80.18 80.18"><defs><style>.cls-1,.cls-3,.cls-7{fill:none;}.cls-2{fill:#e6f0d9;}.cls-3{stroke:#2196f3;}.cls-3,.cls-4,.cls-5,.cls-6,.cls-7{stroke-linecap:round;stroke-linejoin:round;}.cls-4{fill:#4caf50;}.cls-4,.cls-5,.cls-6,.cls-7{stroke:#000;}.cls-5{fill:#67bf6a;}.cls-6{fill:#c4dca4;}.cls-8{fill:#2196f3;}.cls-9{clip-path:url(#clip-path);}</style><clipPath id="clip-path"><path class="cls-1" d="M42.89,39.11l8.72.17H35.17m-.2.46a.45.45,0,0,0,.2,0H51.61a.49.49,0,0,0,.49-.39.49.49,0,0,0-.29-.56l-6.67-2.89a.45.45,0,0,0-.2,0m4.26,2.88H35.27m-.1,5V39.28m-.2,5a.65.65,0,0,0,.2,0,.46.46,0,0,0,.27-.09.5.5,0,0,0,.23-.41V39.28a.5.5,0,0,0-.31-.45m-.69.78V43m.5-3.75v4.51H51.61V39.28Zm16.94,4.51V39.28a.5.5,0,0,0-.5-.5H35.17a.5.5,0,0,0-.5.5v4.51a.5.5,0,0,0,.5.5H51.61A.5.5,0,0,0,52.11,43.79Zm-16.44-4H51.11v3.51H35.67Zm5.22,3.73V42.34a.51.51,0,0,0-.5-.5.5.5,0,0,0-.5.5v1.17a.5.5,0,0,0,.5.5A.51.51,0,0,0,40.89,43.51Zm3,0V42.34a.51.51,0,0,0-.5-.5.5.5,0,0,0-.5.5v1.17a.5.5,0,0,0,.5.5A.51.51,0,0,0,43.89,43.51Zm3,0V42.34a.51.51,0,0,0-.5-.5.5.5,0,0,0-.5.5v1.17a.5.5,0,0,0,.5.5A.51.51,0,0,0,46.89,43.51Z"/></clipPath></defs><rect class="cls-2" width="80.18" height="80.18" rx="10.07"/><path class="cls-3" d="M32.13,35.43C32.72,22.14,35.79,12,39.5,12,43.63,12,47,24.59,47,40.09S43.63,68.17,39.5,68.17,32,55.6,32,40.09c0-1.59,0-3.15.1-4.66"/><ellipse class="cls-3" cx="40.09" cy="40.04" rx="28.04" ry="4.61"/><circle class="cls-3" cx="40.06" cy="40.09" r="28.07"/><polygon class="cls-4" points="51.61 39.28 35.17 39.28 28.5 36.4 44.94 36.4 51.61 39.28"/><polygon class="cls-5" points="28.5 36.4 28.5 40.9 35.17 43.79 35.17 39.28 28.5 36.4"/><rect class="cls-6" x="35.17" y="39.28" width="16.44" height="4.5"/><line class="cls-7" x1="40.39" y1="42.34" x2="40.39" y2="43.51"/><line class="cls-7" x1="43.39" y1="42.34" x2="43.39" y2="43.51"/><line class="cls-7" x1="46.39" y1="42.34" x2="46.39" y2="43.51"/><path class="cls-8" d="M23.26,35.85a148.63,148.63,0,0,1,16.83-.92c11.47,0,28.54,1.36,28.54,5.11s-17.07,5.11-28.54,5.11S11.56,43.79,11.56,40c0-2.06,5.15-3.4,11.7-4.19m.06,1C16.43,37.7,12.56,39,12.56,40c0,1.72,10.47,4.11,27.53,4.11S67.63,41.76,67.63,40s-10.48-4.11-27.54-4.11a138.73,138.73,0,0,0-16.77.91"/><polygon class="cls-4" points="51.61 39.28 35.17 39.28 28.5 36.4 44.94 36.4 51.61 39.28"/><g class="cls-9"><path class="cls-3" d="M39.5,12C43.63,12,47,24.59,47,40.09S43.63,68.17,39.5,68.17"/></g><line class="cls-3" x1="57.7" y1="60.27" x2="59.61" y2="60.24"/><line class="cls-3" x1="59.59" y1="61.94" x2="59.61" y2="60.24"/><line class="cls-3" x1="21.82" y1="20.24" x2="19.93" y2="20.44"/><line class="cls-3" x1="19.79" y1="18.74" x2="19.93" y2="20.44"/><line class="cls-3" x1="55.67" y1="37.65" x2="54.6" y2="36.07"/><line class="cls-3" x1="56.03" y1="35.15" x2="54.6" y2="36.07"/><line class="cls-3" x1="22.34" y1="42.42" x2="23.54" y2="43.9"/><line class="cls-3" x1="22.19" y1="44.94" x2="23.54" y2="43.9"/><line class="cls-3" x1="43.98" y1="22.69" x2="45.01" y2="21.09"/><line class="cls-3" x1="46.42" y1="22.05" x2="45.01" y2="21.09"/><line class="cls-3" x1="34.33" y1="53.58" x2="33.12" y2="55.05"/><line class="cls-3" x1="31.83" y1="53.94" x2="33.12" y2="55.05"/></svg>