<svg id="Ebene_1" data-name="Ebene 1" xmlns="http://www.w3.org/2000/svg" xmlns:xlink="http://www.w3.org/1999/xlink" viewBox="0 0 101.11 80.18"><defs><style>.cls-1,.cls-8{fill:none;}.cls-2{fill:#e6f0d9;}.cls-3{clip-path:url(#clip-path);}.cls-4{fill:#84cff4;}.cls-5{fill:#2196f3;}.cls-6{fill:#c4dca4;}.cls-6,.cls-7,.cls-8{stroke:#000;stroke-linecap:round;stroke-linejoin:round;}.cls-7{fill:#4caf50;}.cls-9{opacity:0.3;}.cls-10{clip-path:url(#clip-path-4);}</style><clipPath id="clip-path"><rect class="cls-1" width="101.11" height="80.18" rx="10.07"/></clipPath><clipPath id="clip-path-4"><rect class="cls-1" y="2.4" width="101.11" height="80.18" rx="10.07"/></clipPath></defs><rect class="cls-2" width="101.11" height="80.18" rx="10.07"/><g class="cls-3"><rect class="cls-4" x="-0.44" y="37.2" width="102.11" height="51.94"/><path class="cls-5" d="M75.75,96.86c-6.85,0-11.16,2.13-15,4.06-3.3,1.67-6,3-10.4,3-4.57,0-7.1-1.27-10.4-3-3.8-1.93-8-4.06-15-4.06s-11.16,2.13-15,4.06c-3.3,1.67-5.94,3-10.4,3v9.89c6.85,0,11.16-2.13,15-4.06,3.3-1.67,5.94-3,10.4-3s7.1,1.27,10.4,3c3.8,1.93,8,4.06,15,4.06s11.16-2.13,15-4.06c3.3-1.67,6-3,10.4-3,4.57,0,7.1,1.27,10.4,3,3.8,1.93,8,4.06,15,4.06V104c-4.56,0-7.1-1.27-10.4-3C86.91,99,82.6,96.86,75.75,96.86Zm0-22.57c-6.85,0-11.16,2.18-15,4.06-3.3,1.62-6,3-10.4,3-4.57,0-7.1-1.27-10.4-3-3.8-1.93-8-4.06-15-4.06s-11.16,2.18-15,4.06c-3.3,1.62-5.94,3-10.4,3v9.89c6.85,0,11.16-2.18,15-4.06,3.3-1.77,5.83-3,10.4-3s7.1,1.27,10.4,3c3.8,1.93,8,4.06,15,4.06s11.16-2.18,15-4.06c3.3-1.77,5.84-3,10.4-3s7.1,1.27,10.4,3c3.8,1.93,8,4.06,15,4.06V81.39c-4.56,0-7.1-1.27-10.4-3C86.91,76.42,82.6,74.29,75.75,74.29Zm15-41c-3.8-1.93-8-4.06-15-4.06s-11.16,2.13-15,4.06c-3.3,1.62-6,3-10.4,3-4.57,0-7.1-1.27-10.4-3-3.8-1.88-8-4.06-15-4.06s-11.16,2.13-15,4.06c-3.3,1.67-5.94,3-10.4,3v9.79c6.85,0,11.16-2.18,15-4.06,3.3-1.67,5.94-3,10.4-3s7.1,1.27,10.4,3c3.8,1.93,8,4.06,15,4.06s11.16-2.18,15-4.06c3.3-1.62,6-3,10.4-3,4.57,0,7.1,1.27,10.4,3,3.8,1.93,8,4.06,15,4.06V36.25C96.55,36.25,94,35,90.71,33.31Zm-15,18.41c-6.85,0-11.16,2.18-15,4.06-3.3,1.77-5.84,3-10.4,3s-7.1-1.27-10.4-3c-3.8-1.93-8-4.06-15-4.06s-11.16,2.18-15,4.06c-3.3,1.77-5.84,3-10.4,3v9.89c6.85,0,11.16-2.18,15-4.06,3.3-1.62,6-3,10.4-3s7.1,1.27,10.4,3c3.8,1.93,8,4.06,15,4.06s11.16-2.18,15-4.06c3.3-1.62,6-3,10.4-3,4.57,0,7.1,1.27,10.4,3,3.8,1.93,8,4.06,15,4.06V58.82c-4.56,0-7.1-1.27-10.4-3C86.91,53.85,82.6,51.72,75.75,51.72Z"/></g><g class="cls-3"><rect class="cls-6" x="9.29" y="31.81" width="20.65" height="9.93" transform="translate(-12.67 10.42) rotate(-22.7)"/><ellipse class="cls-6" cx="10.09" cy="40.76" rx="2.95" ry="4.96" transform="translate(-14.95 7.05) rotate(-22.7)"/><ellipse class="cls-6" cx="10.67" cy="42.59" rx="0.94" ry="1.57" transform="translate(-15.61 7.42) rotate(-22.7)"/><rect class="cls-7" x="29.76" y="23.5" width="30.58" height="5.68" transform="translate(-6.68 19.43) rotate(-22.7)"/><path class="cls-7" d="M56.57,18.44l2-.81c.86-.36,2,.52,2.66,2s.4,2.91-.47,3.27l-2,.82"/><ellipse class="cls-6" cx="29.31" cy="32.72" rx="2.95" ry="4.96" transform="translate(-10.36 13.85) rotate(-22.7)"/><ellipse class="cls-7" cx="31.06" cy="32.2" rx="1.63" ry="2.74" transform="translate(-10.02 14.48) rotate(-22.7)"/><line class="cls-6" x1="29.68" y1="29.9" x2="19.62" y2="34.06"/><line class="cls-6" x1="30.94" y1="32.37" x2="22.74" y2="35.75"/><line class="cls-6" x1="32.04" y1="34.87" x2="21.81" y2="38.92"/><rect class="cls-6" x="15.83" y="43.2" width="20.65" height="9.93" transform="translate(-16.56 13.83) rotate(-22.7)"/><ellipse class="cls-6" cx="16.63" cy="52.15" rx="2.95" ry="4.96" transform="translate(-18.84 10.46) rotate(-22.7)"/><ellipse class="cls-6" cx="16.63" cy="52.33" rx="0.94" ry="1.57" transform="translate(-18.91 10.47) rotate(-22.7)"/><rect class="cls-7" x="31.8" y="34.23" width="39.01" height="7.25" transform="translate(-10.64 22.74) rotate(-22.7)"/><path class="cls-7" d="M66,27.78l2.49-1.05c1.1-.45,2.61.67,3.39,2.52s.51,3.71-.59,4.17l-2.49,1"/><path class="cls-6" d="M29.44,41.38l4.16-1.74c1.5-.63,3.58.91,4.64,3.44s.69,5.09-.81,5.72L34.2,50.15"/><rect class="cls-7" x="39.31" y="44.64" width="39.01" height="7.25" transform="translate(-14.07 26.44) rotate(-22.7)"/><path class="cls-7" d="M73.51,38.19l2.49-1c1.1-.46,2.62.66,3.39,2.51s.51,3.72-.59,4.18l-2.49,1"/><ellipse class="cls-7" cx="40.7" cy="55.83" rx="2.16" ry="3.64" transform="translate(-18.39 20.03) rotate(-22.7)"/><ellipse class="cls-7" cx="40.7" cy="55.83" rx="0.94" ry="1.57" transform="translate(-18.39 20.03) rotate(-22.7)"/><path class="cls-8" d="M61.18,19.6S92,13.11,102,13.7"/><path class="cls-8" d="M71.89,29.25S103,18,103.89,15.7"/><path class="cls-8" d="M79.39,39.66s24.17-17.55,25.94-21.84"/></g><g class="cls-3"><g class="cls-9"><g class="cls-10"><rect class="cls-4" x="-0.44" y="39.6" width="102.11" height="51.94"/><path class="cls-5" d="M75.75,99.26c-6.85,0-11.16,2.13-15,4.06-3.3,1.67-6,3-10.4,3-4.57,0-7.1-1.27-10.4-3-3.8-1.93-8-4.06-15-4.06s-11.16,2.13-15,4.06c-3.3,1.67-5.94,3-10.4,3v9.89c6.85,0,11.16-2.13,15-4,3.3-1.68,5.94-3,10.4-3s7.1,1.27,10.4,3c3.8,1.92,8,4,15,4s11.16-2.13,15-4c3.3-1.68,6-3,10.4-3,4.57,0,7.1,1.27,10.4,3,3.8,1.92,8,4,15,4v-9.89c-4.56,0-7.1-1.27-10.4-3C86.91,101.39,82.6,99.26,75.75,99.26Zm0-22.57c-6.85,0-11.16,2.18-15,4.06-3.3,1.62-6,3-10.4,3-4.57,0-7.1-1.27-10.4-3-3.8-1.93-8-4.06-15-4.06s-11.16,2.18-15,4.06c-3.3,1.62-5.94,3-10.4,3v9.89c6.85,0,11.16-2.18,15-4.06,3.3-1.77,5.83-3,10.4-3s7.1,1.27,10.4,3c3.8,1.93,8,4.06,15,4.06s11.16-2.18,15-4.06c3.3-1.77,5.84-3,10.4-3s7.1,1.27,10.4,3c3.8,1.93,8,4.06,15,4.06V83.79c-4.56,0-7.1-1.27-10.4-3C86.91,78.82,82.6,76.69,75.75,76.69Zm15-41c-3.8-1.93-8-4.06-15-4.06s-11.16,2.13-15,4.06c-3.3,1.62-6,3-10.4,3-4.57,0-7.1-1.27-10.4-3-3.8-1.88-8-4.06-15-4.06s-11.16,2.13-15,4.06c-3.3,1.67-5.94,3-10.4,3v9.79c6.85,0,11.16-2.18,15-4.06,3.3-1.67,5.94-3,10.4-3s7.1,1.27,10.4,3c3.8,1.93,8,4.06,15,4.06s11.16-2.18,15-4.06c3.3-1.62,6-3,10.4-3,4.57,0,7.1,1.27,10.4,3,3.8,1.93,8,4.06,15,4.06V38.65C96.55,38.65,94,37.38,90.71,35.71Zm-15,18.41c-6.85,0-11.16,2.18-15,4.06-3.3,1.77-5.84,3-10.4,3s-7.1-1.27-10.4-3c-3.8-1.93-8-4.06-15-4.06s-11.16,2.18-15,4.06c-3.3,1.77-5.84,3-10.4,3v9.89c6.85,0,11.16-2.18,15-4.06,3.3-1.62,6-3,10.4-3s7.1,1.27,10.4,3c3.8,1.93,8,4.06,15,4.06s11.16-2.18,15-4.06c3.3-1.62,6-3,10.4-3,4.57,0,7.1,1.27,10.4,3,3.8,1.93,8,4.06,15,4.06V61.22c-4.56,0-7.1-1.27-10.4-3C86.91,56.25,82.6,54.12,75.75,54.12Z"/></g></g></g></svg>