<svg id="Ebene_1" data-name="Ebene 1" xmlns="http://www.w3.org/2000/svg" xmlns:xlink="http://www.w3.org/1999/xlink" viewBox="0 0 374.13 189.93"><defs><style>.cls-1,.cls-4,.cls-5,.cls-6,.cls-8{fill:none;}.cls-2{clip-path:url(#clip-path);}.cls-3{fill:#e6f0d9;}.cls-4{stroke:#666;}.cls-4,.cls-5,.cls-6,.cls-8{stroke-linecap:round;stroke-linejoin:round;}.cls-4,.cls-6,.cls-8{stroke-width:2px;}.cls-5{stroke:#1d1d1b;stroke-width:3px;}.cls-6{stroke:#000;}.cls-7{fill:red;}.cls-8{stroke:red;}.cls-9{font-size:10px;font-family:Roboto-Bold, Roboto;font-weight:700;}</style><clipPath id="clip-path"><rect class="cls-1" width="374.13" height="189.93" rx="10"/></clipPath></defs><g class="cls-2"><rect class="cls-3" width="374.13" height="189.93"/></g><line class="cls-4" x1="227.07" y1="164.78" x2="227.07" y2="24.78"/><line class="cls-4" x1="247.07" y1="164.78" x2="247.07" y2="24.78"/><line class="cls-4" x1="267.07" y1="164.78" x2="267.07" y2="24.78"/><line class="cls-4" x1="287.07" y1="164.78" x2="287.07" y2="24.78"/><line class="cls-4" x1="307.07" y1="164.78" x2="307.07" y2="24.78"/><line class="cls-4" x1="327.07" y1="164.78" x2="327.07" y2="24.78"/><line class="cls-4" x1="347.07" y1="164.78" x2="347.07" y2="24.78"/><line class="cls-4" x1="346.43" y1="144.78" x2="207.32" y2="144.78"/><line class="cls-4" x1="346.43" y1="124.78" x2="207.32" y2="124.78"/><line class="cls-4" x1="346.43" y1="104.78" x2="207.32" y2="104.78"/><line class="cls-4" x1="346.43" y1="84.78" x2="207.32" y2="84.78"/><line class="cls-4" x1="346.43" y1="64.78" x2="207.32" y2="64.78"/><line class="cls-4" x1="346.43" y1="44.78" x2="207.32" y2="44.78"/><line class="cls-4" x1="347.07" y1="24.78" x2="207.07" y2="24.78"/><line class="cls-5" x1="207.07" y1="168.81" x2="207.07" y2="21.73"/><line class="cls-5" x1="207.07" y1="168.81" x2="207.07" y2="11.73"/><line class="cls-5" x1="207.03" y1="10.61" x2="202.67" y2="15.07"/><line class="cls-5" x1="207.07" y1="10.66" x2="211.09" y2="14.78"/><line class="cls-5" x1="202.97" y1="164.78" x2="363.51" y2="164.78"/><line class="cls-5" x1="364.17" y1="164.75" x2="359.71" y2="160.38"/><line class="cls-5" x1="364.12" y1="164.79" x2="360" y2="168.81"/><line class="cls-5" x1="350.38" y1="164.78" x2="207.32" y2="164.78"/><path class="cls-6" d="M207.07,136.51s21.63-67.25,31.7-61,12.52,54.49,21,54.51c8.74,0,27-99,40.59-82.09s9.78,81.71,26.67,81.75,20-32.84,20-32.84"/><circle class="cls-7" cx="227.07" cy="84.78" r="4.06"/><circle class="cls-7" cx="247.07" cy="84.78" r="4.06"/><circle class="cls-7" cx="267.07" cy="124.78" r="4.06"/><circle class="cls-7" cx="287.07" cy="64.78" r="4.06"/><circle class="cls-7" cx="307.07" cy="64.78" r="4.06"/><circle class="cls-7" cx="327.07" cy="124.78" r="4.06"/><circle class="cls-7" cx="347.07" cy="104.78" r="4.06"/><line class="cls-8" x1="227.07" y1="84.78" x2="227.07" y2="164.78"/><line class="cls-8" x1="247.07" y1="84.78" x2="247.07" y2="164.78"/><line class="cls-8" x1="267.07" y1="124.78" x2="267.07" y2="164.78"/><line class="cls-8" x1="287.07" y1="64.78" x2="287.07" y2="164.78"/><line class="cls-8" x1="307.07" y1="164.78" x2="307.07" y2="64.78"/><line class="cls-8" x1="327.07" y1="124.78" x2="327.07" y2="164.78"/><line class="cls-8" x1="347.07" y1="104.78" x2="347.07" y2="164.78"/><text class="cls-9" transform="translate(199.21 176.07)">0</text><text class="cls-9" transform="translate(224.35 176.07)">1</text><text class="cls-9" transform="translate(198.63 148.07)">1</text><text class="cls-9" transform="translate(244.2 176.07)">2</text><text class="cls-9" transform="translate(198.63 127.9)">2</text><text class="cls-9" transform="translate(264.2 176.07)">3</text><text class="cls-9" transform="translate(198.63 107.88)">3</text><text class="cls-9" transform="translate(284.2 176.07)">4</text><text class="cls-9" transform="translate(198.63 87.48)">4</text><text class="cls-9" transform="translate(304.2 176.07)">5</text><text class="cls-9" transform="translate(198.63 67.92)">5</text><text class="cls-9" transform="translate(324.2 176.07)">6</text><text class="cls-9" transform="translate(198.63 47.8)">6</text><text class="cls-9" transform="translate(344.2 176.07)">7</text><text class="cls-9" transform="translate(198.63 28.51)">7</text><line class="cls-4" x1="38.36" y1="164.78" x2="38.36" y2="24.78"/><line class="cls-4" x1="58.36" y1="164.78" x2="58.36" y2="24.78"/><line class="cls-4" x1="78.36" y1="164.78" x2="78.36" y2="24.78"/><line class="cls-4" x1="98.36" y1="164.78" x2="98.36" y2="24.78"/><line class="cls-4" x1="118.36" y1="164.78" x2="118.36" y2="24.78"/><line class="cls-4" x1="138.36" y1="164.78" x2="138.36" y2="24.78"/><line class="cls-4" x1="158.36" y1="164.78" x2="158.36" y2="24.78"/><line class="cls-4" x1="28.16" y1="164.78" x2="28.16" y2="24.78"/><line class="cls-4" x1="48.16" y1="164.78" x2="48.16" y2="24.78"/><line class="cls-4" x1="68.16" y1="164.78" x2="68.16" y2="24.78"/><line class="cls-4" x1="88.16" y1="164.78" x2="88.16" y2="24.78"/><line class="cls-4" x1="108.16" y1="164.78" x2="108.16" y2="24.78"/><line class="cls-4" x1="128.16" y1="164.78" x2="128.16" y2="24.78"/><line class="cls-4" x1="148.16" y1="164.78" x2="148.16" y2="24.78"/><line class="cls-4" x1="157.72" y1="144.78" x2="18.61" y2="144.78"/><line class="cls-4" x1="157.72" y1="124.78" x2="18.61" y2="124.78"/><line class="cls-4" x1="157.72" y1="104.78" x2="18.61" y2="104.78"/><line class="cls-4" x1="157.72" y1="84.78" x2="18.61" y2="84.78"/><line class="cls-4" x1="157.72" y1="64.78" x2="18.61" y2="64.78"/><line class="cls-4" x1="157.72" y1="44.78" x2="18.61" y2="44.78"/><line class="cls-4" x1="158.36" y1="24.78" x2="18.36" y2="24.78"/><line class="cls-4" x1="157.72" y1="154.78" x2="18.61" y2="154.78"/><line class="cls-4" x1="157.72" y1="134.78" x2="18.61" y2="134.78"/><line class="cls-4" x1="157.72" y1="114.78" x2="18.61" y2="114.78"/><line class="cls-4" x1="157.72" y1="94.78" x2="18.61" y2="94.78"/><line class="cls-4" x1="157.72" y1="74.78" x2="18.61" y2="74.78"/><line class="cls-4" x1="157.72" y1="54.78" x2="18.61" y2="54.78"/><line class="cls-4" x1="158.36" y1="34.78" x2="18.36" y2="34.78"/><line class="cls-5" x1="18.36" y1="168.81" x2="18.36" y2="21.73"/><line class="cls-5" x1="18.36" y1="168.81" x2="18.36" y2="11.73"/><line class="cls-5" x1="18.32" y1="10.61" x2="13.95" y2="15.07"/><line class="cls-5" x1="18.36" y1="10.66" x2="22.38" y2="14.78"/><line class="cls-5" x1="14.26" y1="164.78" x2="174.8" y2="164.78"/><line class="cls-5" x1="175.45" y1="164.75" x2="171" y2="160.38"/><line class="cls-5" x1="175.41" y1="164.79" x2="171.28" y2="168.81"/><line class="cls-5" x1="161.67" y1="164.78" x2="18.61" y2="164.78"/><path class="cls-6" d="M18.36,136.51s21.63-67.25,31.7-61S62.58,130,71.1,130c8.74,0,27-99,40.59-82.09s9.78,81.71,26.67,81.75,20-32.84,20-32.84"/><circle class="cls-7" cx="38.36" cy="84.78" r="4.06"/><circle class="cls-7" cx="28.16" cy="104.78" r="4.06"/><circle class="cls-7" cx="48.16" cy="74.78" r="4.06"/><circle class="cls-7" cx="68.16" cy="124.78" r="4.06"/><circle class="cls-7" cx="88.36" cy="84.78" r="4.06"/><circle class="cls-7" cx="108.16" cy="44.78" r="4.06"/><circle class="cls-7" cx="128.36" cy="114.78" r="4.06"/><circle class="cls-7" cx="148.54" cy="124.78" r="4.06"/><circle class="cls-7" cx="58.36" cy="84.78" r="4.06"/><circle class="cls-7" cx="78.36" cy="124.78" r="4.06"/><circle class="cls-7" cx="98.36" cy="64.78" r="4.06"/><circle class="cls-7" cx="118.36" cy="64.78" r="4.06"/><circle class="cls-7" cx="138.36" cy="124.78" r="4.06"/><circle class="cls-7" cx="158.36" cy="104.78" r="4.06"/><line class="cls-8" x1="38.36" y1="84.78" x2="38.36" y2="164.78"/><line class="cls-8" x1="58.36" y1="84.78" x2="58.36" y2="164.78"/><line class="cls-8" x1="88.16" y1="84.78" x2="88.16" y2="164.78"/><line class="cls-8" x1="28.16" y1="104.07" x2="28.16" y2="164.78"/><line class="cls-8" x1="78.36" y1="124.78" x2="78.36" y2="164.78"/><line class="cls-8" x1="68.16" y1="124.78" x2="68.16" y2="164.78"/><line class="cls-8" x1="98.36" y1="64.78" x2="98.36" y2="164.78"/><line class="cls-8" x1="118.36" y1="164.78" x2="118.36" y2="64.78"/><line class="cls-8" x1="138.36" y1="124.78" x2="138.36" y2="164.78"/><line class="cls-8" x1="128.16" y1="114.78" x2="128.16" y2="164.78"/><line class="cls-8" x1="108.16" y1="44.81" x2="108.16" y2="164.78"/><line class="cls-8" x1="148.16" y1="124.78" x2="148.16" y2="164.78"/><line class="cls-8" x1="158.36" y1="104.78" x2="158.36" y2="164.78"/><text class="cls-9" transform="translate(10.5 176.07)">0</text><text class="cls-9" transform="translate(35.64 176.07)">1</text><text class="cls-9" transform="translate(9.92 148.07)">1</text><text class="cls-9" transform="translate(55.49 176.07)">2</text><text class="cls-9" transform="translate(9.92 127.9)">2</text><text class="cls-9" transform="translate(75.49 176.07)">3</text><text class="cls-9" transform="translate(9.92 107.88)">3</text><text class="cls-9" transform="translate(95.49 176.07)">4</text><text class="cls-9" transform="translate(9.92 87.48)">4</text><text class="cls-9" transform="translate(115.49 176.07)">5</text><text class="cls-9" transform="translate(9.92 67.92)">5</text><text class="cls-9" transform="translate(135.49 176.07)">6</text><text class="cls-9" transform="translate(9.92 47.8)">6</text><text class="cls-9" transform="translate(155.49 176.07)">7</text><text class="cls-9" transform="translate(9.92 28.51)">7</text></svg>