<svg xmlns="http://www.w3.org/2000/svg" xmlns:xlink="http://www.w3.org/1999/xlink" viewBox="0 0 500 337.52"><defs><style>.cls-1,.cls-11,.cls-9{fill:none;}.cls-2{isolation:isolate;}.cls-10,.cls-15,.cls-26,.cls-3{fill:#fff;}.cls-4{clip-path:url(#clip-path);}.cls-5{fill:#e6f0d9;}.cls-6{fill:#e5d1e5;}.cls-7{fill:#f9d4d4;}.cls-8{fill:#cbebfa;}.cls-10,.cls-11,.cls-9{stroke:#fff;stroke-width:4px;}.cls-10,.cls-11,.cls-22,.cls-9{stroke-miterlimit:10;}.cls-11{stroke-dasharray:9.83 9.83;}.cls-12{mix-blend-mode:multiply;}.cls-13{fill:#7b1fa2;}.cls-14{fill:#9c27b0;}.cls-15,.cls-27{font-size:12px;}.cls-15,.cls-26,.cls-27{font-family:Roboto-Bold, Roboto;font-weight:700;}.cls-16{letter-spacing:0.01em;}.cls-17{fill:#1976d2;}.cls-18,.cls-22,.cls-27{fill:#2196f3;}.cls-19{fill:#d32f2f;}.cls-20,.cls-32{fill:#f44336;}.cls-21{letter-spacing:-0.02em;}.cls-22{stroke:#2196f3;}.cls-23{fill:#388e3c;}.cls-24{fill:#4caf50;}.cls-25{letter-spacing:-0.01em;}.cls-26{font-size:8px;}.cls-28{letter-spacing:-0.01em;}.cls-29{letter-spacing:-0.1em;}.cls-30{letter-spacing:-0.01em;}.cls-31{letter-spacing:-0.02em;}.cls-32{fill-rule:evenodd;}</style><clipPath id="clip-path"><rect class="cls-1" width="500" height="337.52" rx="10"/></clipPath></defs><g class="cls-2"><g id="Ebene_1" data-name="Ebene 1"><rect class="cls-3" width="500" height="337.52" rx="10"/><g class="cls-4"><rect class="cls-5" y="253.14" width="500" height="84.38"/><rect class="cls-6" y="84.38" width="500" height="84.38"/><rect class="cls-7" width="500" height="84.38"/><rect class="cls-8" y="168.76" width="500" height="84.38"/><line class="cls-9" x1="128.3" y1="83.54" x2="-2" y2="83.54"/><line class="cls-10" x1="128.3" y1="168.51" x2="-2" y2="168.51"/><line class="cls-9" x1="128.3" y1="252.99" x2="-2" y2="252.99"/><line class="cls-9" x1="124.15" y1="252.99" x2="129.15" y2="252.99"/><line class="cls-11" x1="138.98" y1="252.99" x2="488.08" y2="252.99"/><line class="cls-9" x1="493" y1="252.99" x2="498" y2="252.99"/><line class="cls-9" x1="124.15" y1="168.51" x2="129.15" y2="168.51"/><line class="cls-11" x1="138.98" y1="168.51" x2="488.08" y2="168.51"/><line class="cls-9" x1="493" y1="168.51" x2="498" y2="168.51"/><line class="cls-9" x1="124.15" y1="83.54" x2="129.15" y2="83.54"/><line class="cls-11" x1="138.98" y1="83.54" x2="488.08" y2="83.54"/><line class="cls-9" x1="493" y1="83.54" x2="498" y2="83.54"/></g><g class="cls-12"><rect class="cls-13" x="12.19" y="104.69" width="105.91" height="43.52" rx="10"/></g><rect class="cls-14" x="11.19" y="103.69" width="105.91" height="43.52" rx="10"/><text class="cls-15" transform="translate(23.16 122.95)">Management &amp;<tspan x="-4.32" y="14.4">Se</tspan><tspan class="cls-16" x="9.54" y="14.4">r</tspan><tspan x="14.03" y="14.4">vice Platform</tspan></text><g class="cls-12"><rect class="cls-17" x="12.19" y="190.6" width="105.91" height="43.52" rx="10"/></g><rect class="cls-18" x="11.19" y="189.6" width="105.91" height="43.52" rx="10"/><text class="cls-15" transform="translate(38.47 214.86)">Netzwerk</text><g class="cls-12"><rect class="cls-19" x="12.19" y="22.27" width="105.91" height="43.52" rx="10"/></g><rect class="cls-20" x="11.19" y="21.27" width="105.91" height="43.52" rx="10"/><text class="cls-15" transform="translate(26.75 46.53)"><tspan class="cls-21">A</tspan><tspan x="7.79" y="0">nwendungen</tspan></text><rect class="cls-3" x="343.51" y="205.76" width="15.99" height="19.54"/><rect class="cls-3" x="288.01" y="176.32" width="15.99" height="19.54"/><rect class="cls-3" x="247.94" y="205.76" width="15.99" height="19.54"/><rect class="cls-3" x="157.94" y="247.04" width="15.99" height="9.77"/><rect class="cls-3" x="285.47" y="246.58" width="15.99" height="9.77"/><rect class="cls-3" x="415.25" y="247.04" width="15.99" height="9.77"/><rect class="cls-3" x="200.72" y="205.76" width="15.99" height="19.54"/><path class="cls-18" d="M181.33,232.1l1.35-1.36a11.83,11.83,0,0,0-16.9,0l1.35,1.36a10.19,10.19,0,0,1,14.2,0Zm-1.52,1.35a7.75,7.75,0,0,0-11.16,0L170,234.8a6.14,6.14,0,0,1,8.46,0Zm-.51,10.65h-3.38v-6.77h-3.38v6.77h-16.9a3.39,3.39,0,0,0-3.38,3.38v6.76a3.39,3.39,0,0,0,3.38,3.38H179.3a3.39,3.39,0,0,0,3.38-3.38v-6.76A3.39,3.39,0,0,0,179.3,244.1Zm-18.59,8.45h-3.38v-3.38h3.38Zm5.91,0h-3.38v-3.38h3.38Zm5.92,0h-3.38v-3.38h3.38Z"/><path class="cls-18" d="M309.86,232.1l1.35-1.36a11.83,11.83,0,0,0-16.9,0l1.35,1.36a10.19,10.19,0,0,1,14.2,0Zm-1.52,1.35a7.75,7.75,0,0,0-11.16,0l1.36,1.35a6.13,6.13,0,0,1,8.45,0Zm-.51,10.65h-3.38v-6.77h-3.38v6.77h-16.9a3.39,3.39,0,0,0-3.38,3.38v6.76a3.39,3.39,0,0,0,3.38,3.38h23.66a3.39,3.39,0,0,0,3.38-3.38v-6.76A3.39,3.39,0,0,0,307.83,244.1Zm-18.59,8.45h-3.38v-3.38h3.38Zm5.92,0h-3.38v-3.38h3.38Zm5.91,0h-3.38v-3.38h3.38Z"/><path class="cls-18" d="M439.64,232.1l1.35-1.36a11.83,11.83,0,0,0-16.9,0l1.35,1.36a10.19,10.19,0,0,1,14.2,0Zm-1.52,1.35a7.75,7.75,0,0,0-11.16,0l1.35,1.35a6.14,6.14,0,0,1,8.46,0Zm-.51,10.65h-3.38v-6.77h-3.38v6.77H414a3.39,3.39,0,0,0-3.38,3.38v6.76a3.39,3.39,0,0,0,3.38,3.38h23.66a3.39,3.39,0,0,0,3.38-3.38v-6.76A3.39,3.39,0,0,0,437.61,244.1ZM419,252.55h-3.38v-3.38H419Zm5.91,0h-3.38v-3.38h3.38Zm5.92,0h-3.38v-3.38h3.38Z"/><path class="cls-18" d="M216.71,205.76h-16a1.78,1.78,0,0,0-1.77,1.78v16a1.78,1.78,0,0,0,1.77,1.78h16a1.78,1.78,0,0,0,1.78-1.78v-16A1.78,1.78,0,0,0,216.71,205.76Zm-1.77,16H204.13l1.4,1.41-1.25,1.26-3.56-3.56,3.56-3.55,1.25,1.26-1.4,1.41h9v-3.56h1.78Zm-1.78-8-1.25-1.26,1.4-1.41h-9v3.56H202.5v-5.33h10.81l-1.4-1.41,1.25-1.26,3.55,3.56Z"/><path class="cls-18" d="M359.5,205.76h-16a1.78,1.78,0,0,0-1.78,1.78v16a1.78,1.78,0,0,0,1.78,1.78h16a1.78,1.78,0,0,0,1.78-1.78v-16A1.78,1.78,0,0,0,359.5,205.76Zm-1.78,16H346.91l1.41,1.41-1.26,1.26-3.55-3.56,3.55-3.55,1.26,1.26L346.91,220h9v-3.56h1.77Zm-1.77-8-1.26-1.26,1.41-1.41h-9v3.56h-1.77v-5.33H356.1l-1.41-1.41,1.26-1.26,3.55,3.56Z"/><path class="cls-18" d="M286.23,178.1v16a1.78,1.78,0,0,0,1.77,1.77h16a1.78,1.78,0,0,0,1.78-1.77v-16a1.78,1.78,0,0,0-1.78-1.78H288A1.78,1.78,0,0,0,286.23,178.1ZM288.89,192l4.59-4.61,1.27,1.26-4.6,4.6Zm14.21-13v5.33h-1.77V182l-2.84,2.84-1.27-1.26L300,180.8l0,0h-2.26V179Zm-8.88,0v1.77h-2.29L303.1,192l-1.25,1.25L290.67,182v2.3h-1.78V179Z"/><path class="cls-18" d="M246.16,207.54v16a1.78,1.78,0,0,0,1.78,1.78h16a1.78,1.78,0,0,0,1.78-1.78v-16a1.78,1.78,0,0,0-1.78-1.78h-16A1.78,1.78,0,0,0,246.16,207.54Zm2.66,13.85,4.6-4.6,1.26,1.25-4.59,4.6Zm14.22-13v5.33h-1.78v-2.32l-2.84,2.84L257.16,213l2.78-2.78,0,0h-2.26v-1.78Zm-8.89,0v1.78h-2.29L263,221.39l-1.26,1.25L250.6,211.47v2.29h-1.78v-5.33Z"/><line class="cls-22" x1="181.31" y1="246.58" x2="200.42" y2="223.84"/><line class="cls-22" x1="217.45" y1="221.82" x2="247.01" y2="221.82"/><line class="cls-22" x1="263.9" y1="223.07" x2="282.99" y2="245.62"/><line class="cls-22" x1="264.28" y1="206.65" x2="287.55" y2="194.67"/><line class="cls-22" x1="303.1" y1="194.04" x2="343.51" y2="207.28"/><line class="cls-22" x1="263.9" y1="216.42" x2="343.51" y2="215.54"/><line class="cls-22" x1="412.44" y1="246.44" x2="359.5" y2="223.26"/><g class="cls-12"><rect class="cls-23" x="12.19" y="274.93" width="105.91" height="43.52" rx="10"/></g><rect class="cls-24" x="11.19" y="273.93" width="105.91" height="43.52" rx="10"/><text class="cls-15" transform="translate(46.22 300.19)">Ge<tspan class="cls-25" x="14.66" y="0">r</tspan><tspan x="18.86" y="0">äte</tspan></text><rect class="cls-24" x="150.1" y="278.13" width="35.11" height="35.11" rx="10"/><path class="cls-3" d="M178.65,292.69v-2h-2v-2a2,2,0,0,0-2-2h-14a2,2,0,0,0-2,2v14a2,2,0,0,0,2,2h14a2,2,0,0,0,2-2v-2h2v-2h-2v-2h2v-2h-2v-2Zm-4,10h-14v-14h14Zm-12-6h5v4h-5Zm6-6h4v3h-4Zm-6,0h5v5h-5Zm6,4h4v6h-4Z"/><rect class="cls-24" x="377.39" y="278.13" width="35.11" height="35.11" rx="10"/><path class="cls-3" d="M389.14,290.55l1.66,1.66a5.85,5.85,0,0,1,8.29,0l1.66-1.66a8.2,8.2,0,0,0-11.61,0Zm5.8-7.05a12.74,12.74,0,0,0-9,3.73l1.64,1.63a10.44,10.44,0,0,1,14.73,0l1.63-1.63A12.72,12.72,0,0,0,394.94,283.5ZM398.26,294h-6.64a1.32,1.32,0,0,0-1.32,1.32v11.28a1.32,1.32,0,0,0,1.32,1.32h6.63a1.33,1.33,0,0,0,1.33-1.32V295.27A1.3,1.3,0,0,0,398.26,294Zm.17,11.6h-7v-9.29h7Z"/><rect class="cls-24" x="300.24" y="278.13" width="35.11" height="35.11" rx="10"/><path class="cls-3" d="M321.74,294.18l-3.75,5,2.85,3.8-1.6,1.2-4.5-6-6,8h22Z"/><path class="cls-3" d="M304.86,296.19h2a9,9,0,0,1,9-9v-2A11,11,0,0,0,304.86,296.19Zm8,0h3v-3A3,3,0,0,0,312.86,296.19Zm-4,0h2a5,5,0,0,1,5-5v-2A7,7,0,0,0,308.86,296.19Z"/><rect class="cls-24" x="224.19" y="278.13" width="35.11" height="35.11" rx="10"/><path class="cls-3" d="M246.75,294.69v-8h-10v4h-4v14h8v-4h2v4h8v-10Zm-10,8h-2v-2h2Zm0-4h-2v-2h2Zm0-4h-2v-2h2Zm4,4h-2v-2h2Zm0-4h-2v-2h2Zm0-4h-2v-2h2Zm4,8h-2v-2h2Zm0-4h-2v-2h2Zm0-4h-2v-2h2Zm4,12h-2v-2h2Zm0-4h-2v-2h2Z"/><rect class="cls-24" x="448.1" y="278.13" width="35.11" height="35.11" rx="10"/><path class="cls-3" d="M460.65,294.27h3v-3A3,3,0,0,0,460.65,294.27Z"/><path class="cls-3" d="M452.65,294.27h2a9,9,0,0,1,9-9v-2A11,11,0,0,0,452.65,294.27Z"/><path class="cls-3" d="M456.65,294.27h2a5,5,0,0,1,5-5v-2A7,7,0,0,0,456.65,294.27Z"/><path class="cls-3" d="M476.92,295.61a1.24,1.24,0,0,0-1.18-.84h-9.17a1.24,1.24,0,0,0-1.18.84l-1.74,5v6.67a.84.84,0,0,0,.84.83h.83a.83.83,0,0,0,.83-.83v-.83h10v.83a.84.84,0,0,0,.84.83h.83a.83.83,0,0,0,.83-.83V300.6Zm-10.35,8.33a1.25,1.25,0,1,1,1.25-1.25A1.25,1.25,0,0,1,466.57,303.94Zm9.17,0a1.25,1.25,0,1,1,1.25-1.25A1.24,1.24,0,0,1,475.74,303.94Zm-10.42-4.17,1.25-3.75h9.17l1.25,3.75Z"/><rect class="cls-14" x="138.84" y="91.99" width="344.65" height="16.28" rx="8.14"/><text class="cls-26" transform="translate(288.59 103.46)">API Manager</text><path class="cls-3" d="M280.39,100.13l-.94.94-.94-.94.94-.94Zm-.94-2.82,1,1,1.18-1.17L279.45,95l-2.17,2.17,1.18,1.17Zm-2.82,2.82,1-1L276.46,98l-2.17,2.18,2.17,2.17,1.17-1.18Zm5.64,0-1,1,1.17,1.18,2.17-2.17L282.45,98l-1.17,1.18ZM279.45,103l-1-1-1.18,1.17,2.17,2.18,2.18-2.18L280.45,102Z"/><text class="cls-27" transform="translate(447.86 255.69)">Gatew<tspan class="cls-28" x="33.97" y="0">a</tspan><tspan x="40.31" y="0">y</tspan></text><rect class="cls-14" x="138.84" y="144.25" width="344.65" height="16.28" rx="8.14"/><text class="cls-26" transform="translate(279.19 155.73)">Element Manager</text><path class="cls-3" d="M275.92,151v-1.2h-1.2v-1.2a1.2,1.2,0,0,0-1.2-1.2h-8.4a1.2,1.2,0,0,0-1.2,1.2V157a1.2,1.2,0,0,0,1.2,1.2h8.4a1.2,1.2,0,0,0,1.2-1.2v-1.2h1.2v-1.2h-1.2v-1.2h1.2v-1.2h-1.2V151Zm-2.4,6h-8.4v-8.4h8.4Zm-7.2-3.6h3v2.4h-3Zm3.6-3.6h2.4v1.8h-2.4Zm-3.6,0h3v3h-3Zm3.6,2.4h2.4v3.6h-2.4Z"/><rect class="cls-14" x="138.96" y="109.56" width="85" height="16.28" rx="8.14"/><text class="cls-26" transform="translate(150.35 120.04)">Platform Manager</text><rect class="cls-14" x="225.38" y="109.56" width="85" height="16.28" rx="8.14"/><text class="cls-26" transform="translate(237.34 120.04)">Communications</text><rect class="cls-14" x="398.49" y="109.56" width="85" height="16.28" rx="8.14"/><text class="cls-26" transform="translate(409.18 120.04)"><tspan class="cls-29">T</tspan><tspan x="4.14" y="0">opology Manager</tspan></text><rect class="cls-14" x="225.38" y="126.91" width="85" height="16.28" rx="8.14"/><text class="cls-26" transform="translate(242.71 137.38)">Data Manager</text><rect class="cls-14" x="311.81" y="109.56" width="85" height="16.28" rx="8.14"/><text class="cls-26" transform="translate(332.38 120.04)">Regist<tspan class="cls-25" x="22.93" y="0">r</tspan><tspan x="25.73" y="0">ation</tspan></text><rect class="cls-14" x="311.81" y="126.91" width="85" height="16.28" rx="8.14"/><text class="cls-26" transform="translate(320.53 137.38)">Firmwa<tspan class="cls-30" x="26.52" y="0">r</tspan><tspan x="29.36" y="0">e Manager</tspan></text><rect class="cls-14" x="398.49" y="126.91" width="85" height="16.28" rx="8.14"/><text class="cls-26" transform="translate(402.92 137.38)">Notification Manager</text><rect class="cls-14" x="138.96" y="126.91" width="85" height="16.28" rx="8.14"/><text class="cls-26" transform="translate(153.66 137.38)">G<tspan class="cls-31" x="5.45" y="0">r</tspan><tspan x="8.23" y="0">oup Manager</tspan></text><rect class="cls-3" x="208.96" y="25.77" width="24.74" height="23.6"/><rect class="cls-3" x="240.07" y="45.11" width="30.52" height="23.6"/><rect class="cls-3" x="300.34" y="13.96" width="33.66" height="23.6"/><rect class="cls-3" x="364.81" y="36.06" width="9.71" height="10.65"/><path class="cls-20" d="M234.84,20.77H207.63a3.9,3.9,0,0,0-3.89,3.89V51.87a3.89,3.89,0,0,0,3.89,3.88h27.21a3.89,3.89,0,0,0,3.88-3.88V24.66A3.9,3.9,0,0,0,234.84,20.77ZM215.4,48h-3.89V34.38h3.89Zm7.78,0h-3.89V28.55h3.89ZM231,48h-3.89V40.21H231Z"/><path class="cls-32" d="M270.64,39.42H239.55a3.9,3.9,0,0,0-3.89,3.89V70.52a3.89,3.89,0,0,0,3.89,3.88h31.09a3.89,3.89,0,0,0,3.89-3.88V43.31A3.9,3.9,0,0,0,270.64,39.42ZM251.21,66.63h-9.72V62.74h9.72Zm0-7.77h-9.72V55h9.72Zm0-7.78h-9.72V47.19h9.72Zm9.37,11.66-5.48-5.52,2.74-2.74,2.74,2.76,6.16-6.16,2.76,2.76Z"/><path class="cls-20" d="M334.61,10.77H300.34a4.28,4.28,0,0,0-4.26,4.29l0,21.42a4.3,4.3,0,0,0,4.29,4.28h34.27a4.3,4.3,0,0,0,4.28-4.28V15.06A4.3,4.3,0,0,0,334.61,10.77ZM315.33,17.2h4.28v4.28h-4.28Zm0,6.42h4.28v4.29h-4.28ZM308.9,17.2h4.29v4.28H308.9Zm0,6.42h4.29v4.29H308.9Zm-2.14,4.29h-4.28V23.62h4.28Zm0-6.43h-4.28V17.2h4.28Zm19.28,15H308.9V32.19H326Zm0-8.57h-4.28V23.62H326Zm0-6.43h-4.28V17.2H326Zm6.43,6.43h-4.29V23.62h4.29Zm0-6.43h-4.29V17.2h4.29Z"/><path class="cls-20" d="M375.87,45.37a7.4,7.4,0,0,0,1.17-4,7.5,7.5,0,1,0-7.51,7.5,7.34,7.34,0,0,0,4-1.17l5.2,5.2,2.36-2.36Zm-6.33.18a4.17,4.17,0,1,1,4.17-4.17A4.17,4.17,0,0,1,369.54,45.55Zm-.6-14.16a9.69,9.69,0,0,0-3.49.75l-.92-1.38L358.2,41.05l-5-5.86-6.05,9.68-2.72-1.95,8.33-13.33,5,5.83,6.66-10.83Zm4.32.83a9.9,9.9,0,0,0-3.42-.81l8.53-13.48,2.7,2Z"/><path class="cls-20" d="M285.08,28.53v35a17.59,17.59,0,0,1,0-35Zm3.55,0V44.26h15.69A17.57,17.57,0,0,0,288.63,28.53Zm0,19.26V63.52a17.56,17.56,0,0,0,15.69-15.73Z"/><circle class="cls-20" cx="323.86" cy="57.79" r="7"/><circle class="cls-20" cx="340.47" cy="65.66" r="4.37"/><circle class="cls-20" cx="341.35" cy="45.54" r="10.5"/></g></g></svg>