<svg id="Ebene_1" data-name="Ebene 1" xmlns="http://www.w3.org/2000/svg" xmlns:xlink="http://www.w3.org/1999/xlink" viewBox="0 0 114.84 177.28"><defs><style>.cls-1,.cls-2,.cls-5{fill:none;}.cls-10,.cls-11,.cls-12,.cls-2,.cls-4,.cls-5{stroke:#1d1d1b;}.cls-2{stroke-miterlimit:10;}.cls-3{fill:#e6f0d9;}.cls-10,.cls-11,.cls-12,.cls-4,.cls-5,.cls-6,.cls-9{stroke-linecap:round;stroke-linejoin:round;}.cls-4{fill:url(#Unbenannter_Verlauf_48);}.cls-5{stroke-dasharray:2;}.cls-6{fill:#84cff4;}.cls-6,.cls-9{stroke:#000;}.cls-7{clip-path:url(#clip-path);}.cls-8{fill:#4293b2;}.cls-9{fill:#2196f3;}.cls-10{fill:#4caf50;}.cls-11{fill:url(#Unbenannter_Verlauf_48-2);}.cls-12{fill:url(#Unbenannter_Verlauf_48-3);}.cls-13{fill:#fff;}.cls-14{fill:#1d1d1b;}.cls-15{clip-path:url(#clip-path-2);}.cls-16{fill:#fefefe;}.cls-17{fill:#2a292b;}.cls-18{fill:#17090c;}.cls-19{fill:#233a88;}.cls-20{fill:#171716;}.cls-21{fill:#355096;}.cls-22{fill:#eafedf;}.cls-23{fill:#532718;}.cls-24{fill:#cbfefe;}.cls-25{fill:#080607;}.cls-26{fill:#080907;}.cls-27{fill:#1c1a19;}.cls-28{fill:#3f1e16;}.cls-29{fill:#080a14;}.cls-30{fill:#1e2d50;}.cls-31{fill:#4b1e1c;}.cls-32{fill:#3d1f1e;}.cls-33{fill:#f2fed8;}.cls-34{fill:#9c501d;}.cls-35{fill:#300;}.cls-36{fill:#0e284c;}.cls-37{fill:#19151c;}.cls-38{fill:#452114;}.cls-39{fill:#8c3500;}.cls-40{fill:#983500;}.cls-41{fill:#982b00;}.cls-42{fill:#0055cb;}.cls-43{fill:#fefecb;}.cls-44{fill:#056;}.cls-45{fill:#600;}.cls-46{fill:#cba966;}.cls-47{fill:#d5dcd7;}.cls-48{fill:#ece4d5;}.cls-49{fill:#e9e6e0;}.cls-50{fill:#cbfecb;}</style><linearGradient id="Unbenannter_Verlauf_48" x1="16.61" y1="27.86" x2="34.76" y2="27.86" gradientUnits="userSpaceOnUse"><stop offset="0" stop-color="#ff0700"/><stop offset="0.16" stop-color="#f0f"/><stop offset="0.33" stop-color="#0005ff"/><stop offset="0.5" stop-color="#06ffff"/><stop offset="0.66" stop-color="#0bff00"/><stop offset="0.83" stop-color="#ffff08"/><stop offset="1" stop-color="red"/></linearGradient><clipPath id="clip-path"><polygon class="cls-1" points="97.16 42.48 99.72 42.48 90.76 29.69 81.86 42.48 84.36 42.48 79.37 50.16 88.22 50.16 88.22 55.28 93.29 55.28 93.29 50.16 102.28 50.16 97.16 42.48"/></clipPath><linearGradient id="Unbenannter_Verlauf_48-2" x1="16.61" y1="86.73" x2="34.76" y2="86.73" xlink:href="#Unbenannter_Verlauf_48"/><linearGradient id="Unbenannter_Verlauf_48-3" x1="16.61" y1="142.86" x2="34.76" y2="142.86" xlink:href="#Unbenannter_Verlauf_48"/><clipPath id="clip-path-2"><polygon class="cls-2" points="98.95 153.05 49.02 166.75 48.89 153.07 98.82 139.37 98.95 153.05"/></clipPath></defs><rect class="cls-3" width="114.84" height="177.28" rx="10.07"/><polygon class="cls-4" points="34.76 36.23 16.61 42.48 16.61 18.48 34.76 13.23 34.76 36.23"/><line class="cls-5" x1="22.95" y1="38.1" x2="69.9" y2="50.66"/><line class="cls-5" x1="25.69" y1="27.86" x2="72.64" y2="40.43"/><line class="cls-5" x1="31.34" y1="17.12" x2="83.21" y2="28.61"/><polygon class="cls-6" points="97.16 42.48 99.72 42.48 90.76 29.69 81.86 42.48 84.36 42.48 79.37 50.16 88.22 50.16 88.22 55.28 93.29 55.28 93.29 50.16 102.28 50.16 97.16 42.48"/><g class="cls-7"><polygon class="cls-8" points="92.38 43.27 95.25 43.27 85.2 28.91 75.22 43.27 78.02 43.27 72.42 51.89 82.36 51.89 82.36 57.63 88.04 57.63 88.04 51.89 98.13 51.89 92.38 43.27"/></g><polygon class="cls-9" points="92.05 43.27 94.92 43.27 84.87 28.91 74.89 43.27 77.69 43.27 72.09 51.89 82.03 51.89 82.03 57.63 87.71 57.63 87.71 51.89 97.79 51.89 92.05 43.27"/><polygon class="cls-10" points="13.58 16.96 31.74 11.71 13.58 16.96 13.58 40.96 16.61 42.48 16.61 18.48 13.58 16.96"/><polygon class="cls-10" points="34.76 13.23 31.74 11.71 13.58 16.96 16.61 18.48 34.76 13.23"/><line class="cls-5" x1="30.53" y1="16.83" x2="31.6" y2="19.14"/><line class="cls-5" x1="30.59" y1="16.81" x2="32.94" y2="15.85"/><line class="cls-5" x1="25.07" y1="27.46" x2="26.29" y2="29.69"/><line class="cls-5" x1="25.13" y1="27.44" x2="27.41" y2="26.32"/><line class="cls-5" x1="22.06" y1="37.77" x2="23.06" y2="40.1"/><line class="cls-5" x1="22.12" y1="37.75" x2="24.5" y2="36.86"/><polygon class="cls-11" points="34.76 95.11 16.61 101.36 16.61 77.36 34.76 72.11 34.76 95.11"/><line class="cls-5" x1="18.19" y1="99.47" x2="66.63" y2="113.99"/><line class="cls-5" x1="33.72" y1="94.27" x2="66.75" y2="103.11"/><line class="cls-5" x1="18.35" y1="78.66" x2="65.68" y2="91.81"/><line class="cls-5" x1="33.65" y1="74.13" x2="87.54" y2="87.32"/><polygon class="cls-10" points="13.58 75.84 31.74 70.58 13.58 75.84 13.58 99.84 16.61 101.36 16.61 77.36 13.58 75.84"/><polygon class="cls-10" points="34.76 72.11 31.74 70.58 13.58 75.84 16.61 77.36 34.76 72.11"/><line class="cls-5" x1="32.95" y1="73.89" x2="34.09" y2="76.16"/><line class="cls-5" x1="33.01" y1="73.86" x2="35.33" y2="72.83"/><line class="cls-5" x1="17.95" y1="99.37" x2="19.02" y2="101.67"/><line class="cls-5" x1="18.01" y1="99.35" x2="20.36" y2="98.39"/><line class="cls-5" x1="32.6" y1="94.03" x2="33.94" y2="96.19"/><line class="cls-5" x1="32.66" y1="94" x2="34.87" y2="92.76"/><line class="cls-5" x1="17.9" y1="78.55" x2="19.01" y2="80.84"/><line class="cls-5" x1="17.96" y1="78.53" x2="20.29" y2="77.53"/><polygon class="cls-12" points="34.76 151.24 16.61 157.49 16.61 133.49 34.76 128.24 34.76 151.24"/><line class="cls-5" x1="18.44" y1="150.2" x2="49.02" y2="166.75"/><line class="cls-5" x1="33.55" y1="145.2" x2="98.95" y2="153.05"/><line class="cls-5" x1="18.24" y1="142.1" x2="48.89" y2="153.07"/><line class="cls-5" x1="33.41" y1="137.86" x2="98.82" y2="139.37"/><polygon class="cls-10" points="13.58 131.97 31.74 126.72 13.58 131.97 13.58 155.97 16.61 157.49 16.61 133.49 13.58 131.97"/><polygon class="cls-10" points="34.76 128.24 31.74 126.72 13.58 131.97 16.61 133.49 34.76 128.24"/><line class="cls-5" x1="32.37" y1="137.62" x2="33.94" y2="139.62"/><line class="cls-5" x1="32.42" y1="137.58" x2="34.49" y2="136.11"/><line class="cls-5" x1="17.96" y1="149.91" x2="18.58" y2="152.38"/><line class="cls-5" x1="18.02" y1="149.9" x2="20.51" y2="149.4"/><line class="cls-5" x1="32.42" y1="145.1" x2="34.16" y2="146.95"/><line class="cls-5" x1="32.47" y1="145.07" x2="34.39" y2="143.41"/><line class="cls-5" x1="17.51" y1="141.84" x2="18.66" y2="144.1"/><line class="cls-5" x1="17.56" y1="141.81" x2="19.87" y2="140.76"/><polygon class="cls-13" points="67.49 91.86 88.03 86.68 88.23 109.17 67.68 114.35 67.49 91.86"/><path class="cls-14" d="M87.54,87.32l.19,21.46-19.55,4.93L68,92.24l19.55-4.92m1-1.28-1.23.31L67.75,91.28l-.77.19v.78l.19,21.47V115l1.23-.31L88,109.75l.76-.19v-.79l-.19-21.46V86Z"/><polygon points="72.73 91.05 73.32 90.9 73.33 91.55 72.74 91.7 72.73 91.05"/><polygon points="74.51 90.6 75.1 90.45 75.11 91.1 74.51 91.25 74.51 90.6"/><polygon points="75.1 90.45 75.69 90.3 75.7 90.95 75.11 91.1 75.1 90.45"/><polygon points="75.69 90.3 76.28 90.16 76.29 90.81 75.7 90.95 75.69 90.3"/><polygon points="76.88 90 77.47 89.86 77.47 90.51 76.88 90.66 76.88 90"/><polygon points="78.65 89.56 79.25 89.41 79.25 90.06 78.66 90.21 78.65 89.56"/><polygon points="81.62 88.81 82.21 88.66 82.21 89.31 81.62 89.46 81.62 88.81"/><polygon points="73.33 91.55 73.92 91.4 73.93 92.05 73.33 92.2 73.33 91.55"/><polygon points="73.92 91.4 74.51 91.25 74.52 91.9 73.93 92.05 73.92 91.4"/><polygon points="74.51 91.25 75.11 91.1 75.11 91.75 74.52 91.9 74.51 91.25"/><polygon points="75.11 91.1 75.7 90.95 75.7 91.61 75.11 91.75 75.11 91.1"/><polygon points="75.7 90.95 76.29 90.81 76.3 91.45 75.7 91.61 75.7 90.95"/><polygon points="76.29 90.81 76.88 90.66 76.89 91.31 76.3 91.45 76.29 90.81"/><polygon points="78.66 90.21 79.25 90.06 79.26 90.71 78.67 90.86 78.66 90.21"/><polygon points="79.25 90.06 79.84 89.91 79.85 90.56 79.26 90.71 79.25 90.06"/><polygon points="73.93 92.05 74.52 91.9 74.53 92.55 73.93 92.7 73.93 92.05"/><polygon points="75.11 91.75 75.7 91.61 75.71 92.25 75.12 92.4 75.11 91.75"/><polygon points="76.3 91.45 76.89 91.31 76.89 91.96 76.3 92.11 76.3 91.45"/><polygon points="76.89 91.31 77.48 91.16 77.49 91.81 76.89 91.96 76.89 91.31"/><polygon points="77.48 91.16 78.07 91.01 78.08 91.66 77.49 91.81 77.48 91.16"/><polygon points="78.07 91.01 78.67 90.86 78.67 91.51 78.08 91.66 78.07 91.01"/><polygon points="78.67 90.86 79.26 90.71 79.26 91.36 78.67 91.51 78.67 90.86"/><polygon points="79.26 90.71 79.85 90.56 79.86 91.21 79.26 91.36 79.26 90.71"/><polygon points="80.44 90.41 81.03 90.26 81.04 90.91 80.45 91.06 80.44 90.41"/><polygon points="81.63 90.11 82.22 89.96 82.22 90.61 81.63 90.76 81.63 90.11"/><polygon points="72.75 93 73.34 92.85 73.34 93.5 72.75 93.65 72.75 93"/><polygon points="73.34 92.85 73.93 92.7 73.94 93.35 73.34 93.5 73.34 92.85"/><polygon points="74.53 92.55 75.12 92.4 75.12 93.06 74.53 93.2 74.53 92.55"/><polygon points="75.12 92.4 75.71 92.25 75.72 92.91 75.12 93.06 75.12 92.4"/><polygon points="77.49 91.81 78.08 91.66 78.08 92.31 77.49 92.46 77.49 91.81"/><polygon points="78.08 91.66 78.67 91.51 78.68 92.16 78.08 92.31 78.08 91.66"/><polygon points="80.45 91.06 81.04 90.91 81.05 91.56 80.45 91.71 80.45 91.06"/><polygon points="81.04 90.91 81.63 90.76 81.64 91.41 81.05 91.56 81.04 90.91"/><polygon points="72.75 93.65 73.34 93.5 73.35 94.15 72.76 94.3 72.75 93.65"/><polygon points="73.34 93.5 73.94 93.35 73.94 94 73.35 94.15 73.34 93.5"/><polygon points="77.49 92.46 78.08 92.31 78.09 92.96 77.5 93.11 77.49 92.46"/><polygon points="78.08 92.31 78.68 92.16 78.68 92.81 78.09 92.96 78.08 92.31"/><polygon points="79.27 92.01 79.86 91.86 79.87 92.51 79.28 92.66 79.27 92.01"/><polygon points="80.45 91.71 81.05 91.56 81.05 92.21 80.46 92.36 80.45 91.71"/><polygon points="81.05 91.56 81.64 91.41 81.64 92.06 81.05 92.21 81.05 91.56"/><polygon points="72.76 94.3 73.35 94.15 73.36 94.8 72.76 94.95 72.76 94.3"/><polygon points="73.35 94.15 73.94 94 73.95 94.65 73.36 94.8 73.35 94.15"/><polygon points="73.94 94 74.54 93.86 74.54 94.5 73.95 94.65 73.94 94"/><polygon points="75.13 93.7 75.72 93.56 75.73 94.21 75.13 94.36 75.13 93.7"/><polygon points="76.91 93.26 77.5 93.11 77.5 93.76 76.91 93.91 76.91 93.26"/><polygon points="78.09 92.96 78.68 92.81 78.69 93.46 78.1 93.61 78.09 92.96"/><polygon points="79.87 92.51 80.46 92.36 80.47 93.01 79.87 93.16 79.87 92.51"/><polygon points="80.46 92.36 81.05 92.21 81.06 92.86 80.47 93.01 80.46 92.36"/><polygon points="81.05 92.21 81.64 92.06 81.65 92.71 81.06 92.86 81.05 92.21"/><polygon points="81.64 92.06 82.24 91.91 82.24 92.56 81.65 92.71 81.64 92.06"/><polygon points="82.24 91.91 82.83 91.77 82.83 92.42 82.24 92.56 82.24 91.91"/><polygon points="72.76 94.95 73.36 94.8 73.36 95.45 72.77 95.6 72.76 94.95"/><polygon points="73.95 94.65 74.54 94.5 74.55 95.16 73.95 95.31 73.95 94.65"/><polygon points="75.13 94.36 75.73 94.21 75.73 94.86 75.14 95.01 75.13 94.36"/><polygon points="76.32 94.06 76.91 93.91 76.92 94.56 76.32 94.71 76.32 94.06"/><polygon points="77.5 93.76 78.1 93.61 78.1 94.26 77.51 94.41 77.5 93.76"/><polygon points="78.69 93.46 79.28 93.31 79.29 93.96 78.69 94.11 78.69 93.46"/><polygon points="79.87 93.16 80.47 93.01 80.47 93.66 79.88 93.81 79.87 93.16"/><polygon points="81.06 92.86 81.65 92.71 81.66 93.36 81.06 93.51 81.06 92.86"/><polygon points="82.24 92.56 82.83 92.42 82.84 93.06 82.25 93.22 82.24 92.56"/><polygon points="72.77 95.6 73.36 95.45 73.37 96.1 72.78 96.25 72.77 95.6"/><polygon points="74.55 95.16 75.14 95.01 75.14 95.66 74.55 95.81 74.55 95.16"/><polygon points="76.32 94.71 76.92 94.56 76.92 95.21 76.33 95.36 76.32 94.71"/><polygon points="78.1 94.26 78.69 94.11 78.7 94.76 78.11 94.91 78.1 94.26"/><polygon points="78.69 94.11 79.29 93.96 79.29 94.61 78.7 94.76 78.69 94.11"/><polygon points="79.29 93.96 79.88 93.81 79.88 94.46 79.29 94.61 79.29 93.96"/><polygon points="79.88 93.81 80.47 93.66 80.48 94.31 79.88 94.46 79.88 93.81"/><polygon points="80.47 93.66 81.06 93.51 81.07 94.16 80.48 94.31 80.47 93.66"/><polygon points="82.25 93.22 82.84 93.06 82.85 93.72 82.25 93.86 82.25 93.22"/><polygon points="68.04 97.45 68.63 97.3 68.64 97.95 68.04 98.1 68.04 97.45"/><polygon points="70.41 96.85 71 96.7 71 97.35 70.41 97.5 70.41 96.85"/><polygon points="71.59 96.55 72.18 96.4 72.19 97.05 71.6 97.2 71.59 96.55"/><polygon points="72.18 96.4 72.78 96.25 72.78 96.9 72.19 97.05 72.18 96.4"/><polygon points="72.78 96.25 73.37 96.1 73.37 96.75 72.78 96.9 72.78 96.25"/><polygon points="73.96 95.95 74.55 95.81 74.56 96.46 73.97 96.61 73.96 95.95"/><polygon points="75.14 95.66 75.74 95.51 75.74 96.16 75.15 96.31 75.14 95.66"/><polygon points="76.92 95.21 77.52 95.06 77.52 95.71 76.93 95.86 76.92 95.21"/><polygon points="78.11 94.91 78.7 94.76 78.7 95.41 78.11 95.56 78.11 94.91"/><polygon points="79.88 94.46 80.48 94.31 80.48 94.96 79.89 95.11 79.88 94.46"/><polygon points="80.48 94.31 81.07 94.16 81.08 94.81 80.48 94.96 80.48 94.31"/><polygon points="81.07 94.16 81.66 94.01 81.67 94.67 81.08 94.81 81.07 94.16"/><polygon points="81.66 94.01 82.25 93.86 82.26 94.52 81.67 94.67 81.66 94.01"/><polygon points="82.85 93.72 83.44 93.57 83.44 94.22 82.85 94.37 82.85 93.72"/><polygon points="83.44 93.57 84.03 93.42 84.04 94.07 83.44 94.22 83.44 93.57"/><polygon points="84.03 93.42 84.62 93.27 84.63 93.92 84.04 94.07 84.03 93.42"/><polygon points="84.62 93.27 85.22 93.12 85.22 93.77 84.63 93.92 84.62 93.27"/><polygon points="85.22 93.12 85.81 92.97 85.81 93.62 85.22 93.77 85.22 93.12"/><polygon points="86.99 92.67 87.58 92.52 87.59 93.17 87 93.32 86.99 92.67"/><polygon points="68.64 97.95 69.23 97.8 69.23 98.45 68.64 98.6 68.64 97.95"/><polygon points="71 97.35 71.6 97.2 71.6 97.85 71.01 98 71 97.35"/><polygon points="72.19 97.05 72.78 96.9 72.79 97.55 72.19 97.7 72.19 97.05"/><polygon points="73.97 96.61 74.56 96.46 74.56 97.11 73.97 97.26 73.97 96.61"/><polygon points="74.56 96.46 75.15 96.31 75.16 96.96 74.56 97.11 74.56 96.46"/><polygon points="76.93 95.86 77.52 95.71 77.53 96.36 76.93 96.51 76.93 95.86"/><polygon points="77.52 95.71 78.11 95.56 78.12 96.21 77.53 96.36 77.52 95.71"/><polygon points="78.11 95.56 78.7 95.41 78.71 96.06 78.12 96.21 78.11 95.56"/><polygon points="78.7 95.41 79.3 95.26 79.3 95.91 78.71 96.06 78.7 95.41"/><polygon points="80.48 94.96 81.08 94.81 81.08 95.46 80.49 95.61 80.48 94.96"/><polygon points="81.08 94.81 81.67 94.67 81.67 95.31 81.08 95.46 81.08 94.81"/><polygon points="81.67 94.67 82.26 94.52 82.27 95.17 81.67 95.31 81.67 94.67"/><polygon points="82.85 94.37 83.44 94.22 83.45 94.87 82.86 95.02 82.85 94.37"/><polygon points="85.22 93.77 85.81 93.62 85.82 94.27 85.23 94.42 85.22 93.77"/><polygon points="85.81 93.62 86.41 93.47 86.41 94.12 85.82 94.27 85.81 93.62"/><polygon points="87 93.32 87.59 93.17 87.6 93.82 87 93.97 87 93.32"/><polygon points="68.05 98.75 68.64 98.6 68.65 99.25 68.05 99.4 68.05 98.75"/><polygon points="69.23 98.45 69.83 98.3 69.83 98.95 69.24 99.1 69.23 98.45"/><polygon points="70.42 98.15 71.01 98 71.02 98.65 70.42 98.8 70.42 98.15"/><polygon points="71.01 98 71.6 97.85 71.61 98.5 71.02 98.65 71.01 98"/><polygon points="71.6 97.85 72.19 97.7 72.2 98.35 71.61 98.5 71.6 97.85"/><polygon points="72.19 97.7 72.79 97.55 72.79 98.2 72.2 98.35 72.19 97.7"/><polygon points="72.79 97.55 73.38 97.41 73.39 98.06 72.79 98.2 72.79 97.55"/><polygon points="75.75 96.81 76.34 96.66 76.35 97.31 75.75 97.46 75.75 96.81"/><polygon points="76.34 96.66 76.93 96.51 76.94 97.16 76.35 97.31 76.34 96.66"/><polygon points="76.93 96.51 77.53 96.36 77.53 97.01 76.94 97.16 76.93 96.51"/><polygon points="78.71 96.06 79.3 95.91 79.31 96.56 78.72 96.71 78.71 96.06"/><polygon points="81.67 95.31 82.27 95.17 82.27 95.82 81.68 95.97 81.67 95.31"/><polygon points="82.86 95.02 83.45 94.87 83.45 95.52 82.86 95.67 82.86 95.02"/><polygon points="85.23 94.42 85.82 94.27 85.83 94.92 85.23 95.07 85.23 94.42"/><polygon points="86.41 94.12 87 93.97 87.01 94.62 86.42 94.77 86.41 94.12"/><polygon points="69.24 99.1 69.83 98.95 69.84 99.6 69.24 99.75 69.24 99.1"/><polygon points="70.42 98.8 71.02 98.65 71.02 99.3 70.43 99.45 70.42 98.8"/><polygon points="72.2 98.35 72.79 98.2 72.8 98.86 72.21 99 72.2 98.35"/><polygon points="73.98 97.91 74.57 97.76 74.58 98.41 73.98 98.56 73.98 97.91"/><polygon points="75.16 97.61 75.75 97.46 75.76 98.11 75.17 98.26 75.16 97.61"/><polygon points="75.75 97.46 76.35 97.31 76.35 97.96 75.76 98.11 75.75 97.46"/><polygon points="77.53 97.01 78.12 96.86 78.13 97.51 77.54 97.66 77.53 97.01"/><polygon points="79.31 96.56 79.9 96.41 79.91 97.06 79.31 97.21 79.31 96.56"/><polygon points="79.9 96.41 80.49 96.26 80.5 96.92 79.91 97.06 79.9 96.41"/><polygon points="81.09 96.11 81.68 95.97 81.68 96.62 81.09 96.77 81.09 96.11"/><polygon points="82.27 95.82 82.86 95.67 82.87 96.32 82.28 96.47 82.27 95.82"/><polygon points="82.86 95.67 83.45 95.52 83.46 96.17 82.87 96.32 82.86 95.67"/><polygon points="83.45 95.52 84.05 95.37 84.05 96.02 83.46 96.17 83.45 95.52"/><polygon points="68.06 100.05 68.65 99.9 68.66 100.55 68.06 100.7 68.06 100.05"/><polygon points="69.24 99.75 69.84 99.6 69.84 100.25 69.25 100.4 69.24 99.75"/><polygon points="69.84 99.6 70.43 99.45 70.43 100.1 69.84 100.25 69.84 99.6"/><polygon points="71.61 99.15 72.21 99 72.21 99.66 71.62 99.8 71.61 99.15"/><polygon points="72.8 98.86 73.39 98.71 73.4 99.36 72.8 99.51 72.8 98.86"/><polygon points="73.98 98.56 74.58 98.41 74.58 99.06 73.99 99.21 73.98 98.56"/><polygon points="75.17 98.26 75.76 98.11 75.77 98.76 75.17 98.91 75.17 98.26"/><polygon points="75.76 98.11 76.35 97.96 76.36 98.61 75.77 98.76 75.76 98.11"/><polygon points="77.54 97.66 78.13 97.51 78.14 98.16 77.54 98.31 77.54 97.66"/><polygon points="81.09 96.77 81.68 96.62 81.69 97.27 81.1 97.42 81.09 96.77"/><polygon points="81.68 96.62 82.28 96.47 82.28 97.12 81.69 97.27 81.68 96.62"/><polygon points="82.28 96.47 82.87 96.32 82.87 96.97 82.28 97.12 82.28 96.47"/><polygon points="83.46 96.17 84.05 96.02 84.06 96.67 83.47 96.82 83.46 96.17"/><polygon points="84.05 96.02 84.65 95.87 84.65 96.52 84.06 96.67 84.05 96.02"/><polygon points="85.24 95.72 85.83 95.57 85.84 96.22 85.24 96.37 85.24 95.72"/><polygon points="87.02 95.27 87.61 95.12 87.61 95.77 87.02 95.92 87.02 95.27"/><polygon points="68.06 100.7 68.66 100.55 68.66 101.2 68.07 101.35 68.06 100.7"/><polygon points="69.25 100.4 69.84 100.25 69.85 100.9 69.25 101.05 69.25 100.4"/><polygon points="69.84 100.25 70.43 100.1 70.44 100.75 69.85 100.9 69.84 100.25"/><polygon points="70.43 100.1 71.03 99.95 71.03 100.6 70.44 100.75 70.43 100.1"/><polygon points="71.03 99.95 71.62 99.8 71.63 100.45 71.03 100.6 71.03 99.95"/><polygon points="72.21 99.66 72.8 99.51 72.81 100.16 72.22 100.31 72.21 99.66"/><polygon points="73.99 99.21 74.58 99.06 74.59 99.71 73.99 99.86 73.99 99.21"/><polygon points="74.58 99.06 75.17 98.91 75.18 99.56 74.59 99.71 74.58 99.06"/><polygon points="76.36 98.61 76.95 98.46 76.96 99.11 76.36 99.26 76.36 98.61"/><polygon points="78.14 98.16 78.73 98.01 78.73 98.66 78.14 98.81 78.14 98.16"/><polygon points="78.73 98.01 79.32 97.86 79.33 98.51 78.73 98.66 78.73 98.01"/><polygon points="79.32 97.86 79.91 97.71 79.92 98.36 79.33 98.51 79.32 97.86"/><polygon points="79.91 97.71 80.5 97.56 80.51 98.22 79.92 98.36 79.91 97.71"/><polygon points="82.28 97.12 82.87 96.97 82.88 97.62 82.29 97.77 82.28 97.12"/><polygon points="82.87 96.97 83.47 96.82 83.47 97.47 82.88 97.62 82.87 96.97"/><polygon points="84.06 96.67 84.65 96.52 84.66 97.17 84.06 97.32 84.06 96.67"/><polygon points="85.84 96.22 86.43 96.07 86.43 96.72 85.84 96.87 85.84 96.22"/><polygon points="69.25 101.05 69.85 100.9 69.85 101.55 69.26 101.7 69.25 101.05"/><polygon points="70.44 100.75 71.03 100.6 71.04 101.25 70.45 101.4 70.44 100.75"/><polygon points="71.03 100.6 71.63 100.45 71.63 101.11 71.04 101.25 71.03 100.6"/><polygon points="71.63 100.45 72.22 100.31 72.22 100.96 71.63 101.11 71.63 100.45"/><polygon points="73.99 99.86 74.59 99.71 74.59 100.36 74 100.51 73.99 99.86"/><polygon points="74.59 99.71 75.18 99.56 75.19 100.21 74.59 100.36 74.59 99.71"/><polygon points="75.18 99.56 75.77 99.41 75.78 100.06 75.19 100.21 75.18 99.56"/><polygon points="76.36 99.26 76.96 99.11 76.96 99.76 76.37 99.91 76.36 99.26"/><polygon points="76.96 99.11 77.55 98.96 77.55 99.61 76.96 99.76 76.96 99.11"/><polygon points="78.14 98.81 78.73 98.66 78.74 99.31 78.15 99.46 78.14 98.81"/><polygon points="78.73 98.66 79.33 98.51 79.33 99.16 78.74 99.31 78.73 98.66"/><polygon points="79.92 98.36 80.51 98.22 80.52 98.87 79.92 99.02 79.92 98.36"/><polygon points="80.51 98.22 81.1 98.07 81.11 98.72 80.52 98.87 80.51 98.22"/><polygon points="81.69 97.92 82.29 97.77 82.29 98.42 81.7 98.57 81.69 97.92"/><polygon points="82.29 97.77 82.88 97.62 82.89 98.27 82.29 98.42 82.29 97.77"/><polygon points="82.88 97.62 83.47 97.47 83.48 98.12 82.89 98.27 82.88 97.62"/><polygon points="83.47 97.47 84.06 97.32 84.07 97.97 83.48 98.12 83.47 97.47"/><polygon points="84.66 97.17 85.25 97.02 85.25 97.67 84.66 97.82 84.66 97.17"/><polygon points="86.43 96.72 87.03 96.57 87.03 97.22 86.44 97.37 86.43 96.72"/><polygon points="68.08 102 68.67 101.85 68.67 102.5 68.08 102.65 68.08 102"/><polygon points="68.67 101.85 69.26 101.7 69.27 102.35 68.67 102.5 68.67 101.85"/><polygon points="69.26 101.7 69.85 101.55 69.86 102.2 69.27 102.35 69.26 101.7"/><polygon points="69.85 101.55 70.45 101.4 70.45 102.05 69.86 102.2 69.85 101.55"/><polygon points="70.45 101.4 71.04 101.25 71.04 101.91 70.45 102.05 70.45 101.4"/><polygon points="72.22 100.96 72.81 100.81 72.82 101.46 72.23 101.61 72.22 100.96"/><polygon points="74 100.51 74.59 100.36 74.6 101.01 74.01 101.16 74 100.51"/><polygon points="74.59 100.36 75.19 100.21 75.19 100.86 74.6 101.01 74.59 100.36"/><polygon points="75.78 100.06 76.37 99.91 76.38 100.56 75.78 100.71 75.78 100.06"/><polygon points="76.37 99.91 76.96 99.76 76.97 100.41 76.38 100.56 76.37 99.91"/><polygon points="76.96 99.76 77.55 99.61 77.56 100.26 76.97 100.41 76.96 99.76"/><polygon points="77.55 99.61 78.15 99.46 78.15 100.11 77.56 100.26 77.55 99.61"/><polygon points="78.15 99.46 78.74 99.31 78.75 99.96 78.15 100.11 78.15 99.46"/><polygon points="78.74 99.31 79.33 99.16 79.34 99.81 78.75 99.96 78.74 99.31"/><polygon points="80.52 98.87 81.11 98.72 81.11 99.37 80.52 99.52 80.52 98.87"/><polygon points="81.7 98.57 82.29 98.42 82.3 99.07 81.71 99.22 81.7 98.57"/><polygon points="82.89 98.27 83.48 98.12 83.48 98.77 82.89 98.92 82.89 98.27"/><polygon points="83.48 98.12 84.07 97.97 84.08 98.62 83.48 98.77 83.48 98.12"/><polygon points="84.07 97.97 84.66 97.82 84.67 98.47 84.08 98.62 84.07 97.97"/><polygon points="68.08 102.65 68.67 102.5 68.68 103.15 68.09 103.3 68.08 102.65"/><polygon points="68.67 102.5 69.27 102.35 69.27 103 68.68 103.15 68.67 102.5"/><polygon points="69.86 102.2 70.45 102.05 70.46 102.7 69.86 102.85 69.86 102.2"/><polygon points="70.45 102.05 71.04 101.91 71.05 102.56 70.46 102.7 70.45 102.05"/><polygon points="71.04 101.91 71.64 101.75 71.64 102.41 71.05 102.56 71.04 101.91"/><polygon points="71.64 101.75 72.23 101.61 72.23 102.26 71.64 102.41 71.64 101.75"/><polygon points="72.82 101.46 73.41 101.31 73.42 101.96 72.83 102.11 72.82 101.46"/><polygon points="73.41 101.31 74.01 101.16 74.01 101.81 73.42 101.96 73.41 101.31"/><polygon points="75.19 100.86 75.78 100.71 75.79 101.36 75.2 101.51 75.19 100.86"/><polygon points="78.15 100.11 78.75 99.96 78.75 100.61 78.16 100.76 78.15 100.11"/><polygon points="78.75 99.96 79.34 99.81 79.34 100.47 78.75 100.61 78.75 99.96"/><polygon points="79.34 99.81 79.93 99.67 79.94 100.32 79.34 100.47 79.34 99.81"/><polygon points="79.93 99.67 80.52 99.52 80.53 100.17 79.94 100.32 79.93 99.67"/><polygon points="80.52 99.52 81.11 99.37 81.12 100.02 80.53 100.17 80.52 99.52"/><polygon points="81.11 99.37 81.71 99.22 81.71 99.87 81.12 100.02 81.11 99.37"/><polygon points="82.3 99.07 82.89 98.92 82.9 99.57 82.3 99.72 82.3 99.07"/><polygon points="83.48 98.77 84.08 98.62 84.08 99.27 83.49 99.42 83.48 98.77"/><polygon points="84.67 98.47 85.26 98.32 85.27 98.97 84.67 99.12 84.67 98.47"/><polygon points="85.26 98.32 85.85 98.17 85.86 98.82 85.27 98.97 85.26 98.32"/><polygon points="86.44 98.02 87.04 97.87 87.04 98.52 86.45 98.67 86.44 98.02"/><polygon points="68.09 103.3 68.68 103.15 68.69 103.8 68.09 103.95 68.09 103.3"/><polygon points="68.68 103.15 69.27 103 69.28 103.65 68.69 103.8 68.68 103.15"/><polygon points="70.46 102.7 71.05 102.56 71.06 103.21 70.46 103.36 70.46 102.7"/><polygon points="71.05 102.56 71.64 102.41 71.65 103.06 71.06 103.21 71.05 102.56"/><polygon points="72.23 102.26 72.83 102.11 72.83 102.76 72.24 102.91 72.23 102.26"/><polygon points="72.83 102.11 73.42 101.96 73.42 102.61 72.83 102.76 72.83 102.11"/><polygon points="73.42 101.96 74.01 101.81 74.02 102.46 73.42 102.61 73.42 101.96"/><polygon points="74.01 101.81 74.6 101.66 74.61 102.31 74.02 102.46 74.01 101.81"/><polygon points="76.97 101.06 77.56 100.91 77.57 101.56 76.98 101.71 76.97 101.06"/><polygon points="77.56 100.91 78.16 100.76 78.16 101.41 77.57 101.56 77.56 100.91"/><polygon points="78.75 100.61 79.34 100.47 79.35 101.12 78.76 101.27 78.75 100.61"/><polygon points="79.94 100.32 80.53 100.17 80.53 100.82 79.94 100.97 79.94 100.32"/><polygon points="81.12 100.02 81.71 99.87 81.72 100.52 81.13 100.67 81.12 100.02"/><polygon points="81.71 99.87 82.3 99.72 82.31 100.37 81.72 100.52 81.71 99.87"/><polygon points="82.3 99.72 82.9 99.57 82.9 100.22 82.31 100.37 82.3 99.72"/><polygon points="85.27 98.97 85.86 98.82 85.86 99.47 85.27 99.62 85.27 98.97"/><polygon points="85.86 98.82 86.45 98.67 86.46 99.32 85.86 99.47 85.86 98.82"/><polygon points="86.45 98.67 87.04 98.52 87.05 99.17 86.46 99.32 86.45 98.67"/><polygon points="68.09 103.95 68.69 103.8 68.69 104.45 68.1 104.6 68.09 103.95"/><polygon points="69.28 103.65 69.87 103.5 69.88 104.16 69.28 104.3 69.28 103.65"/><polygon points="69.87 103.5 70.46 103.36 70.47 104 69.88 104.16 69.87 103.5"/><polygon points="70.46 103.36 71.06 103.21 71.06 103.86 70.47 104 70.46 103.36"/><polygon points="71.65 103.06 72.24 102.91 72.25 103.56 71.65 103.71 71.65 103.06"/><polygon points="72.24 102.91 72.83 102.76 72.84 103.41 72.25 103.56 72.24 102.91"/><polygon points="74.02 102.46 74.61 102.31 74.61 102.96 74.02 103.11 74.02 102.46"/><polygon points="75.2 102.16 75.79 102.01 75.8 102.66 75.21 102.81 75.2 102.16"/><polygon points="75.79 102.01 76.39 101.86 76.39 102.51 75.8 102.66 75.79 102.01"/><polygon points="76.98 101.71 77.57 101.56 77.58 102.21 76.98 102.36 76.98 101.71"/><polygon points="77.57 101.56 78.16 101.41 78.17 102.06 77.58 102.21 77.57 101.56"/><polygon points="78.16 101.41 78.76 101.27 78.76 101.92 78.17 102.06 78.16 101.41"/><polygon points="79.94 100.97 80.53 100.82 80.54 101.47 79.95 101.62 79.94 100.97"/><polygon points="80.53 100.82 81.13 100.67 81.13 101.32 80.54 101.47 80.53 100.82"/><polygon points="81.13 100.67 81.72 100.52 81.72 101.17 81.13 101.32 81.13 100.67"/><polygon points="81.72 100.52 82.31 100.37 82.32 101.02 81.72 101.17 81.72 100.52"/><polygon points="82.31 100.37 82.9 100.22 82.91 100.87 82.32 101.02 82.31 100.37"/><polygon points="82.9 100.22 83.5 100.07 83.5 100.72 82.91 100.87 82.9 100.22"/><polygon points="84.09 99.92 84.68 99.77 84.69 100.42 84.09 100.57 84.09 99.92"/><polygon points="85.27 99.62 85.86 99.47 85.87 100.12 85.28 100.27 85.27 99.62"/><polygon points="86.46 99.32 87.05 99.17 87.06 99.83 86.46 99.97 86.46 99.32"/><polygon points="68.69 104.45 69.28 104.3 69.29 104.95 68.7 105.1 68.69 104.45"/><polygon points="69.28 104.3 69.88 104.16 69.88 104.81 69.29 104.95 69.28 104.3"/><polygon points="70.47 104 71.06 103.86 71.07 104.51 70.47 104.66 70.47 104"/><polygon points="72.25 103.56 72.84 103.41 72.84 104.06 72.25 104.21 72.25 103.56"/><polygon points="74.02 103.11 74.61 102.96 74.62 103.61 74.03 103.76 74.02 103.11"/><polygon points="75.21 102.81 75.8 102.66 75.81 103.31 75.21 103.46 75.21 102.81"/><polygon points="75.8 102.66 76.39 102.51 76.4 103.16 75.81 103.31 75.8 102.66"/><polygon points="76.98 102.36 77.58 102.21 77.58 102.86 76.99 103.01 76.98 102.36"/><polygon points="78.17 102.06 78.76 101.92 78.77 102.57 78.17 102.72 78.17 102.06"/><polygon points="78.76 101.92 79.35 101.77 79.36 102.42 78.77 102.57 78.76 101.92"/><polygon points="79.95 101.62 80.54 101.47 80.54 102.12 79.95 102.27 79.95 101.62"/><polygon points="80.54 101.47 81.13 101.32 81.14 101.97 80.54 102.12 80.54 101.47"/><polygon points="82.32 101.02 82.91 100.87 82.91 101.52 82.32 101.67 82.32 101.02"/><polygon points="82.91 100.87 83.5 100.72 83.51 101.37 82.91 101.52 82.91 100.87"/><polygon points="83.5 100.72 84.09 100.57 84.1 101.22 83.51 101.37 83.5 100.72"/><polygon points="84.09 100.57 84.69 100.42 84.69 101.07 84.1 101.22 84.09 100.57"/><polygon points="86.46 99.97 87.06 99.83 87.06 100.48 86.47 100.63 86.46 99.97"/><polygon points="68.1 105.25 68.7 105.1 68.7 105.75 68.11 105.9 68.1 105.25"/><polygon points="69.29 104.95 69.88 104.81 69.89 105.45 69.3 105.61 69.29 104.95"/><polygon points="71.07 104.51 71.66 104.36 71.66 105.01 71.07 105.16 71.07 104.51"/><polygon points="71.66 104.36 72.25 104.21 72.26 104.86 71.66 105.01 71.66 104.36"/><polygon points="72.25 104.21 72.84 104.06 72.85 104.71 72.26 104.86 72.25 104.21"/><polygon points="73.44 103.91 74.03 103.76 74.03 104.41 73.44 104.56 73.44 103.91"/><polygon points="74.62 103.61 75.21 103.46 75.22 104.11 74.63 104.26 74.62 103.61"/><polygon points="75.81 103.31 76.4 103.16 76.4 103.81 75.81 103.96 75.81 103.31"/><polygon points="76.4 103.16 76.99 103.01 77 103.66 76.4 103.81 76.4 103.16"/><polygon points="78.77 102.57 79.36 102.42 79.36 103.07 78.77 103.22 78.77 102.57"/><polygon points="79.36 102.42 79.95 102.27 79.96 102.92 79.36 103.07 79.36 102.42"/><polygon points="79.95 102.27 80.54 102.12 80.55 102.77 79.96 102.92 79.95 102.27"/><polygon points="83.51 101.37 84.1 101.22 84.1 101.87 83.51 102.02 83.51 101.37"/><polygon points="84.1 101.22 84.69 101.07 84.7 101.72 84.1 101.87 84.1 101.22"/><polygon points="84.69 101.07 85.28 100.92 85.29 101.57 84.7 101.72 84.69 101.07"/><polygon points="85.28 100.92 85.88 100.77 85.88 101.42 85.29 101.57 85.28 100.92"/><polygon points="68.11 105.9 68.7 105.75 68.71 106.4 68.12 106.55 68.11 105.9"/><polygon points="69.89 105.45 70.48 105.31 70.48 105.96 69.89 106.11 69.89 105.45"/><polygon points="71.07 105.16 71.66 105.01 71.67 105.66 71.08 105.81 71.07 105.16"/><polygon points="75.22 104.11 75.81 103.96 75.82 104.61 75.22 104.76 75.22 104.11"/><polygon points="77.59 103.52 78.18 103.36 78.19 104.02 77.59 104.17 77.59 103.52"/><polygon points="78.18 103.36 78.77 103.22 78.78 103.87 78.19 104.02 78.18 103.36"/><polygon points="79.36 103.07 79.96 102.92 79.96 103.57 79.37 103.72 79.36 103.07"/><polygon points="81.14 102.62 81.73 102.47 81.74 103.12 81.15 103.27 81.14 102.62"/><polygon points="83.51 102.02 84.1 101.87 84.11 102.52 83.52 102.67 83.51 102.02"/><polygon points="85.29 101.57 85.88 101.42 85.89 102.08 85.29 102.22 85.29 101.57"/><polygon points="85.88 101.42 86.47 101.28 86.48 101.93 85.89 102.08 85.88 101.42"/><polygon points="86.47 101.28 87.07 101.13 87.07 101.78 86.48 101.93 86.47 101.28"/><polygon points="70.48 105.96 71.08 105.81 71.08 106.46 70.49 106.61 70.48 105.96"/><polygon points="71.08 105.81 71.67 105.66 71.68 106.31 71.08 106.46 71.08 105.81"/><polygon points="71.67 105.66 72.26 105.51 72.27 106.16 71.68 106.31 71.67 105.66"/><polygon points="72.26 105.51 72.86 105.36 72.86 106.01 72.27 106.16 72.26 105.51"/><polygon points="74.63 104.91 75.22 104.76 75.23 105.41 74.64 105.56 74.63 104.91"/><polygon points="75.22 104.76 75.82 104.61 75.82 105.26 75.23 105.41 75.22 104.76"/><polygon points="76.41 104.46 77 104.31 77.01 104.97 76.42 105.11 76.41 104.46"/><polygon points="77.59 104.17 78.19 104.02 78.19 104.67 77.6 104.81 77.59 104.17"/><polygon points="78.78 103.87 79.37 103.72 79.38 104.37 78.78 104.52 78.78 103.87"/><polygon points="79.37 103.72 79.96 103.57 79.97 104.22 79.38 104.37 79.37 103.72"/><polygon points="80.56 103.42 81.15 103.27 81.15 103.92 80.56 104.07 80.56 103.42"/><polygon points="81.74 103.12 82.33 102.97 82.34 103.62 81.75 103.77 81.74 103.12"/><polygon points="82.33 102.97 82.92 102.82 82.93 103.47 82.34 103.62 82.33 102.97"/><polygon points="82.92 102.82 83.52 102.67 83.52 103.32 82.93 103.47 82.92 102.82"/><polygon points="85.89 102.08 86.48 101.93 86.48 102.58 85.89 102.72 85.89 102.08"/><polygon points="86.48 101.93 87.07 101.78 87.08 102.43 86.48 102.58 86.48 101.93"/><polygon points="69.9 106.76 70.49 106.61 70.5 107.26 69.9 107.41 69.9 106.76"/><polygon points="70.49 106.61 71.08 106.46 71.09 107.11 70.5 107.26 70.49 106.61"/><polygon points="71.08 106.46 71.68 106.31 71.68 106.96 71.09 107.11 71.08 106.46"/><polygon points="72.27 106.16 72.86 106.01 72.87 106.66 72.27 106.81 72.27 106.16"/><polygon points="72.86 106.01 73.45 105.86 73.46 106.51 72.87 106.66 72.86 106.01"/><polygon points="74.05 105.71 74.64 105.56 74.64 106.21 74.05 106.36 74.05 105.71"/><polygon points="75.82 105.26 76.42 105.11 76.42 105.76 75.83 105.91 75.82 105.26"/><polygon points="78.19 104.67 78.78 104.52 78.79 105.17 78.2 105.32 78.19 104.67"/><polygon points="78.78 104.52 79.38 104.37 79.38 105.02 78.79 105.17 78.78 104.52"/><polygon points="79.38 104.37 79.97 104.22 79.97 104.87 79.38 105.02 79.38 104.37"/><polygon points="79.97 104.22 80.56 104.07 80.57 104.72 79.97 104.87 79.97 104.22"/><polygon points="80.56 104.07 81.15 103.92 81.16 104.57 80.57 104.72 80.56 104.07"/><polygon points="81.15 103.92 81.75 103.77 81.75 104.42 81.16 104.57 81.15 103.92"/><polygon points="82.93 103.47 83.52 103.32 83.53 103.97 82.94 104.12 82.93 103.47"/><polygon points="83.52 103.32 84.11 103.17 84.12 103.82 83.53 103.97 83.52 103.32"/><polygon points="84.71 103.02 85.3 102.88 85.31 103.53 84.71 103.67 84.71 103.02"/><polygon points="85.3 102.88 85.89 102.72 85.9 103.38 85.31 103.53 85.3 102.88"/><polygon points="86.48 102.58 87.08 102.43 87.08 103.08 86.49 103.23 86.48 102.58"/><polygon points="87.08 102.43 87.67 102.28 87.67 102.93 87.08 103.08 87.08 102.43"/><polygon points="68.13 107.85 68.72 107.7 68.72 108.36 68.13 108.5 68.13 107.85"/><polygon points="68.72 107.7 69.31 107.56 69.32 108.21 68.72 108.36 68.72 107.7"/><polygon points="69.31 107.56 69.9 107.41 69.91 108.06 69.32 108.21 69.31 107.56"/><polygon points="70.5 107.26 71.09 107.11 71.09 107.76 70.5 107.91 70.5 107.26"/><polygon points="71.68 106.96 72.27 106.81 72.28 107.46 71.69 107.61 71.68 106.96"/><polygon points="72.27 106.81 72.87 106.66 72.87 107.31 72.28 107.46 72.27 106.81"/><polygon points="74.05 106.36 74.64 106.21 74.65 106.86 74.06 107.01 74.05 106.36"/><polygon points="74.64 106.21 75.23 106.06 75.24 106.71 74.65 106.86 74.64 106.21"/><polygon points="75.83 105.91 76.42 105.76 76.43 106.42 75.83 106.56 75.83 105.91"/><polygon points="76.42 105.76 77.01 105.61 77.02 106.27 76.43 106.42 76.42 105.76"/><polygon points="77.01 105.61 77.61 105.47 77.61 106.12 77.02 106.27 77.01 105.61"/><polygon points="77.61 105.47 78.2 105.32 78.2 105.97 77.61 106.12 77.61 105.47"/><polygon points="78.2 105.32 78.79 105.17 78.8 105.82 78.2 105.97 78.2 105.32"/><polygon points="79.97 104.87 80.57 104.72 80.57 105.37 79.98 105.52 79.97 104.87"/><polygon points="80.57 104.72 81.16 104.57 81.17 105.22 80.57 105.37 80.57 104.72"/><polygon points="81.16 104.57 81.75 104.42 81.76 105.07 81.17 105.22 81.16 104.57"/><polygon points="82.34 104.27 82.94 104.12 82.94 104.77 82.35 104.92 82.34 104.27"/><polygon points="82.94 104.12 83.53 103.97 83.53 104.62 82.94 104.77 82.94 104.12"/><polygon points="83.53 103.97 84.12 103.82 84.13 104.47 83.53 104.62 83.53 103.97"/><polygon points="84.12 103.82 84.71 103.67 84.72 104.33 84.13 104.47 84.12 103.82"/><polygon points="84.71 103.67 85.31 103.53 85.31 104.18 84.72 104.33 84.71 103.67"/><polygon points="85.31 103.53 85.9 103.38 85.9 104.03 85.31 104.18 85.31 103.53"/><polygon points="86.49 103.23 87.08 103.08 87.09 103.73 86.5 103.88 86.49 103.23"/><polygon points="72.87 107.31 73.46 107.16 73.47 107.81 72.88 107.96 72.87 107.31"/><polygon points="74.06 107.01 74.65 106.86 74.65 107.51 74.06 107.66 74.06 107.01"/><polygon points="74.65 106.86 75.24 106.71 75.25 107.36 74.65 107.51 74.65 106.86"/><polygon points="75.83 106.56 76.43 106.42 76.43 107.06 75.84 107.22 75.83 106.56"/><polygon points="76.43 106.42 77.02 106.27 77.02 106.92 76.43 107.06 76.43 106.42"/><polygon points="77.02 106.27 77.61 106.12 77.62 106.77 77.02 106.92 77.02 106.27"/><polygon points="77.61 106.12 78.2 105.97 78.21 106.62 77.62 106.77 77.61 106.12"/><polygon points="78.2 105.97 78.8 105.82 78.8 106.47 78.21 106.62 78.2 105.97"/><polygon points="80.57 105.37 81.17 105.22 81.17 105.87 80.58 106.02 80.57 105.37"/><polygon points="81.17 105.22 81.76 105.07 81.76 105.72 81.17 105.87 81.17 105.22"/><polygon points="81.76 105.07 82.35 104.92 82.36 105.57 81.76 105.72 81.76 105.07"/><polygon points="82.35 104.92 82.94 104.77 82.95 105.42 82.36 105.57 82.35 104.92"/><polygon points="84.72 104.33 85.31 104.18 85.32 104.83 84.72 104.97 84.72 104.33"/><polygon points="85.9 104.03 86.5 103.88 86.5 104.53 85.91 104.68 85.9 104.03"/><polygon points="72.88 107.96 73.47 107.81 73.47 108.46 72.88 108.61 72.88 107.96"/><polygon points="73.47 107.81 74.06 107.66 74.07 108.31 73.47 108.46 73.47 107.81"/><polygon points="74.06 107.66 74.65 107.51 74.66 108.16 74.07 108.31 74.06 107.66"/><polygon points="76.43 107.06 77.02 106.92 77.03 107.57 76.44 107.72 76.43 107.06"/><polygon points="77.02 106.92 77.62 106.77 77.62 107.42 77.03 107.57 77.02 106.92"/><polygon points="78.8 106.47 79.39 106.32 79.4 106.97 78.81 107.12 78.8 106.47"/><polygon points="82.36 105.57 82.95 105.42 82.95 106.07 82.36 106.22 82.36 105.57"/><polygon points="83.54 105.27 84.13 105.12 84.14 105.78 83.55 105.92 83.54 105.27"/><polygon points="84.72 104.97 85.32 104.83 85.32 105.48 84.73 105.63 84.72 104.97"/><polygon points="85.32 104.83 85.91 104.68 85.92 105.33 85.32 105.48 85.32 104.83"/><polygon points="74.66 108.16 75.25 108.01 75.26 108.67 74.67 108.81 74.66 108.16"/><polygon points="76.44 107.72 77.03 107.57 77.03 108.22 76.44 108.37 76.44 107.72"/><polygon points="77.03 107.57 77.62 107.42 77.63 108.07 77.03 108.22 77.03 107.57"/><polygon points="77.62 107.42 78.21 107.27 78.22 107.92 77.63 108.07 77.62 107.42"/><polygon points="79.4 106.97 79.99 106.82 80 107.47 79.41 107.62 79.4 106.97"/><polygon points="81.18 106.52 81.77 106.37 81.77 107.02 81.18 107.17 81.18 106.52"/><polygon points="82.36 106.22 82.95 106.07 82.96 106.72 82.37 106.87 82.36 106.22"/><polygon points="84.73 105.63 85.32 105.48 85.33 106.13 84.74 106.28 84.73 105.63"/><polygon points="87.1 105.03 87.69 104.88 87.7 105.53 87.11 105.68 87.1 105.03"/><polygon points="72.89 109.26 73.48 109.11 73.49 109.76 72.89 109.91 72.89 109.26"/><polygon points="74.67 108.81 75.26 108.67 75.26 109.31 74.67 109.46 74.67 108.81"/><polygon points="75.26 108.67 75.85 108.52 75.86 109.17 75.26 109.31 75.26 108.67"/><polygon points="75.85 108.52 76.44 108.37 76.45 109.02 75.86 109.17 75.85 108.52"/><polygon points="76.44 108.37 77.03 108.22 77.04 108.87 76.45 109.02 76.44 108.37"/><polygon points="77.63 108.07 78.22 107.92 78.22 108.57 77.63 108.72 77.63 108.07"/><polygon points="79.41 107.62 80 107.47 80 108.12 79.41 108.27 79.41 107.62"/><polygon points="81.18 107.17 81.77 107.02 81.78 107.67 81.19 107.82 81.18 107.17"/><polygon points="82.37 106.87 82.96 106.72 82.96 107.37 82.37 107.52 82.37 106.87"/><polygon points="82.96 106.72 83.55 106.58 83.56 107.22 82.96 107.37 82.96 106.72"/><polygon points="83.55 106.58 84.14 106.42 84.15 107.08 83.56 107.22 83.55 106.58"/><polygon points="84.14 106.42 84.74 106.28 84.74 106.93 84.15 107.08 84.14 106.42"/><polygon points="84.74 106.28 85.33 106.13 85.33 106.78 84.74 106.93 84.74 106.28"/><polygon points="85.33 106.13 85.92 105.98 85.93 106.63 85.33 106.78 85.33 106.13"/><polygon points="87.11 105.68 87.7 105.53 87.7 106.18 87.11 106.33 87.11 105.68"/><polygon points="73.49 109.76 74.08 109.61 74.08 110.26 73.49 110.41 73.49 109.76"/><polygon points="74.08 109.61 74.67 109.46 74.68 110.11 74.08 110.26 74.08 109.61"/><polygon points="75.26 109.31 75.86 109.17 75.86 109.82 75.27 109.97 75.26 109.31"/><polygon points="75.86 109.17 76.45 109.02 76.45 109.67 75.86 109.82 75.86 109.17"/><polygon points="78.82 108.42 79.41 108.27 79.42 108.92 78.82 109.07 78.82 108.42"/><polygon points="79.41 108.27 80 108.12 80.01 108.77 79.42 108.92 79.41 108.27"/><polygon points="80 108.12 80.59 107.97 80.6 108.62 80.01 108.77 80 108.12"/><polygon points="81.78 107.67 82.37 107.52 82.38 108.17 81.78 108.32 81.78 107.67"/><polygon points="83.56 107.22 84.15 107.08 84.16 107.73 83.56 107.88 83.56 107.22"/><polygon points="84.15 107.08 84.74 106.93 84.75 107.58 84.16 107.73 84.15 107.08"/><polygon points="84.74 106.93 85.33 106.78 85.34 107.43 84.75 107.58 84.74 106.93"/><polygon points="85.33 106.78 85.93 106.63 85.93 107.28 85.34 107.43 85.33 106.78"/><polygon points="85.93 106.63 86.52 106.48 86.52 107.13 85.93 107.28 85.93 106.63"/><polygon points="86.52 106.48 87.11 106.33 87.12 106.98 86.52 107.13 86.52 106.48"/><polygon points="73.49 110.41 74.08 110.26 74.09 110.91 73.5 111.06 73.49 110.41"/><polygon points="75.27 109.97 75.86 109.82 75.87 110.47 75.28 110.62 75.27 109.97"/><polygon points="76.45 109.67 77.05 109.52 77.05 110.17 76.46 110.32 76.45 109.67"/><polygon points="77.05 109.52 77.64 109.37 77.64 110.02 77.05 110.17 77.05 109.52"/><polygon points="78.82 109.07 79.42 108.92 79.42 109.57 78.83 109.72 78.82 109.07"/><polygon points="80.01 108.77 80.6 108.62 80.61 109.27 80.01 109.42 80.01 108.77"/><polygon points="80.6 108.62 81.19 108.47 81.2 109.12 80.61 109.27 80.6 108.62"/><polygon points="82.97 108.03 83.56 107.88 83.57 108.53 82.98 108.67 82.97 108.03"/><polygon points="83.56 107.88 84.16 107.73 84.16 108.38 83.57 108.53 83.56 107.88"/><polygon points="84.16 107.73 84.75 107.58 84.75 108.23 84.16 108.38 84.16 107.73"/><polygon points="84.75 107.58 85.34 107.43 85.34 108.08 84.75 108.23 84.75 107.58"/><polygon points="85.34 107.43 85.93 107.28 85.94 107.93 85.34 108.08 85.34 107.43"/><polygon points="74.68 110.77 75.28 110.62 75.28 111.27 74.69 111.42 74.68 110.77"/><polygon points="75.28 110.62 75.87 110.47 75.87 111.12 75.28 111.27 75.28 110.62"/><polygon points="75.87 110.47 76.46 110.32 76.47 110.97 75.87 111.12 75.87 110.47"/><polygon points="77.05 110.17 77.64 110.02 77.65 110.67 77.06 110.82 77.05 110.17"/><polygon points="77.64 110.02 78.24 109.87 78.24 110.52 77.65 110.67 77.64 110.02"/><polygon points="78.24 109.87 78.83 109.72 78.83 110.37 78.24 110.52 78.24 109.87"/><polygon points="78.83 109.72 79.42 109.57 79.43 110.22 78.83 110.37 78.83 109.72"/><polygon points="80.61 109.27 81.2 109.12 81.2 109.77 80.61 109.92 80.61 109.27"/><polygon points="81.79 108.97 82.38 108.82 82.39 109.47 81.8 109.62 81.79 108.97"/><polygon points="82.38 108.82 82.98 108.67 82.98 109.33 82.39 109.47 82.38 108.82"/><polygon points="83.57 108.53 84.16 108.38 84.17 109.03 83.57 109.18 83.57 108.53"/><polygon points="72.91 111.86 73.5 111.71 73.51 112.36 72.92 112.51 72.91 111.86"/><polygon points="74.1 111.56 74.69 111.42 74.69 112.07 74.1 112.22 74.1 111.56"/><polygon points="78.24 110.52 78.83 110.37 78.84 111.02 78.25 111.17 78.24 110.52"/><polygon points="79.43 110.22 80.02 110.07 80.03 110.72 79.43 110.87 79.43 110.22"/><polygon points="80.02 110.07 80.61 109.92 80.62 110.57 80.03 110.72 80.02 110.07"/><polygon points="80.61 109.92 81.2 109.77 81.21 110.42 80.62 110.57 80.61 109.92"/><polygon points="81.2 109.77 81.8 109.62 81.8 110.28 81.21 110.42 81.2 109.77"/><polygon points="81.8 109.62 82.39 109.47 82.39 110.13 81.8 110.28 81.8 109.62"/><polygon points="82.39 109.47 82.98 109.33 82.99 109.98 82.39 110.13 82.39 109.47"/><polygon points="82.98 109.33 83.57 109.18 83.58 109.83 82.99 109.98 82.98 109.33"/><polygon points="83.57 109.18 84.17 109.03 84.17 109.68 83.58 109.83 83.57 109.18"/><polygon points="85.35 108.73 85.94 108.58 85.95 109.23 85.36 109.38 85.35 108.73"/><polygon points="87.13 108.28 87.72 108.13 87.73 108.78 87.13 108.93 87.13 108.28"/><polygon class="cls-1" points="68.62 92.77 71.52 92.04 71.55 95.23 68.65 95.96 68.62 92.77"/><path d="M71.52,91.36l-2.91.73-.62.15v.69l0,3.18v.69l.62-.16,2.91-.73.62-.16v-.68l0-3.19V91.2Zm0,3.87-2.9.73,0-3.19,2.9-.73Z"/><polygon class="cls-1" points="84.02 88.89 86.92 88.16 86.95 91.34 84.05 92.08 84.02 88.89"/><path d="M86.92,87.47l-2.9.74-.63.15v.69l0,3.18v.69l.62-.16L87,92l.62-.16v-.68l0-3.19v-.68Zm0,3.87-2.9.74,0-3.19,2.9-.73Z"/><polygon class="cls-1" points="68.77 109.68 71.67 108.95 71.7 112.14 68.79 112.87 68.77 109.68"/><path d="M71.66,108.27l-2.9.73-.62.16v.68l0,3.19v.68l.62-.16,2.9-.73.62-.16V112l0-3.19v-.68Zm0,3.87-2.91.73,0-3.19,2.9-.73Z"/><polygon points="69.19 93.25 70.97 92.8 70.98 94.75 69.2 95.2 69.19 93.25"/><polygon points="84.59 89.36 86.37 88.92 86.38 90.87 84.61 91.32 84.59 89.36"/><polygon points="69.33 110.16 71.11 109.71 71.13 111.66 69.35 112.11 69.33 110.16"/><g class="cls-15"><path class="cls-16" d="M98.94,153.85c0,1.3,0,2.6,0,3.89,0,.54-.07.71-.6.85-6.25,1.69-12.49,3.41-18.73,5.12q-14.94,4.11-29.89,8.22c-.6.17-.72.06-.7-.59,0-1.28,0-2.53,0-3.8a2.28,2.28,0,0,0,.39-1.77c0-3.78-.07-7.55-.09-11.33a2.43,2.43,0,0,1,.25-1.52l.35-.1c.26.29.17.75.17,1.15.05,3.88.08,7.77.12,11.66q-.06-5.88-.11-11.76a1.93,1.93,0,0,1,.16-1.14l.69-.19c.26.29.17.74.18,1.14,0,3.89.07,7.78.11,11.67,0-3.92-.07-7.84-.11-11.76a1.92,1.92,0,0,1,.16-1.14l1.38-.38c.35.36.28.94.28,1.47.05,4,.08,8,.17,12a2.94,2.94,0,0,0,.08-1c0-3.71-.07-7.41-.1-11.11a2.55,2.55,0,0,1,.26-1.53l1-.28c.26.29.17.74.18,1.14,0,3.89.07,7.77.11,11.66q0-5.88-.11-11.76a1.93,1.93,0,0,1,.16-1.14l.35-.09c.26.29.17.74.18,1.14,0,3.89.07,7.77.11,11.66q-.06-5.88-.11-11.76a1.93,1.93,0,0,1,.16-1.14l1-.28c.26.29.18.74.18,1.14.05,3.89.08,7.78.12,11.66q-.06-5.87-.11-11.75a1.91,1.91,0,0,1,.16-1.14l.69-.19c.26.29.17.74.17,1.14.05,3.89.08,7.77.12,11.66q-.06-5.88-.11-11.76a1.93,1.93,0,0,1,.16-1.14l.34-.09c.36.36.28.94.29,1.47,0,4,.07,8,.17,11.95a3.3,3.3,0,0,0,.08-1c0-3.7-.08-7.4-.1-11.11a2.44,2.44,0,0,1,.25-1.52l1.38-.38c.35.37.28.95.28,1.47.05,4,.08,8,.17,11.95a2.92,2.92,0,0,0,.08-1c0-3.71-.07-7.41-.1-11.11A2.55,2.55,0,0,1,61,149.8l.68-.19c.27.29.18.75.18,1.15,0,3.88.08,7.77.12,11.66q-.06-5.88-.11-11.76a1.93,1.93,0,0,1,.16-1.14l.34-.1c.26.3.18.75.18,1.15q.06,5.82.11,11.66c0-3.92-.07-7.84-.1-11.76a1.93,1.93,0,0,1,.16-1.14l1.37-.38c.36.37.28,1,.29,1.48,0,4,.07,8,.17,11.95a3,3,0,0,0,.07-1c0-3.7-.07-7.41-.09-11.11a2.47,2.47,0,0,1,.25-1.53l.69-.18c.26.29.17.74.18,1.14,0,3.88.07,7.77.11,11.66,0-3.92-.07-7.84-.1-11.76a1.85,1.85,0,0,1,.15-1.14l.35-.09c.26.29.17.74.18,1.14,0,3.89.07,7.77.11,11.66q-.06-5.88-.11-11.76a1.93,1.93,0,0,1,.16-1.14l1.38-.38c.26.29.17.75.18,1.15,0,3.88.07,7.77.11,11.66Q68.07,154.84,68,149a1.93,1.93,0,0,1,.16-1.14l1-.28c.34.33.28.87.29,1.37,0,3.76.06,7.53.12,11.28,0,.45-.21,1.3.41,1.12s.4-.89.39-1.34c0-3.77-.06-7.52-.09-11.29a2.52,2.52,0,0,1,.26-1.52l.34-.1c.27.29.18.75.18,1.15,0,3.88.08,7.77.12,11.66q-.06-5.88-.11-11.76a1.93,1.93,0,0,1,.16-1.14l.34-.09c.36.36.28.94.29,1.47,0,4,.07,8,.17,12a3,3,0,0,0,.07-1c0-3.7-.07-7.4-.1-11.11a2.52,2.52,0,0,1,.26-1.52l.34-.1c.36.37.28.95.29,1.48,0,4,.07,8,.17,12a3.3,3.3,0,0,0,.08-1c0-3.7-.07-7.41-.1-11.11a2.47,2.47,0,0,1,.25-1.53l.69-.19c.35.37.28.95.28,1.48,0,4,.08,8,.18,11.95a3,3,0,0,0,.07-1c0-3.7-.07-7.4-.1-11.11a2.52,2.52,0,0,1,.26-1.52l.69-.19c.33.33.28.88.28,1.38,0,3.73.07,7.47.11,11.2a1.88,1.88,0,0,0,.25,1.26,2.29,2.29,0,0,0,.23-1.39c0-3.74-.07-7.47-.1-11.21a2.55,2.55,0,0,1,.26-1.53l.34-.09c.26.29.18.74.18,1.14l.12,11.66Q77,152.39,77,146.51a1.91,1.91,0,0,1,.16-1.14l1-.29c.35.37.28.95.28,1.47,0,4,.08,8,.18,12a3.29,3.29,0,0,0,.07-1c0-3.7-.07-7.41-.1-11.11a2.55,2.55,0,0,1,.26-1.53l.34-.09c.26.29.18.74.18,1.14q.06,5.84.11,11.66c0-3.92-.07-7.83-.1-11.75a1.88,1.88,0,0,1,.16-1.15l.34-.09c.35.36.28.94.28,1.47,0,4,.08,8,.18,11.95a3.2,3.2,0,0,0,.07-1c0-3.71-.07-7.41-.1-11.11a2.55,2.55,0,0,1,.26-1.53l.69-.19c.26.29.17.74.17,1.15,0,3.88.08,7.77.12,11.66q-.06-5.88-.11-11.76a1.92,1.92,0,0,1,.16-1.14l1.38-.38c.35.36.27.94.28,1.47,0,4,.08,8,.17,12a2.92,2.92,0,0,0,.08-1c0-3.71-.07-7.41-.1-11.11a2.62,2.62,0,0,1,.25-1.53l.69-.19c.26.29.18.74.18,1.15q.06,5.82.11,11.66c0-3.92-.07-7.84-.1-11.76a1.92,1.92,0,0,1,.16-1.14l.34-.1c.26.29.17.75.18,1.15q.06,5.82.11,11.66c0-3.92-.07-7.84-.1-11.76a1.85,1.85,0,0,1,.15-1.14l1.38-.38c.26.29.18.74.18,1.15q.06,5.82.11,11.66c0-3.92-.07-7.84-.1-11.76a1.78,1.78,0,0,1,.16-1.14l.68-.19c.34.34.28.87.29,1.37,0,3.76.06,7.53.12,11.28,0,.45-.21,1.3.41,1.13s.4-.9.39-1.35c0-3.76-.06-7.52-.09-11.29a2.53,2.53,0,0,1,.26-1.52l.34-.09c.27.29.18.74.18,1.14,0,3.89.08,7.77.12,11.66q-.06-5.88-.11-11.76a1.93,1.93,0,0,1,.16-1.14l.69-.19c.33.34.27.88.28,1.38,0,3.73.07,7.47.11,11.21a1.85,1.85,0,0,0,.25,1.25,2.27,2.27,0,0,0,.23-1.39c0-3.73-.07-7.47-.1-11.2a2.55,2.55,0,0,1,.26-1.53l.34-.09c.36.36.28.94.29,1.47,0,4,.07,8,.17,11.95a3,3,0,0,0,.07-1c0-3.7-.07-7.4-.1-11.11a2.52,2.52,0,0,1,.26-1.52L93,141c.27.29.18.74.18,1.15.05,3.88.08,7.77.12,11.66q-.06-5.88-.11-11.76a1.92,1.92,0,0,1,.16-1.14l1-.29c.35.37.28,1,.28,1.48,0,4,.08,8,.18,11.95a3,3,0,0,0,.07-1c0-3.7-.07-7.4-.1-11.11a2.52,2.52,0,0,1,.26-1.52l1-.29c.34.34.28.88.28,1.38,0,3.73.07,7.47.12,11.2a1.81,1.81,0,0,0,.24,1.26,2.14,2.14,0,0,0,.23-1.39c0-3.73-.07-7.47-.09-11.2a2.47,2.47,0,0,1,.25-1.53l.35-.09c.26.29.17.74.18,1.14,0,3.88.07,7.77.11,11.66q-.06-5.88-.11-11.76a1.93,1.93,0,0,1,.16-1.14l.35-.09c.33.33.27.87.28,1.37,0,3.77.07,7.55.11,11.33C98.52,152.89,98.43,153.55,98.94,153.85Z"/><path d="M70.59,147.16q.06,6.79.14,13.58c0,.58,0,.89-.69,1.08s-.71-.12-.71-.7c0-4.53-.07-9.06-.12-13.58Z"/><path d="M89.17,142.06q.06,6.8.14,13.58c0,.58,0,.89-.69,1.08s-.71-.12-.71-.7c0-4.53-.07-9.05-.12-13.58Z"/><path d="M76.44,145.55q.06,6.82.13,13.64c0,.42.12.82-.56,1s-.47-.35-.47-.7q-.08-6.81-.13-13.63Z"/><path d="M97.08,139.89q.08,6.81.13,13.63c0,.43.12.82-.55,1s-.47-.36-.48-.71q-.08-6.81-.13-13.63Z"/><path d="M91.58,141.4q.06,6.81.13,13.63c0,.43.12.82-.56,1s-.47-.36-.47-.71q-.08-6.81-.13-13.63Z"/><path d="M49.6,152.92q.06,6.84.14,13.69c0,.63-.15.89-.69.93,0-4.56-.07-9.13-.15-13.68C48.89,153.21,49,152.94,49.6,152.92Z"/><path d="M80.57,144.42c0,4.55.09,9.09.11,13.64,0,.29.28.77-.36.9s-.3-.45-.3-.72q-.09-6.81-.14-13.63Z"/><path d="M78.85,144.89c0,4.55.09,9.09.11,13.64,0,.29.27.78-.36.9s-.3-.45-.3-.72q-.09-6.81-.14-13.63Z"/><path d="M53.39,151.88c0,4.54.09,9.09.11,13.64,0,.29.27.77-.36.9s-.3-.45-.3-.72q-.09-6.81-.14-13.63Z"/><path d="M61,149.8c0,4.55.09,9.09.11,13.64,0,.29.27.78-.37.9s-.29-.45-.29-.72q-.09-6.81-.14-13.63Z"/><path d="M83.66,143.57q.07,6.83.12,13.64c0,.29.27.77-.37.9s-.29-.45-.29-.72Q83,150.58,83,143.76Z"/><path d="M92.61,141.12c0,4.54.09,9.09.12,13.63,0,.29.27.78-.37.9s-.29-.44-.3-.71q-.09-6.81-.14-13.63Z"/><path d="M95,140.46c0,4.54.09,9.08.11,13.63,0,.29.28.78-.36.9s-.3-.45-.3-.71q-.09-6.81-.14-13.64Z"/><path d="M58.89,150.37c0,4.54.09,9.09.12,13.64,0,.29.27.77-.37.9s-.29-.45-.3-.72c-.06-4.54-.09-9.09-.14-13.63Z"/><path d="M98.94,153.85c-.54.26-.71.09-.71-.55,0-4.57-.07-9.13-.11-13.69.58-.31.71-.09.71.56C98.84,144.74,98.9,149.29,98.94,153.85Z"/><path d="M64.74,148.76c0,4.55.09,9.09.12,13.64,0,.29.27.78-.37.9s-.29-.45-.3-.72c-.06-4.54-.09-9.08-.14-13.63Z"/><path d="M74.72,146c0,4.54.09,9.08.11,13.63,0,.29.28.78-.36.9s-.3-.45-.3-.71Q74.08,153,74,146.21Z"/><path d="M72.31,146.69c0,4.54.09,9.09.12,13.63,0,.3.27.78-.37.9s-.29-.44-.3-.71q-.09-6.81-.14-13.63Z"/><path d="M73.34,146.4q.07,6.82.12,13.64c0,.29.27.78-.37.9s-.29-.45-.3-.72c-.06-4.54-.09-9.08-.14-13.63Z"/><path d="M50.29,152.73l.14,14.42-.35.1L50,152.82Z"/><path d="M51.32,152.45l.14,14.42-.35.09L51,152.54Z"/><path d="M55.45,151.31l.14,14.42-.35.1-.13-14.42Z"/><path d="M56.83,150.94,57,165.36l-.34.09L56.48,151Z"/><path d="M57.86,150.65,58,165.07l-.34.1-.13-14.42Z"/><path d="M54.76,151.5l.14,14.42-.35.1-.13-14.42Z"/><path d="M81.6,144.14l.14,14.42-.35.09-.13-14.42Z"/><path d="M77.13,145.37l.13,14.42-.34.09-.14-14.42Z"/><path d="M84.7,143.29l.13,14.42-.34.1-.14-14.43Z"/><path d="M85.38,143.1l.14,14.42-.34.1L85,143.19Z"/><path d="M66.46,148.29l.14,14.42-.35.1-.13-14.42Z"/><path d="M65.77,148.48l.14,14.42-.35.1-.13-14.42Z"/><path d="M89.86,141.87,90,156.29l-.34.1L89.51,142Z"/><path d="M62.68,149.33l.13,14.42-.34.1-.14-14.43Z"/><path d="M71.28,147l.13,14.42-.34.1-.14-14.43Z"/><path d="M87.11,142.63l.13,14.42-.34.09-.14-14.42Z"/><path d="M79.54,144.7l.13,14.42-.34.1-.14-14.42Z"/><path d="M62,149.52l.13,14.42-.34.1-.14-14.43Z"/><path d="M97.77,139.7l.14,14.42-.35.1-.13-14.42Z"/><path d="M68.18,147.82l.14,14.42-.35.1-.13-14.43Z"/><path d="M93.3,140.93l.13,14.42-.34.09L93,141Z"/><path class="cls-17" d="M67.83,166.14c-.45-.42.2-1.61-.94-1.23s-.28,1-.75,1.63a8.73,8.73,0,0,1,0-2.93c.29.4,0,1.34,1,.89.83-.36.19-.92.66-1.39Z"/><path class="cls-18" d="M68.55,164.85c0-.07.07-.19.12-.21.89-.43,1-.52.88-.64-.3-.33-.66.12-1.11.26a1.06,1.06,0,0,1,1-.78c.37-.07.56.12.54.55a1.29,1.29,0,0,0,0,.28c0,1.09-.42,1.51-1.45,1.31-.05-.15,0-.25.14-.35l.47-.27c-.11,0-.23.07-.35.07S68.57,165,68.55,164.85Z"/><path class="cls-19" d="M71.45,165c-.16.08-.32.14-.39-.07a1.07,1.07,0,0,1-.19-.7c0-.26,0-.53,0-.79a3,3,0,0,1,.18-.81c0-.29.09-.48.38-.47A7,7,0,0,1,71.45,165Z"/><path class="cls-19" d="M80.57,161.54c0-.51,0-1,0-1.55,0-.29.13-.4.36-.41a8.7,8.7,0,0,1,0,2.84l-.17,0C80.54,162.21,80.75,161.78,80.57,161.54Z"/><path class="cls-20" d="M81.81,161.78c.16.06.19.2,0,.34a.23.23,0,0,1-.37,0c-.17-.21-.06-.53-.1-.8s.15-.69-.27-.69c-.1-.1,0-.21,0-.32.32-.15.12-.48.32-.69.19.1,0,.59.42.52.21,0,.07.25-.12.36A1.46,1.46,0,0,0,81.81,161.78Z"/><path class="cls-21" d="M70.42,164.34c0-.44,0-.87,0-1.32,0-.19-.11-.48.15-.59s.19.31.28.47a1.39,1.39,0,0,1,.12.71v.91a1.06,1.06,0,0,1-.1.46c0,.14-.09.25-.24.26C70.39,165,70.61,164.57,70.42,164.34Z"/><path d="M80,161c.15.46.1.8-.5.9-.22,0-.51,0-.67.36-.42,0-.21-.43-.17-.72v0a.39.39,0,0,1,.21-.13,1.38,1.38,0,0,0,.82-.25C79.78,161,79.87,161,80,161Z"/><path class="cls-22" d="M71.45,165l0-2.84c.39.25,0,1,.33,1.23s.24.46,0,.78S71.73,164.77,71.45,165Z"/><path class="cls-23" d="M75.38,163.4a4.08,4.08,0,0,1-.38-2.15,3.18,3.18,0,0,1,.41,1.7A.36.36,0,0,1,75.38,163.4Z"/><path class="cls-24" d="M81.17,160.28a3.06,3.06,0,0,0,0,.32c-.18.62.17,1.18-.21,1.82l0-2.84C81.18,159.67,81,160.11,81.17,160.28Z"/><path class="cls-25" d="M72,163.1c.53-.55,1-1,1.33-.09a.62.62,0,0,1-.22.15c-.35,0-.7.24-1,.24C71.92,163.34,71.86,163.26,72,163.1Z"/><path class="cls-26" d="M73.31,163.94c-.32.78-.58.9-1.33.61a.23.23,0,0,1-.06-.23c.37-.37.79-.23,1.18-.45A.27.27,0,0,1,73.31,163.94Z"/><path class="cls-27" d="M80,161l-.14.2a7.93,7.93,0,0,1-1,.31h-.17C79,160.64,79.47,160.46,80,161Z"/><path class="cls-28" d="M76.25,161.38c0-.31,0-.62.37-.63s0,.52.28.63c-.27.5-.3-.15-.5,0S76.28,161.47,76.25,161.38Z"/><path class="cls-29" d="M78.65,162.65l1.3-.36C79.52,163,79.38,163,78.65,162.65Z"/><path class="cls-30" d="M78,161.37a.84.84,0,0,1-.14-.94c0-.05.28-.12.3-.08C78.29,160.61,78.15,160.92,78,161.37Z"/><path class="cls-31" d="M76.25,161.38h.15c-.27.39.06.89-.48,1.28A2.2,2.2,0,0,1,76.25,161.38Z"/><path class="cls-32" d="M75.38,163.4l0-.45a2.92,2.92,0,0,0,.28.21c.11.07.38,0,.13.31-.09.12-.09.36-.27.35S75.4,163.57,75.38,163.4Z"/><path class="cls-33" d="M70.8,163.66v-.76l.24-.26v.78C71,163.56,70.94,163.66,70.8,163.66Z"/><path class="cls-34" d="M72,164.31l0,.24-.24-.37v-.78l.21-.3a2.44,2.44,0,0,1,.14.28A1,1,0,0,1,72,164.31Z"/><path class="cls-35" d="M73.31,163.94l-.19.05a.79.79,0,0,1,0-1l.16,0C73.58,163.24,73.48,163.58,73.31,163.94Z"/><path class="cls-36" d="M81.81,161.78c-.36-.34-.37-.77,0-1.31A2.89,2.89,0,0,0,81.81,161.78Z"/><path d="M77.43,162.77c0,.19.1.55-.07.57-.38,0-.29-.36-.22-.68a.25.25,0,0,1,.18,0A.28.28,0,0,1,77.43,162.77Z"/><path class="cls-37" d="M68.55,164.85l.17.13a.3.3,0,0,1,0,.37l-.22.27C68.15,165.44,68.44,165.13,68.55,164.85Z"/><path class="cls-38" d="M78.64,161.51c.1.22-.06.57.17.72,0,.28-.2.35-.27.14A.79.79,0,0,1,78.64,161.51Z"/><path class="cls-33" d="M70.82,165v-.4c0-.15,0-.37.24-.4v.76Z"/><path class="cls-39" d="M80.57,161.54c.29.19.12.6.17.9C80.39,162.29,80.6,161.86,80.57,161.54Z"/><path class="cls-40" d="M70.42,164.34c.31.17.12.59.16.9C70.24,165.07,70.46,164.64,70.42,164.34Z"/><path class="cls-41" d="M77.45,162.21l.21-.21c0,.05,0,.1,0,.16a.29.29,0,0,1,0,.18c0,.08-.11.1-.17.06S77.4,162.29,77.45,162.21Z"/><path class="cls-42" d="M77.14,162.47l0-.17v-.13l.2.11a.14.14,0,0,1,0,.18A.09.09,0,0,1,77.14,162.47Z"/><path d="M77.64,162.16a.88.88,0,0,0,0-.16h.13Z"/><path class="cls-43" d="M77.26,162.47l0-.19.15-.07,0,.2-.07.09-.09,0Z"/><path d="M77.1,162.17a.19.19,0,0,0,0,.13c-.08,0-.16.06-.14-.07Z"/><path class="cls-44" d="M77.14,162.47h.12l0,0a.13.13,0,0,1,0,.11s0,.07,0,.07l-.09.06a.25.25,0,0,1-.12,0A.21.21,0,0,1,77.14,162.47Z"/><path class="cls-45" d="M77.49,162.41a.25.25,0,0,0,.12-.07c0,.14,0,.22-.14.25l-.09-.06.06-.12Z"/><path class="cls-46" d="M77.43,162.77l-.17-.09.06-.05q.09-.1.15,0h0A.2.2,0,0,1,77.43,162.77Z"/><path class="cls-47" d="M68.73,165.35c0-.12,0-.25,0-.37a1.41,1.41,0,0,1,.9-.34A.84.84,0,0,1,68.73,165.35Z"/><path class="cls-33" d="M71.06,164.18l-.24.4c0-.31,0-.61,0-.92l.25-.24Z"/><path class="cls-48" d="M78.82,161.48a.85.85,0,0,1,1-.31A.72.72,0,0,1,78.82,161.48Z"/><path class="cls-49" d="M73.13,163a1.84,1.84,0,0,1,0,1c-.38.51-.78.22-1.17.32,0-.31,0-.61.15-.93S72.77,162.83,73.13,163Z"/><path class="cls-50" d="M77.47,162.6l-.15,0v-.19l.13,0Z"/></g><polygon class="cls-2" points="98.95 153.05 49.02 166.75 48.89 153.07 98.82 139.37 98.95 153.05"/></svg>