<svg id="Ebene_1" data-name="Ebene 1" xmlns="http://www.w3.org/2000/svg" xmlns:xlink="http://www.w3.org/1999/xlink" viewBox="0 0 80.18 80.18"><defs><style>.cls-1,.cls-4,.cls-7{fill:none;}.cls-2{fill:#e6f0d9;}.cls-3{clip-path:url(#clip-path);}.cls-10,.cls-4,.cls-8,.cls-9{stroke:#000;}.cls-4,.cls-8,.cls-9{stroke-miterlimit:10;}.cls-5{fill:#49270f;}.cls-6{fill:#663616;}.cls-7{stroke:#006800;stroke-width:2px;}.cls-10,.cls-7{stroke-linecap:round;stroke-linejoin:round;}.cls-8{fill:#ff0c00;}.cls-9{fill:#ffce00;}.cls-10{fill:#4caf50;}.cls-11{opacity:0.53;}</style><clipPath id="clip-path"><rect class="cls-1" width="80.18" height="80.18" rx="10.07"/></clipPath></defs><rect class="cls-2" width="80.18" height="80.18" rx="10.07"/><g class="cls-3"><path class="cls-4" d="M45.54,19.11s2.56-8.54,12.67-6.76c6,1,14.07,4.06,23,6.11"/><rect class="cls-5" y="35.12" width="80.18" height="53"/><rect class="cls-6" y="48.12" width="80.18" height="53"/><path class="cls-7" d="M27.22,36.12a15.53,15.53,0,0,0-5.45,11.34c-.11,7.22-3.11,4.89-3.89,7.89"/><path class="cls-7" d="M29.55,51.79c.86-1.64.12-2.47-.59-3.9a9.23,9.23,0,0,1-.58-1.43c-.72-2.45,1.17-2.89,1.17-6.11a4.45,4.45,0,0,0-2.33-4.23s1-16.23-.85-22c-1.42-4.37-4.1-6.65-8-5.09"/><path class="cls-7" d="M23.21,42s1.73,0,1.85,2.37"/><path class="cls-7" d="M21.77,47.46s-2.44-1-3.89.33"/><path class="cls-7" d="M29.24,42.39s3.53.18,3.2,1.57"/><path class="cls-7" d="M28.73,47.41s3.3-.51,4.19.6"/><path class="cls-7" d="M21.28,51.92a6.75,6.75,0,0,1,3.33,2.22"/><path class="cls-7" d="M29.89,50.89s-2.6-1.1-2.67.38,1.11,4.6.52,4.89"/><ellipse class="cls-8" cx="11.45" cy="14.81" rx="3.11" ry="4.94"/><ellipse class="cls-8" cx="7.33" cy="5.75" rx="3.11" ry="4.94" transform="translate(-1.92 6.86) rotate(-45)"/><ellipse class="cls-8" cx="16.89" cy="9.87" rx="4.94" ry="3.11"/><ellipse class="cls-8" cx="16.08" cy="12.45" rx="3.11" ry="4.94" transform="translate(-4.09 15.02) rotate(-45)"/><ellipse class="cls-8" cx="15.71" cy="5.75" rx="4.94" ry="3.11" transform="translate(0.54 12.79) rotate(-45)"/><ellipse class="cls-8" cx="11.41" cy="4.94" rx="3.11" ry="4.94"/><ellipse class="cls-8" cx="7.83" cy="12.98" rx="4.94" ry="3.11" transform="translate(-6.89 9.34) rotate(-45)"/><ellipse class="cls-8" cx="6.52" cy="9.87" rx="4.94" ry="3.11"/><circle class="cls-9" cx="11.45" cy="9.87" r="3.07"/></g><polygon class="cls-10" points="43.51 18.89 43.51 57.9 45.77 63.9 48.02 57.94 48.02 18.89 43.51 18.89"/><line class="cls-10" x1="45.76" y1="25.35" x2="45.76" y2="58.24"/><g class="cls-11"><g class="cls-3"><rect class="cls-5" y="35.12" width="80.18" height="53"/></g></g></svg>