<svg id="Ebene_1" data-name="Ebene 1" xmlns="http://www.w3.org/2000/svg" viewBox="0 0 80.18 80.18"><defs><style>.cls-1{fill:#e6f0d9;}.cls-2,.cls-6{fill:none;}.cls-2{stroke:#2196f3;}.cls-2,.cls-3,.cls-4,.cls-5,.cls-6{stroke-linecap:round;stroke-linejoin:round;}.cls-3{fill:#4caf50;}.cls-3,.cls-4,.cls-5,.cls-6{stroke:#000;}.cls-4{fill:#67bf6a;}.cls-5{fill:#c4dca4;}</style></defs><rect class="cls-1" width="80.18" height="80.18" rx="10.07"/><line class="cls-2" x1="38.77" y1="56.36" x2="38.77" y2="43.11"/><line class="cls-2" x1="50.92" y1="39.42" x2="64.17" y2="39.42"/><line class="cls-2" x1="41.72" y1="43.11" x2="53.58" y2="49.02"/><line class="cls-2" x1="20.45" y1="30.49" x2="30.97" y2="35.72"/><polygon class="cls-3" points="50.33 38.61 33.88 38.61 27.22 35.72 43.66 35.72 50.33 38.61"/><polygon class="cls-4" points="27.22 35.72 27.22 40.23 33.88 43.11 33.88 38.61 27.22 35.72"/><rect class="cls-5" x="33.88" y="38.61" width="16.44" height="4.5"/><line class="cls-6" x1="39.11" y1="41.67" x2="39.11" y2="42.83"/><line class="cls-6" x1="42.11" y1="41.67" x2="42.11" y2="42.83"/><line class="cls-6" x1="45.11" y1="41.67" x2="45.11" y2="42.83"/><line class="cls-2" x1="38.77" y1="37.17" x2="38.77" y2="22.92"/><line class="cls-2" x1="16.02" y1="39.42" x2="30.27" y2="39.42"/><line class="cls-2" x1="16.02" y1="39.42" x2="17.64" y2="38.07"/><line class="cls-2" x1="16.02" y1="39.41" x2="17.64" y2="40.77"/><line class="cls-2" x1="38.77" y1="56.36" x2="37.42" y2="54.74"/><line class="cls-2" x1="38.77" y1="56.36" x2="40.12" y2="54.74"/><line class="cls-2" x1="38.77" y1="22.92" x2="40.12" y2="24.54"/><line class="cls-2" x1="38.78" y1="22.92" x2="37.42" y2="24.54"/><line class="cls-2" x1="64.17" y1="39.42" x2="62.54" y2="40.77"/><line class="cls-2" x1="64.17" y1="39.43" x2="62.54" y2="38.07"/><line class="cls-2" x1="53.6" y1="49" x2="51.57" y2="49.6"/><line class="cls-2" x1="53.59" y1="49.01" x2="52.64" y2="47.12"/><line class="cls-2" x1="20.43" y1="30.49" x2="22.51" y2="30.14"/><line class="cls-2" x1="20.43" y1="30.48" x2="21.15" y2="32.47"/></svg>