<svg id="Ebene_1" data-name="Ebene 1" xmlns="http://www.w3.org/2000/svg" xmlns:xlink="http://www.w3.org/1999/xlink" viewBox="0 0 80.18 80.18"><defs><style>.cls-1,.cls-11,.cls-5,.cls-6{fill:none;}.cls-2{fill:#e6f0d9;}.cls-3{fill:#2196f3;}.cls-10,.cls-3,.cls-4,.cls-5,.cls-7,.cls-9{stroke:#000;}.cls-10,.cls-11,.cls-3,.cls-4,.cls-5,.cls-6,.cls-7,.cls-9{stroke-linecap:round;stroke-linejoin:round;}.cls-4,.cls-8{fill:#fff;}.cls-6{stroke:#1d1d1b;stroke-dasharray:2;}.cls-7{fill:#4caf50;}.cls-9{fill:#67bf6a;}.cls-10{fill:#c4dca4;}.cls-11{stroke:#84cff4;}.cls-12{clip-path:url(#clip-path);}.cls-13{fill:#49270f;}.cls-14{fill:#663616;}.cls-15{opacity:0.53;}</style><clipPath id="clip-path"><rect class="cls-1" y="-88" width="80.18" height="80.18" rx="10.07"/></clipPath></defs><rect class="cls-2" width="80.18" height="80.18" rx="10.07"/><path class="cls-3" d="M58.77,22.56C51.81,25.39,48,52,48.72,61.86c.56,7.59,4.93,13,9.85,13.63,1.46.19,3.23.42,4.57-.56A27.49,27.49,0,0,0,73.92,51.6c-.65-8.69-5-26.66-11.18-28.84A8.63,8.63,0,0,0,58.77,22.56Zm.5,6.68c-1.14.46-2.11.17-2.17-.64s.81-1.85,1.95-2.31,2.1-.18,2.16.64S60.4,28.78,59.27,29.24Z"/><path class="cls-3" d="M60.6,22.89c-7,2.83-10.79,29.46-10.05,39.3s7,15.53,13.93,12.7,12-13.11,11.27-23S67.56,20.06,60.6,22.89Zm.5,6.68c-1.14.46-2.11.18-2.17-.64s.81-1.85,2-2.31,2.1-.17,2.16.64S62.23,29.11,61.1,29.57Z"/><polygon class="cls-4" points="71.65 63.03 70.08 42.01 58.39 46.77 54.92 53.83 56.08 69.37 71.65 63.03"/><polyline class="cls-5" points="57.7 66.31 56.82 54.55 59.79 48.6 68.47 45.07 69.69 61.43 59.51 65.57 58.66 54.2 60.36 50.74 67.05 48.02 67.94 60 60.95 62.84 60.33 54.51 61.09 52.95 65.57 51.12 65.97 56.46 64.81 56.93 64.63 54.59 62.36 55.52 62.64 59.25 64.91 58.32 64.76 56.28"/><path class="cls-5" d="M57.77,23.13a5,5,0,0,1,2.58-3.63c1.67-.68,3.18.69,3.36,3.07s-1,4.84-2.72,5.53a2.05,2.05,0,0,1-1.8-.07"/><line class="cls-6" x1="30.84" y1="52.99" x2="48.45" y2="62.27"/><line class="cls-6" x1="30" y1="52.52" x2="30.71" y2="54.95"/><line class="cls-6" x1="30.06" y1="52.5" x2="32.53" y2="51.91"/><polygon class="cls-7" points="25.86 30.98 8.27 38.14 6.41 13.24 24 6.09 25.86 30.98"/><polygon class="cls-7" points="28.26 31.94 10.67 39.1 8.81 14.21 26.4 7.05 28.26 31.94"/><path class="cls-8" d="M16.41,27.41a4.37,4.37,0,0,1-1.24-3,7.38,7.38,0,0,1,.74-3.77l.88.81a4.91,4.91,0,0,0-.5,2.5,3,3,0,0,0,.83,2Zm4.75-1.94a7.32,7.32,0,0,0,.74-3.76,4.35,4.35,0,0,0-1.24-3L20,20.2a2.91,2.91,0,0,1,.83,2,5.09,5.09,0,0,1-.49,2.51Zm-2.74-4a2.11,2.11,0,0,0-1,2c.07.88.63,1.38,1.24,1.13a2.11,2.11,0,0,0,1-2C19.59,21.75,19,21.24,18.42,21.49Zm4.6-.24a10,10,0,0,1-1,5l.88.8a12.51,12.51,0,0,0,1.22-6.27,7.33,7.33,0,0,0-2.06-4.94l-.71,1.45A5.86,5.86,0,0,1,23,21.25Zm-8-1.36-.88-.8a12.49,12.49,0,0,0-1.22,6.27A7.35,7.35,0,0,0,15,30.3l.71-1.45a5.91,5.91,0,0,1-1.65-4A10,10,0,0,1,15,19.89Z"/><polygon class="cls-9" points="8.81 14.21 6.41 13.24 8.27 38.14 10.67 39.1 8.81 14.21"/><polygon class="cls-10" points="26.4 7.05 24 6.09 6.41 13.24 8.81 14.21 26.4 7.05"/><line class="cls-6" x1="24.17" y1="11.22" x2="41.78" y2="20.5"/><line class="cls-6" x1="40.91" y1="20.02" x2="40.1" y2="17.62"/><line class="cls-6" x1="40.85" y1="20.04" x2="38.42" y2="20.74"/><path class="cls-11" d="M44.42,13.42c.85,2.25.4,5.38-1.39,8.16a9.8,9.8,0,0,1-6.4,4.59"/><path class="cls-11" d="M49.72,11.46c1.33,3.53.63,8.43-2.19,12.78-2.63,4.08-6.45,6.67-10,7.19"/><path class="cls-11" d="M25.93,58.91c-.85-2.25-.4-5.38,1.4-8.16a9.77,9.77,0,0,1,6.39-4.58"/><path class="cls-11" d="M20.63,60.87c-1.33-3.53-.62-8.43,2.19-12.78,2.63-4.08,6.45-6.67,10-7.18"/><g class="cls-12"><rect class="cls-13" y="-52.88" width="80.18" height="53"/><rect class="cls-14" y="-39.88" width="80.18" height="53"/></g><g class="cls-15"><g class="cls-12"><rect class="cls-13" y="-52.88" width="80.18" height="53"/></g></g></svg>