<svg id="Ebene_1" data-name="Ebene 1" xmlns="http://www.w3.org/2000/svg" viewBox="0 0 39.25 84.68"><defs><style>.cls-1{fill:#e6f0d9;}.cls-2{fill:#2196f3;stroke:#1d1d1b;}.cls-2,.cls-3,.cls-4,.cls-5,.cls-6{stroke-linecap:round;stroke-linejoin:round;}.cls-3{fill:#84cff4;}.cls-3,.cls-4{stroke:#000;}.cls-4{fill:#4caf50;}.cls-5{fill:#1d1d1b;stroke:#2196f3;}.cls-6{stroke:#84cff4;}</style></defs><rect class="cls-1" x="-22.71" y="22.71" width="84.68" height="39.25" rx="10.07" transform="translate(61.96 22.71) rotate(90)"/><rect class="cls-2" x="12.45" y="43.15" width="14.34" height="25.49"/><rect class="cls-3" x="12.45" y="16.04" width="14.34" height="27.1"/><ellipse class="cls-3" cx="19.63" cy="16.04" rx="7.17" ry="1.85"/><ellipse class="cls-2" cx="19.63" cy="68.63" rx="7.17" ry="1.85"/><ellipse class="cls-4" cx="19.63" cy="43.15" rx="7.17" ry="1.85"/><line class="cls-5" x1="22.45" y1="48.88" x2="22.45" y2="63.55"/><line class="cls-5" x1="22.34" y1="48.23" x2="20.68" y2="50.15"/><line class="cls-5" x1="22.39" y1="48.28" x2="24.23" y2="50.02"/><line class="cls-5" x1="16.8" y1="48.88" x2="16.8" y2="63.55"/><line class="cls-5" x1="16.69" y1="48.23" x2="15.03" y2="50.15"/><line class="cls-5" x1="16.73" y1="48.28" x2="18.57" y2="50.02"/><line class="cls-6" x1="22.45" y1="46.7" x2="22.45" y2="67.04"/><line class="cls-6" x1="22.34" y1="46.11" x2="20.68" y2="48.03"/><line class="cls-6" x1="22.39" y1="46.16" x2="24.23" y2="47.9"/><line class="cls-6" x1="16.8" y1="46.7" x2="16.8" y2="67.04"/><line class="cls-6" x1="16.69" y1="46.11" x2="15.03" y2="48.03"/><line class="cls-6" x1="16.73" y1="46.16" x2="18.57" y2="47.9"/><line class="cls-6" x1="22.57" y1="67.67" x2="24.23" y2="65.75"/><line class="cls-6" x1="22.52" y1="67.62" x2="20.68" y2="65.88"/><line class="cls-6" x1="16.91" y1="67.67" x2="18.57" y2="65.75"/><line class="cls-6" x1="16.87" y1="67.62" x2="15.03" y2="65.88"/></svg>