<svg id="Ebene_1" data-name="Ebene 1" xmlns="http://www.w3.org/2000/svg" viewBox="0 0 58.89 58.89"><defs><style>.cls-1{fill:#e6f0d9;}.cls-2{fill:#5b5b5b;}.cls-3{fill:#c4dca4;}.cls-3,.cls-4,.cls-5,.cls-6{stroke:#000;stroke-linecap:round;stroke-linejoin:round;}.cls-4{fill:#4caf50;}.cls-5{fill:#67bf6a;}.cls-6{fill:none;}</style></defs><rect class="cls-1" width="58.89" height="58.89" rx="10.07"/><path class="cls-2" d="M38.57,37.75a10.81,10.81,0,0,0-5.38,1.47,7.51,7.51,0,0,1-3.75,1.09,7,7,0,0,1-3.74-1.09,10.6,10.6,0,0,0-10.77,0,7.44,7.44,0,0,1-3.74,1.09v3.56a10.92,10.92,0,0,0,5.38-1.46,7.45,7.45,0,0,1,3.75-1.1,7.07,7.07,0,0,1,3.74,1.1,10.66,10.66,0,0,0,10.77,0,7.47,7.47,0,0,1,3.74-1.1,6.93,6.93,0,0,1,3.74,1.1,10.84,10.84,0,0,0,5.39,1.46V40.31A7,7,0,0,1,44,39.22,10.82,10.82,0,0,0,38.57,37.75Zm0-8.12a11.14,11.14,0,0,0-5.38,1.46,7.62,7.62,0,0,1-3.75,1.1,7,7,0,0,1-3.74-1.1,10.76,10.76,0,0,0-5.38-1.46,11,11,0,0,0-5.39,1.46,7.55,7.55,0,0,1-3.74,1.1v3.56a11.14,11.14,0,0,0,5.38-1.46,6.93,6.93,0,0,1,7.49,0,10.73,10.73,0,0,0,5.38,1.46,11,11,0,0,0,5.39-1.46,6.91,6.91,0,0,1,7.48,0,10.84,10.84,0,0,0,5.39,1.46V32.19A6.93,6.93,0,0,1,44,31.09,10.93,10.93,0,0,0,38.57,29.63ZM44,14.88a10.66,10.66,0,0,0-10.77,0A7.72,7.72,0,0,1,29.44,16a7,7,0,0,1-3.74-1.1,10.66,10.66,0,0,0-10.77,0A7.44,7.44,0,0,1,11.19,16V19.5A11.14,11.14,0,0,0,16.57,18a7.45,7.45,0,0,1,3.75-1.1A7.07,7.07,0,0,1,24.06,18a10.73,10.73,0,0,0,5.38,1.46A11,11,0,0,0,34.83,18a7.58,7.58,0,0,1,3.74-1.1A6.93,6.93,0,0,1,42.31,18,10.84,10.84,0,0,0,47.7,19.5V15.94A7.28,7.28,0,0,1,44,14.88Zm-5.39,6.63A11,11,0,0,0,33.19,23a7,7,0,0,1-7.49,0,10.66,10.66,0,0,0-5.38-1.46A10.88,10.88,0,0,0,14.93,23a7,7,0,0,1-3.74,1.09v3.56a11,11,0,0,0,5.38-1.46,7.72,7.72,0,0,1,3.75-1.09,7.12,7.12,0,0,1,3.74,1.09,10.63,10.63,0,0,0,5.38,1.46,10.88,10.88,0,0,0,5.39-1.46,7.68,7.68,0,0,1,3.74-1.09,6.93,6.93,0,0,1,3.74,1.09,10.73,10.73,0,0,0,5.39,1.46V24.06A6.93,6.93,0,0,1,44,23,10.83,10.83,0,0,0,38.57,21.51Z"/><polygon class="cls-3" points="12.65 30.45 37.01 30.45 46.23 34.79 21.87 34.79 12.65 30.45"/><polygon class="cls-4" points="39.65 28.64 23.21 28.64 16.54 25.76 32.98 25.76 39.65 28.64"/><polygon class="cls-5" points="16.54 25.76 16.54 30.26 23.21 33.15 23.21 28.64 16.54 25.76"/><rect class="cls-3" x="23.21" y="28.65" width="16.44" height="4.5"/><line class="cls-6" x1="28.5" y1="31.67" x2="28.5" y2="32.83"/><line class="cls-6" x1="31.5" y1="31.67" x2="31.5" y2="32.83"/><line class="cls-6" x1="34.5" y1="31.67" x2="34.5" y2="32.83"/></svg>