<svg id="Ebene_1" data-name="Ebene 1" xmlns="http://www.w3.org/2000/svg" viewBox="0 0 58.89 58.89"><defs><style>.cls-1{fill:#e6f0d9;}.cls-2{fill:#2196f3;}.cls-3{fill:#c4dca4;}.cls-3,.cls-4,.cls-5,.cls-6{stroke:#000;stroke-linecap:round;stroke-linejoin:round;}.cls-4{fill:#4caf50;}.cls-5{fill:#67bf6a;}.cls-6{fill:none;}</style></defs><rect class="cls-1" width="58.89" height="58.89" rx="10.07"/><polygon class="cls-2" points="34.1 14.64 31.1 14.64 31.1 11.64 29.1 11.64 29.1 14.64 26.1 14.64 30.1 18.64 34.1 14.64"/><rect class="cls-2" x="22.1" y="19.64" width="16" height="2"/><polygon class="cls-2" points="26.1 44.25 29.1 44.25 29.1 47.25 31.1 47.25 31.1 44.25 34.1 44.25 30.1 40.25 26.1 44.25"/><rect class="cls-2" x="22.1" y="37.25" width="16" height="2"/><polygon class="cls-3" points="14.65 30.09 39.01 30.09 48.23 34.42 23.87 34.42 14.65 30.09"/><polygon class="cls-4" points="41.65 28.28 25.21 28.28 18.54 25.39 34.98 25.39 41.65 28.28"/><polygon class="cls-5" points="18.54 25.39 18.54 29.89 25.21 32.78 25.21 28.28 18.54 25.39"/><rect class="cls-3" x="25.21" y="28.28" width="16.44" height="4.5"/><line class="cls-6" x1="30.43" y1="31.28" x2="30.43" y2="32.45"/><line class="cls-6" x1="33.43" y1="31.28" x2="33.43" y2="32.45"/><line class="cls-6" x1="36.43" y1="31.28" x2="36.43" y2="32.45"/></svg>