<svg id="Ebene_1" data-name="Ebene 1" xmlns="http://www.w3.org/2000/svg" viewBox="0 0 99.38 99.38"><defs><style>.cls-1{fill:#e6f0d9;}.cls-2{fill:#c4dca4;}.cls-2,.cls-3,.cls-4,.cls-5{stroke:#000;}.cls-2,.cls-3,.cls-4,.cls-5,.cls-6,.cls-7,.cls-8{stroke-linecap:round;}.cls-2,.cls-3,.cls-4,.cls-5,.cls-6,.cls-7,.cls-8,.cls-9{stroke-linejoin:round;}.cls-3{fill:#4caf50;}.cls-4{fill:#67bf6a;}.cls-5,.cls-6,.cls-7,.cls-8,.cls-9{fill:none;}.cls-6{stroke:#84cff4;}.cls-7{stroke:#1d1d1b;stroke-dasharray:2;}.cls-8,.cls-9{stroke:#2196f3;}</style></defs><rect class="cls-1" width="99.38" height="99.38" rx="10.07"/><polygon class="cls-2" points="44.69 85.85 69.05 85.85 78.27 90.19 53.91 90.19 44.69 85.85"/><polygon class="cls-3" points="71.69 84.05 55.24 84.05 48.58 81.16 65.02 81.16 71.69 84.05"/><polygon class="cls-4" points="48.58 81.16 48.58 85.66 55.24 88.55 55.24 84.05 48.58 81.16"/><rect class="cls-2" x="55.24" y="84.05" width="16.44" height="4.5"/><line class="cls-5" x1="60.54" y1="87.07" x2="60.54" y2="88.23"/><line class="cls-5" x1="63.54" y1="87.07" x2="63.54" y2="88.23"/><line class="cls-5" x1="66.54" y1="87.07" x2="66.54" y2="88.23"/><path class="cls-6" d="M29.4,31.29c-.63,3.46-3.54,7.05-7.89,9.19-4.06,2-8.37,2.25-11.47,1"/><path class="cls-6" d="M37.53,32.82c-1,5.42-5.55,11-12.36,14.4-6.37,3.14-13.11,3.51-18,1.48"/><path class="cls-6" d="M79.36,17.42c-2.28,2.68-6.6,4.33-11.43,4-4.53-.3-8.38-2.25-10.41-4.92"/><path class="cls-6" d="M85.62,22.82c-3.56,4.19-10.33,6.77-17.9,6.27-7.08-.47-13.11-3.52-16.3-7.71"/><line class="cls-7" x1="21.16" y1="38.78" x2="49.13" y2="78.53"/><line class="cls-7" x1="69.05" y1="18.27" x2="65.01" y2="79.06"/><circle class="cls-8" cx="19.19" cy="35.85" r="1.97"/><path class="cls-8" d="M14.31,31.37a2,2,0,0,1,2.23-2.85,2,2,0,0,1,1.22.94"/><line class="cls-8" x1="17.58" y1="36.99" x2="14.28" y2="31.31"/><line class="cls-8" x1="20.87" y1="34.82" x2="17.76" y2="29.46"/><rect class="cls-8" x="9.36" y="34.01" width="6.25" height="2.76" transform="translate(-16.31 11.32) rotate(-30.68)"/><rect class="cls-8" x="18.8" y="28.64" width="6.25" height="2.76" transform="translate(-12.25 15.39) rotate(-30.68)"/><circle class="cls-9" cx="69.49" cy="14.47" r="1.97"/><path class="cls-9" d="M67.8,8.06a1.91,1.91,0,0,1,.62-1.29,2,2,0,0,1,2.79.09,2,2,0,0,1,.53,1.46"/><line class="cls-9" x1="67.52" y1="14.56" x2="67.8" y2="8"/><line class="cls-9" x1="71.47" y1="14.5" x2="71.74" y2="8.32"/><rect class="cls-9" x="60.97" y="9.08" width="6.25" height="2.76" transform="translate(0.38 -2.12) rotate(1.9)"/><rect class="cls-9" x="71.82" y="9.65" width="6.25" height="2.76" transform="translate(0.41 -2.48) rotate(1.9)"/><line class="cls-7" x1="64.84" y1="79.84" x2="66.79" y2="78.21"/><line class="cls-7" x1="64.81" y1="79.79" x2="63.27" y2="77.76"/><line class="cls-7" x1="49.77" y1="79.44" x2="50.16" y2="76.93"/><line class="cls-7" x1="49.71" y1="79.42" x2="47.22" y2="78.92"/></svg>