<svg id="Ebene_1" data-name="Ebene 1" xmlns="http://www.w3.org/2000/svg" xmlns:xlink="http://www.w3.org/1999/xlink" viewBox="0 0 80.18 80.18"><defs><style>.cls-1{fill:#e6f0d9;}.cls-2{fill:#4caf50;stroke-linecap:round;stroke-linejoin:round;}.cls-2,.cls-5{stroke:#000;}.cls-3{fill:#fff;}.cls-4,.cls-5{stroke-miterlimit:10;}.cls-4{fill:url(#Unbenannter_Verlauf_73);stroke:url(#Unbenannter_Verlauf_66);}.cls-5{fill:#2196f3;}</style><linearGradient id="Unbenannter_Verlauf_73" x1="57.23" y1="22.5" x2="38.59" y2="43.12" gradientUnits="userSpaceOnUse"><stop offset="0" stop-color="#fff"/><stop offset="1" stop-color="#84cff4"/></linearGradient><linearGradient id="Unbenannter_Verlauf_66" x1="61.55" y1="17.69" x2="32.34" y2="50.01" gradientUnits="userSpaceOnUse"><stop offset="0" stop-color="#fff"/><stop offset="0.08" stop-color="#d1d1d1"/><stop offset="0.17" stop-color="#a0a0a0"/><stop offset="0.26" stop-color="#757575"/><stop offset="0.36" stop-color="#515151"/><stop offset="0.46" stop-color="#333"/><stop offset="0.57" stop-color="#1d1d1d"/><stop offset="0.69" stop-color="#0d0d0d"/><stop offset="0.82" stop-color="#030303"/><stop offset="1"/></linearGradient></defs><rect class="cls-1" width="80.18" height="80.18" rx="10.07"/><polygon class="cls-2" points="45.52 62.39 18.49 62.39 13.15 47.99 38.42 47.99 45.52 62.39"/><path class="cls-3" d="M34,51.44a.64.64,0,0,1-.2,0,17.35,17.35,0,0,0-9.48,0,.64.64,0,0,1-.57-.09c-.12-.11,0-.26.17-.32a18.8,18.8,0,0,1,10.27,0c.22.07.29.21.18.32A.52.52,0,0,1,34,51.44ZM21.77,53.9a.93.93,0,0,1-.24,0c-.2-.08-.24-.22-.11-.33A9.29,9.29,0,0,1,24.61,52a17.19,17.19,0,0,1,8.78,0,9.46,9.46,0,0,1,3.19,1.52c.13.11.09.26-.1.33a.69.69,0,0,1-.6-.05A8.48,8.48,0,0,0,33,52.41a15.72,15.72,0,0,0-8,0,8.6,8.6,0,0,0-2.9,1.39A.45.45,0,0,1,21.77,53.9Zm5.32,5.65a.58.58,0,0,1-.3-.07,6.53,6.53,0,0,1-1.71-1.24,2.77,2.77,0,0,1-.89-2c0-1.39,2.16-2.52,4.81-2.52s4.82,1.13,4.82,2.52c0,.13-.19.24-.43.24s-.42-.11-.42-.24c0-1.13-1.78-2.05-4-2.05s-4,.92-4,2.05A2.49,2.49,0,0,0,25.83,58a6.66,6.66,0,0,0,1.57,1.13c.17.09.17.24,0,.33A.64.64,0,0,1,27.09,59.55Zm6.1-.86a7.69,7.69,0,0,1-2.64-.42c-1.26-.47-2-1.24-2-2.06,0-.13.19-.23.42-.23s.43.1.43.23c0,.66.61,1.29,1.65,1.67a6.25,6.25,0,0,0,2.16.33c.2,0,.55,0,.89,0s.45.06.49.19-.11.25-.35.27C33.74,58.68,33.31,58.69,33.19,58.69Zm-1.71,1h-.11a9.18,9.18,0,0,1-3.17-1,3,3,0,0,1-1.84-2.45c0-.76,1.17-1.37,2.62-1.37s2.62.61,2.62,1.37c0,.5.79.91,1.77.91s1.77-.41,1.77-.91c0-1.76-2.77-3.2-6.17-3.2-2.42,0-4.63.74-5.62,1.89a1.93,1.93,0,0,0-.51,1.31,2.86,2.86,0,0,0,.57,1.69c.09.12,0,.26-.24.3a.59.59,0,0,1-.55-.13A3.33,3.33,0,0,1,22,56.21a2.31,2.31,0,0,1,.58-1.52c1.13-1.3,3.64-2.15,6.39-2.15,3.87,0,7,1.64,7,3.67,0,.76-1.17,1.37-2.62,1.37s-2.62-.61-2.62-1.37c0-.5-.79-.91-1.77-.91s-1.77.41-1.77.91a2.56,2.56,0,0,0,1.59,2.11,8,8,0,0,0,2.78.87c.23,0,.36.16.3.28S31.66,59.65,31.48,59.65Z"/><path class="cls-4" d="M54.86,13.8s-2.19,5.11-2.48,5.85,1.84-1.35-18.56,22.29c0,0-4.74,4.45-2.44,6.52s6.14.81,9.63-2.59C43.64,43.3,61.38,24.76,67,23"/><path class="cls-5" d="M30.89,46.16c-.16.53,1.89,1.56,3.23,1.27s2.66-2.67,2.66-2.67l-3-2.82S31.25,44.9,30.89,46.16Z"/></svg>